<?xml version="1.0" encoding="UTF-8" standalone="no"?>
<!-- Created with Inkscape (http://www.inkscape.org/) -->

<svg
   width="193.85573mm"
   height="29.884964mm"
   viewBox="0 0 193.85573 29.884964"
   version="1.1"
   id="svg5"
   xmlns="http://www.w3.org/2000/svg"
   xmlns:svg="http://www.w3.org/2000/svg">
  <defs
     id="defs2" />
  <g
     id="layer1"
     transform="translate(-8.0721399,-82.927984)">
    <g
       aria-label="buymeacrypto coffee"
       id="text236-3"
       style="font-size:25.4px;line-height:1.25;stroke-width:0.52839">
      <path
         d="m 13.38743,86.654857 q -0.37207,1.488281 -0.843359,2.852539 -0.446485,1.339453 -0.942578,2.530078 -0.47129,1.16582 -0.967383,2.133203 -0.471289,0.967383 -0.8433596,1.686719 -0.2480469,1.785937 0,2.877344 0.2480466,1.091406 0.9673826,1.091406 0.595313,0 1.16582,-0.545703 0.570508,-0.545703 1.016993,-1.339453 0.446484,-0.79375 0.74414,-1.686719 0.322461,-0.917773 0.396875,-1.637109 -0.471289,-0.124024 -0.79375,-0.42168 -0.322461,-0.322461 -0.322461,-0.843359 0,-0.347266 0.198438,-0.644922 0.198437,-0.322461 0.471289,-0.545703 0.272851,-0.223243 0.595312,-0.347266 0.322461,-0.124023 0.595313,-0.124023 0.42168,0 0.719336,0.545703 0.297656,0.520898 0.396875,1.339453 0.992187,-0.02481 2.083594,-0.297656 1.091406,-0.272852 2.058789,-0.694532 0.272851,-0.124023 0.446484,-0.07441 0.173633,0.04961 0.223242,0.198438 0.07441,0.148828 0,0.347265 -0.07441,0.173633 -0.297656,0.272852 -0.570508,0.322461 -1.190625,0.595312 -0.595313,0.248047 -1.190625,0.42168 -0.595313,0.173633 -1.141016,0.272852 -0.545703,0.09922 -0.992187,0.09922 -0.09922,0.992188 -0.620117,2.158008 -0.520899,1.141016 -1.265039,2.133203 -0.744141,0.967383 -1.661914,1.612313 -0.892969,0.64492 -1.761133,0.64492 -0.272852,0 -0.7193362,-0.0744 -0.4464844,-0.0744 -0.868164,-0.52089 -0.4216797,-0.44649 -0.719336,-1.413876 -0.2976562,-0.992187 -0.2480468,-2.802929 0.024805,-1.21543 0.2728515,-2.579688 0.2480469,-1.364258 0.5953125,-2.728516 0.3472656,-1.364257 0.7689453,-2.629296 0.4464847,-1.289844 0.8433597,-2.306836 0.396875,-1.041797 0.719336,-1.736328 0.347265,-0.694532 0.520898,-0.892969 0.223242,-0.272852 0.520898,-0.396875 0.297657,-0.148828 0.570508,-0.198438 0.297657,-0.07441 0.545703,-0.04961 0.248047,0.0248 0.347266,0.07441 0.148828,0.09922 0.07441,1.091406 -0.04961,0.992188 -0.471289,2.554883 z"
         style="font-family:Satisfy;-inkscape-font-specification:Satisfy"
         id="path1137" />
      <path
         d="m 21.32493,101.26482 q -0.942578,0 -1.537891,-0.29766 -0.595312,-0.29765 -0.942578,-0.71933 -0.322461,-0.446489 -0.471289,-0.942582 -0.124023,-0.520899 -0.124023,-0.942579 0,-0.74414 0.124023,-1.562695 0.124024,-0.843359 0.297657,-1.53789 0.173632,-0.719336 0.297656,-1.21543 0.148828,-0.496094 0.198437,-0.620117 0.223242,-0.719336 0.570508,-1.240235 0.37207,-0.545703 1.016992,-0.74414 0.248047,-0.04961 0.520899,-0.09922 0.223242,-0.02481 0.446484,-0.02481 0.248047,0 0.446484,0.07441 -0.669726,1.711524 -1.066601,2.852539 -0.37207,1.141016 -0.570508,1.860352 -0.223242,0.818555 -0.272851,1.314648 -0.124024,1.116211 0.198437,1.686719 0.322461,0.570508 1.314648,0.570508 0.644922,0 1.240235,-0.471289 0.595312,-0.496094 1.091406,-1.265039 -0.07441,-0.396875 -0.07441,-0.818555 0,-0.79375 0.124023,-1.537891 0.148829,-0.768945 0.322461,-1.413867 0.198438,-0.669726 0.396875,-1.190625 0.223242,-0.520898 0.372071,-0.818554 0.272851,-0.595313 0.496093,-0.719336 0.223243,-0.148828 0.719336,-0.173633 0.198438,-0.02481 0.322461,0 0.148828,0 0.248047,0.02481 0.297656,0.07441 0.297656,0.297656 0,0.396875 -0.04961,1.190625 -0.04961,0.79375 -0.297656,1.637109 -0.173633,0.694531 -0.347266,1.190625 -0.148828,0.471289 -0.297656,0.818555 -0.148828,0.322461 -0.297656,0.545703 -0.148829,0.198437 -0.272852,0.37207 0.04961,0.744141 0.124023,1.190625 0.07442,0.446485 0.173633,0.694531 0.124024,0.223243 0.272852,0.322461 0.173633,0.07441 0.37207,0.07441 0.347266,0 0.818555,-0.32246 0.471289,-0.347266 0.967383,-0.84336 0.520898,-0.520898 1.016992,-1.116211 0.520898,-0.620117 0.942578,-1.16582 0.42168,-0.545703 0.719336,-0.942578 0.297656,-0.42168 0.37207,-0.520899 0.173633,-0.223242 0.322461,-0.272851 0.173633,-0.04961 0.272852,0.04961 0.09922,0.07441 0.09922,0.272852 0.0248,0.173633 -0.09922,0.396875 -0.496094,0.942578 -1.240235,2.009179 -0.719336,1.041797 -1.562695,1.934766 -0.818555,0.892969 -1.661914,1.488278 -0.843359,0.59531 -1.5875,0.59531 -0.669727,0 -1.066602,-0.44648 -0.37207,-0.47129 -0.644921,-1.339452 -0.570508,0.892972 -1.339454,1.389062 -0.768945,0.47129 -1.711523,0.47129 z"
         style="font-family:Satisfy;-inkscape-font-specification:Satisfy"
         id="path1139" />
      <path
         d="m 36.679032,91.739818 q 0.32246,-0.248047 0.620117,-0.37207 0.322461,-0.148828 0.570508,-0.198438 0.272851,-0.07441 0.545703,-0.04961 0.669726,0.04961 0.818554,0.421679 0.173633,0.372071 0.04961,1.190625 -0.07441,0.42168 -0.297657,1.066602 -0.223242,0.644922 -0.520898,1.5875 -0.297656,0.917773 -0.644922,2.108398 -0.322461,1.190625 -0.620117,2.678906 -0.297656,1.21543 -0.644922,2.80293 -0.297656,1.38906 -0.719336,3.34863 -0.396875,1.95957 -0.868164,4.48965 -0.124023,0.62012 -0.545703,0.71934 -0.396875,0.0992 -0.843359,-0.0992 -0.173633,-0.0992 -0.322461,-0.22324 -0.124024,-0.12403 -0.272852,-0.29766 -0.148828,-0.14883 -0.248047,-0.42168 0.570508,-2.08359 0.992188,-3.79512 0.446484,-1.71152 0.79375,-2.97656 0.37207,-1.46347 0.694531,-2.6293 0.124023,-0.52089 0.223242,-1.01699 0.124024,-0.520897 0.248047,-1.01699 -0.322461,0.520898 -0.694531,0.99219 -0.37207,0.47129 -0.818555,0.81855 -0.446484,0.34727 -0.967383,0.5209 -0.496093,0.19844 -1.041796,0.12402 -1.339454,-0.17363 -1.909961,-0.99218 -0.545704,-0.818558 -0.471289,-2.133207 0.0248,-0.520898 0.148828,-1.141016 0.124023,-0.620117 0.272851,-1.190624 0.148828,-0.570508 0.272852,-1.016993 0.148828,-0.471289 0.223242,-0.669726 0.297656,-0.942578 0.42168,-1.612305 0.148828,-0.669726 -0.198438,-1.116211 0.347266,-0.223242 0.644922,-0.297656 0.322461,-0.09922 0.570508,-0.148828 0.272851,-0.02481 0.545703,0 0.669726,0.09922 0.768945,0.496094 0.124024,0.396875 -0.07441,1.190625 -0.09922,0.421679 -0.322461,1.091406 -0.223242,0.644922 -0.471289,1.339453 -0.248047,0.694531 -0.446484,1.289844 -0.198438,0.570507 -0.223242,0.818554 -0.223243,1.116211 -0.02481,1.736328 0.198437,0.595313 0.868164,0.595313 0.322461,0 0.719336,-0.272852 0.396875,-0.297656 0.79375,-0.768945 0.42168,-0.471289 0.818555,-1.066602 0.396875,-0.620117 0.719336,-1.240234 0.347265,-0.620117 0.595312,-1.21543 0.272852,-0.595312 0.396875,-1.066601 0.173633,-0.917774 0.223242,-1.438672 0.04961,-0.520898 -0.347265,-0.942578 z"
         style="font-family:Satisfy;-inkscape-font-specification:Satisfy"
         id="path1141" />
      <path
         d="m 52.033132,99.726927 q 0,-0.520898 0.09922,-1.190625 0.124024,-0.669726 0.297657,-1.364258 0.173632,-0.719335 0.347265,-1.389062 0.173633,-0.669727 0.297656,-1.190625 0.148829,-0.644922 -0.0248,-0.992188 -0.173633,-0.347265 -0.595313,-0.347265 -0.198437,0 -0.79375,0.347265 -0.570508,0.347266 -1.265039,1.21543 -0.669726,0.84336 -1.339453,2.306836 -0.644922,1.438672 -1.016992,3.671095 -0.471289,0.24805 -0.892969,0.32246 -0.223242,0.0496 -0.396875,0.0744 -0.496094,0.0248 -0.644922,-0.17363 -0.148828,-0.17363 0.04961,-0.89297 0.09922,-0.347263 0.347265,-1.116209 0.272852,-0.768945 0.520899,-1.661914 0.248047,-0.917773 0.421679,-1.810742 0.198438,-0.917773 0.198438,-1.5875 0,-0.471289 -0.173633,-0.644922 -0.148828,-0.173633 -0.446484,-0.173633 -0.223242,0 -0.744141,0.248047 -0.520898,0.248047 -1.16582,0.967383 -0.644922,0.719336 -1.289844,2.00918 -0.620117,1.265039 -1.066601,3.299023 v -0.04961 q -0.04961,0.198437 -0.09922,0.396875 -0.04961,0.173632 -0.07441,0.372072 -0.02481,0.19844 -0.07441,0.37207 l -1.240235,0.5457 q -0.124023,0.0496 -0.322461,0.0744 -0.173632,0.0248 -0.347265,-0.0744 -0.148828,-0.0744 -0.223242,-0.34726 -0.07441,-0.27285 0.04961,-0.81856 l 1.562695,-6.474022 q 0.07441,-0.322461 0.124024,-0.620117 0.04961,-0.272852 0.04961,-0.520899 0.02481,-0.272851 -0.02481,-0.446484 0.42168,-0.198438 0.744141,-0.297656 0.322461,-0.09922 0.520898,-0.148828 0.248047,-0.07442 0.42168,-0.07442 0.79375,0 0.520899,1.364258 -0.09922,0.396875 -0.297657,1.165821 0.471289,-0.595313 0.992188,-1.116211 0.545703,-0.545704 1.091406,-0.967383 0.545703,-0.42168 1.091406,-0.669727 0.570508,-0.248047 1.116211,-0.248047 0.42168,0 0.694531,0.248047 0.297657,0.248047 0.446485,0.669727 0.173633,0.396875 0.198437,0.967383 0.02481,0.545703 -0.04961,1.141015 0.396875,-0.520898 0.868164,-1.041797 0.496094,-0.545703 1.016992,-0.967382 0.545703,-0.42168 1.116211,-0.694532 0.570508,-0.272851 1.141016,-0.272851 0.669726,0 1.016992,0.396875 0.37207,0.396875 0.496094,1.016992 0.148828,0.620117 0.07441,1.339453 -0.04961,0.719336 -0.198438,1.389063 L 54.315168,98.6107 q -0.272852,1.240235 0.520898,1.240235 0.620117,0 1.364258,-0.595313 0.744141,-0.595312 1.438672,-1.413867 0.719336,-0.818555 1.339453,-1.686719 0.620117,-0.868164 1.041797,-1.389062 0.148828,-0.173633 0.297656,-0.198438 0.173633,-0.0248 0.272852,0.07441 0.124023,0.07441 0.124023,0.272852 0.0248,0.198437 -0.124023,0.496094 -0.496094,0.868164 -1.21543,1.934765 -0.719336,1.041797 -1.5875,1.959571 -0.843359,0.917772 -1.810742,1.537892 -0.967383,0.62012 -2.00918,0.62012 -0.347266,0 -0.694531,-0.0744 -0.322461,-0.0744 -0.620117,-0.27285 -0.272852,-0.19844 -0.446485,-0.5209 -0.173632,-0.34726 -0.173632,-0.868163 z"
         style="font-family:Satisfy;-inkscape-font-specification:Satisfy"
         id="path1143" />
      <path
         d="m 69.942116,95.708568 q -0.744141,1.091406 -1.686719,2.133203 -0.942578,1.016992 -2.009179,1.835547 -1.041797,0.793752 -2.158008,1.289842 -1.091406,0.4961 -2.133203,0.4961 -0.545703,0 -1.190625,-0.27286 -0.620118,-0.24804 -1.141016,-0.79375 -0.520898,-0.545699 -0.843359,-1.413863 -0.297657,-0.868164 -0.173633,-2.108399 0.09922,-1.016992 0.620117,-2.133203 0.545703,-1.141016 1.314648,-2.083594 0.79375,-0.942578 1.761133,-1.562695 0.992188,-0.620117 1.984375,-0.620117 0.942578,0 1.364258,0.471289 0.42168,0.471289 0.37207,1.16582 -0.07441,0.768946 -0.446484,1.413867 -0.347266,0.644922 -0.843359,1.165821 -0.496094,0.520898 -1.066602,0.942578 -0.545703,0.42168 -1.041797,0.768945 -0.545703,0.37207 -1.041797,0.719336 -0.496093,0.322461 -0.868164,0.595313 0.0248,0.620117 0.223242,1.041796 0.198438,0.42168 0.496094,0.694532 0.297656,0.248047 0.669727,0.37207 0.396875,0.09922 0.79375,0.09922 0.843359,0 1.761133,-0.520899 0.917773,-0.545703 1.785937,-1.289843 0.892969,-0.768946 1.637109,-1.5875 0.768946,-0.818555 1.265039,-1.413868 0.173633,-0.198437 0.347266,-0.223242 0.198438,-0.04961 0.297656,0.04961 0.124024,0.07441 0.124024,0.297656 0,0.198437 -0.173633,0.471288 z m -6.35,-3.819922 q -0.297656,0 -0.719336,0.297656 -0.396875,0.297657 -0.79375,0.868164 -0.396875,0.545703 -0.744141,1.364258 -0.347265,0.79375 -0.520898,1.835547 0.297656,-0.223242 0.644922,-0.446484 0.347266,-0.248047 0.694531,-0.520899 1.066602,-0.818554 1.488281,-1.438672 0.42168,-0.620117 0.471289,-1.066601 0.04961,-0.471289 -0.09922,-0.669727 -0.148828,-0.223242 -0.42168,-0.223242 z"
         style="font-family:Satisfy;-inkscape-font-specification:Satisfy"
         id="path1145" />
      <path
         d="m 80.880982,95.93181 q -0.347266,0.496094 -0.892969,1.240234 -0.545703,0.719336 -1.141016,1.463477 -0.570508,0.719336 -1.141015,1.339453 -0.545704,0.595316 -0.917774,0.843356 -0.248047,0.14883 -0.570508,0.24805 -0.322461,0.0992 -0.669726,0.12402 -0.322461,0.0248 -0.620117,-0.0496 -0.297657,-0.0496 -0.520899,-0.19843 -0.223242,-0.17364 -0.37207,-0.4961 -0.124024,-0.27285 -0.248047,-0.719333 -0.09922,-0.446484 -0.07441,-1.116211 -0.595313,0.992188 -1.314648,1.537894 -0.719336,0.5209 -1.364258,0.76894 -0.744141,0.27285 -1.488281,0.32246 -0.347266,0 -0.744141,-0.24804 -0.396875,-0.22325 -0.669727,-0.71934 -0.272851,-0.520898 -0.347265,-1.314648 -0.07441,-0.818555 0.198437,-1.934766 0.347266,-1.513086 1.091406,-2.75332 0.768946,-1.240234 1.661915,-2.108398 0.892968,-0.892969 1.761132,-1.339453 0.868164,-0.446485 1.438672,-0.396875 0.669727,0.124023 1.091406,0.396875 0.347266,0.248046 0.446485,0.74414 0.124023,0.471289 -0.396875,1.265039 0.347265,-0.07441 0.570508,-0.09922 0.248046,-0.0248 0.37207,-0.0248 0.148828,0 0.198437,0.0248 0.02481,0.04961 0.02481,0.223243 0,0.148828 -0.07441,0.570507 -0.07441,0.42168 -0.223242,1.141016 -0.148828,0.719336 -0.396875,1.860352 -0.04961,0.223242 -0.09922,0.421679 -0.02481,0.173633 -0.07441,0.372071 -0.02481,0.173632 -0.07441,0.421679 -0.04961,0.248047 -0.124023,0.620117 -0.02481,0.223243 -0.02481,0.496094 0.02481,0.248047 0.09922,0.471289 0.07441,0.223242 0.223242,0.372071 0.173633,0.124023 0.471289,0.124023 0.248047,0 0.644922,-0.297656 0.396875,-0.322461 0.843359,-0.79375 0.446484,-0.496094 0.917773,-1.066602 0.496094,-0.595312 0.917774,-1.141015 0.42168,-0.545704 0.74414,-0.967383 0.347266,-0.42168 0.496094,-0.620117 0.198438,-0.223243 0.396875,-0.248047 0.198438,-0.04961 0.297656,0.09922 0.09922,0.148829 0.02481,0.446485 -0.04961,0.297656 -0.347265,0.694531 z m -7.267774,1.091406 q 0.124024,-0.496093 0.297656,-1.16582 0.173633,-0.669727 0.297657,-1.289844 0.124023,-0.620117 0.173633,-1.016992 0.07441,-0.42168 -0.02481,-0.396875 -0.124024,0.02481 -0.272852,0.07441 -0.124023,0.04961 -0.322461,0.07441 -0.198437,0.02481 -0.396875,0.07441 0.198438,-0.396875 0.223243,-0.644922 0.04961,-0.272851 0.0248,-0.421679 -0.0248,-0.173633 -0.09922,-0.272852 -0.272851,-0.223242 -0.967382,0.37207 -0.669727,0.570508 -1.562696,2.133204 -0.37207,0.644921 -0.595312,1.389062 -0.223242,0.719336 -0.322461,1.364258 -0.07441,0.644922 -0.02481,1.141015 0.04961,0.47129 0.198438,0.620118 0.272851,0.272851 0.620117,0.272851 0.347266,-0.0248 0.694531,-0.198437 0.37207,-0.198438 0.719336,-0.496094 0.37207,-0.297656 0.644922,-0.620117 0.297656,-0.322461 0.471289,-0.595313 0.198438,-0.272851 0.223242,-0.396875 z"
         style="font-family:Satisfy;-inkscape-font-specification:Satisfy"
         id="path1147" />
      <path
         d="m 83.435863,100.02458 q 0.768945,0 1.686719,-0.595309 0.942578,-0.620117 1.810742,-1.438672 0.892969,-0.818555 1.612305,-1.661914 0.74414,-0.868164 1.11621,-1.389062 0.223243,-0.322461 0.42168,-0.372071 0.198438,-0.07441 0.297656,0.04961 0.09922,0.124023 0.07441,0.396875 -0.0248,0.248047 -0.223242,0.570507 -0.173633,0.297657 -0.595312,0.868165 -0.396875,0.545703 -0.967383,1.215429 -0.545703,0.644922 -1.265039,1.339453 -0.694531,0.669727 -1.463477,1.240239 -0.768945,0.5457 -1.5875,0.89296 -0.818554,0.37207 -1.612304,0.37207 -1.091407,0 -1.835547,-0.42168 -0.719336,-0.39687 -1.16582,-1.04179 -0.42168,-0.644924 -0.595313,-1.413869 -0.173633,-0.79375 -0.173633,-1.562695 0,-0.768946 0.347266,-1.909961 0.347266,-1.141016 1.016992,-2.182813 0.694531,-1.066601 1.736328,-1.810742 1.041797,-0.768945 2.455664,-0.768945 0.79375,0 1.339453,0.545703 0.570508,0.545703 0.545703,1.488281 0,0.446485 -0.148828,0.892969 -0.148828,0.42168 -0.396875,0.768945 -0.248047,0.322461 -0.595312,0.520899 -0.322461,0.198437 -0.719336,0.198437 -0.322461,0 -0.496094,-0.223242 -0.148828,-0.248047 -0.198437,-0.545703 -0.02481,-0.322461 0,-0.620117 0.04961,-0.297657 0.09922,-0.396875 0.124024,-0.173633 0.272852,-0.248047 0.148828,-0.07441 0.347266,-0.173633 0.148828,-0.07441 0.223242,-0.223242 0.09922,-0.148828 0.09922,-0.322461 0,-0.173633 -0.09922,-0.297656 -0.09922,-0.124024 -0.322461,-0.124024 -0.223242,0 -0.818555,0.372071 -0.570508,0.347265 -1.190625,1.066601 -0.595312,0.694531 -1.066601,1.761133 -0.471289,1.066601 -0.496094,2.480469 -0.02481,0.818554 0.223242,1.339453 0.248047,0.520898 0.620117,0.818554 0.372071,0.297657 0.818555,0.42168 0.446484,0.12402 0.868164,0.12402 z"
         style="font-family:Satisfy;-inkscape-font-specification:Satisfy"
         id="path1149" />
      <path
         d="m 87.503836,100.74392 q -0.173632,0.27285 -0.37207,0.34726 -0.223242,0.0992 -0.37207,0.0248 -0.173633,-0.0496 -0.223242,-0.24805 -0.04961,-0.19843 0.09922,-0.49609 0.07441,-0.14883 0.347266,-0.669727 0.248047,-0.520899 0.620117,-1.240235 0.347266,-0.74414 0.768945,-1.5875 0.42168,-0.868164 0.79375,-1.637109 0.396875,-0.768945 0.719336,-1.364258 0.322461,-0.620117 0.471289,-0.892969 -0.272851,-0.248047 -0.37207,-0.347265 -0.09922,-0.124024 -0.148828,-0.496094 -0.04961,-0.322461 0.148828,-0.843359 0.198438,-0.520899 0.520899,-0.992188 0.32246,-0.496094 0.719335,-0.843359 0.396875,-0.347266 0.768946,-0.347266 0.694531,0 0.967383,0.446484 0.297656,0.446485 0.347265,0.917774 0.04961,0.322461 -0.04961,0.818555 -0.09922,0.496093 -0.372071,0.892968 0.07442,0.04961 0.198438,0.124024 0.124023,0.04961 0.396875,0.04961 0.396875,0 0.545703,-0.04961 0.173633,-0.04961 0.520899,-0.04961 0.421679,0 0.694531,0.223243 0.272851,0.198437 0.446484,0.520898 0.173633,0.297656 0.248047,0.669727 0.09922,0.347265 0.124023,0.644921 0.07441,0.620118 -0.322461,1.289844 -0.396875,0.669727 -0.967382,1.463477 -0.347266,0.496093 -0.694532,1.116211 -0.347265,0.620117 -0.297656,1.116211 0.04961,0.32246 0.173633,0.520898 0.124023,0.198434 0.694531,0.198434 0.42168,0 0.917774,-0.297653 0.520898,-0.322461 1.041797,-0.79375 0.545703,-0.496094 1.066601,-1.066601 0.520899,-0.595313 0.967383,-1.141016 0.446484,-0.570508 0.74414,-1.016992 0.322461,-0.446484 0.47129,-0.644922 0.124023,-0.198437 0.322458,-0.272852 0.19844,-0.07441 0.34727,0 0.14883,0.07441 0.17363,0.297657 0.0496,0.223242 -0.17363,0.595312 -0.14883,0.248047 -0.5209,0.79375 -0.347266,0.545703 -0.868164,1.21543 -0.496094,0.669726 -1.116211,1.389062 -0.620117,0.694532 -1.314649,1.289845 -0.669726,0.57051 -1.364258,0.94258 -0.669726,0.37207 -1.289843,0.37207 -0.644922,0 -1.066602,-0.24805 -0.421679,-0.24805 -0.694531,-0.59531 -0.248047,-0.37207 -0.37207,-0.79375 -0.09922,-0.446486 -0.07441,-0.818557 0.0248,-0.297656 0.148828,-0.620117 0.148828,-0.347265 0.322461,-0.694531 0.198437,-0.37207 0.396875,-0.719336 0.223242,-0.37207 0.396875,-0.719336 0.421679,-0.719336 0.669726,-1.215429 0.272852,-0.520899 0.272852,-0.868165 0,-0.223242 -0.09922,-0.396875 -0.09922,-0.173632 -0.322461,-0.173632 -0.148828,0 -0.223242,0.0248 -0.04961,0 -0.124024,0 -0.04961,0 -0.173632,0.02481 -0.09922,0 -0.322461,0 -0.322461,0 -0.545703,-0.09922 -0.223243,-0.09922 -0.42168,-0.148828 -0.09922,0.173633 -0.446484,0.744141 -0.347266,0.570508 -0.818555,1.339453 -0.446484,0.768945 -0.967383,1.612305 -0.496094,0.843359 -0.942578,1.5875 -0.446484,0.719335 -0.744141,1.240237 -0.322461,0.49609 -0.396875,0.59531 z"
         style="font-family:Satisfy;-inkscape-font-specification:Satisfy"
         id="path1151" />
      <path
         d="m 105.2888,91.739818 q 0.32246,-0.248047 0.62011,-0.37207 0.32246,-0.148828 0.57051,-0.198438 0.27285,-0.07441 0.5457,-0.04961 0.66973,0.04961 0.81856,0.421679 0.17363,0.372071 0.0496,1.190625 -0.0744,0.42168 -0.29766,1.066602 -0.22324,0.644922 -0.5209,1.5875 -0.29765,0.917773 -0.64492,2.108398 -0.32246,1.190625 -0.62012,2.678906 -0.29765,1.21543 -0.64492,2.80293 -0.29765,1.38906 -0.71933,3.34863 -0.39688,1.95957 -0.86817,4.48965 -0.12402,0.62012 -0.5457,0.71934 -0.39688,0.0992 -0.84336,-0.0992 -0.17363,-0.0992 -0.32246,-0.22324 -0.12402,-0.12403 -0.27285,-0.29766 -0.14883,-0.14883 -0.24805,-0.42168 0.57051,-2.08359 0.99219,-3.79512 0.44648,-1.71152 0.79375,-2.97656 0.37207,-1.46347 0.69453,-2.6293 0.12402,-0.52089 0.22324,-1.01699 0.12402,-0.520897 0.24805,-1.01699 -0.32246,0.520898 -0.69453,0.99219 -0.37207,0.47129 -0.81856,0.81855 -0.44648,0.34727 -0.96738,0.5209 -0.49609,0.19844 -1.0418,0.12402 -1.339451,-0.17363 -1.909958,-0.99218 -0.545703,-0.818558 -0.471289,-2.133207 0.0248,-0.520898 0.148828,-1.141016 0.124023,-0.620117 0.272851,-1.190624 0.148828,-0.570508 0.272852,-1.016993 0.148828,-0.471289 0.223242,-0.669726 0.297656,-0.942578 0.42168,-1.612305 0.148828,-0.669726 -0.198438,-1.116211 0.347266,-0.223242 0.644922,-0.297656 0.32246,-0.09922 0.57051,-0.148828 0.27285,-0.02481 0.5457,0 0.66973,0.09922 0.76895,0.496094 0.12402,0.396875 -0.0744,1.190625 -0.0992,0.421679 -0.32246,1.091406 -0.22324,0.644922 -0.47129,1.339453 -0.24804,0.694531 -0.44648,1.289844 -0.19844,0.570507 -0.22324,0.818554 -0.22325,1.116211 -0.0248,1.736328 0.19844,0.595313 0.86817,0.595313 0.32246,0 0.71933,-0.272852 0.39688,-0.297656 0.79375,-0.768945 0.42168,-0.471289 0.81856,-1.066602 0.39687,-0.620117 0.71933,-1.240234 0.34727,-0.620117 0.59531,-1.21543 0.27286,-0.595312 0.39688,-1.066601 0.17363,-0.917774 0.22324,-1.438672 0.0496,-0.520898 -0.34726,-0.942578 z"
         style="font-family:Satisfy;-inkscape-font-specification:Satisfy"
         id="path1153" />
      <path
         d="m 107.29797,111.45954 q -0.17363,-0.0744 -0.34726,-0.22324 -0.14883,-0.12402 -0.29766,-0.32246 -0.14883,-0.17363 -0.24804,-0.44648 0.69453,-2.6541 1.19062,-4.61368 0.47129,-1.95957 0.81855,-3.27421 0.37208,-1.53789 0.64493,-2.579691 0.24804,-0.992188 0.49609,-1.984375 0.19844,-0.868164 0.42168,-1.860352 0.24805,-0.992187 0.44648,-1.860351 0.24805,-0.967383 0.29766,-1.537891 0.0496,-0.595312 -0.37207,-1.016992 0.29766,-0.248047 0.59531,-0.37207 0.32246,-0.148828 0.57051,-0.198438 0.27285,-0.07441 0.5457,-0.04961 0.66973,0.04961 0.81856,0.421679 0.17363,0.372071 0.0496,1.190625 -0.0248,0.124024 -0.0496,0.223243 0,0.07441 0,0.173632 0.34726,-0.396875 0.76894,-0.768945 0.42168,-0.37207 0.84336,-0.669726 0.44649,-0.297657 0.89297,-0.471289 0.47129,-0.198438 0.89297,-0.198438 0.57051,0 0.91777,0.297656 0.37207,0.272852 0.57051,0.744141 0.19844,0.471289 0.24805,1.066601 0.0496,0.570508 0.0248,1.141016 -0.0248,0.620117 -0.22324,1.314648 -0.17363,0.694532 -0.49609,1.413868 -0.32246,0.719336 -0.74414,1.413867 -0.42168,0.694531 -0.89297,1.289844 0.0992,0.0248 0.12402,0.04961 0.0248,0 0.0248,0.02481 0,0 0.0248,0.0248 0.0496,0 0.17363,0 0.57051,0 1.16582,-0.297656 0.59532,-0.297656 1.16582,-0.744141 0.57051,-0.471289 1.09141,-1.016992 0.5457,-0.545703 0.96738,-1.041797 0.44649,-0.520898 0.74414,-0.917773 0.29766,-0.42168 0.44649,-0.595313 0.19844,-0.248046 0.37207,-0.32246 0.17363,-0.09922 0.27285,-0.0248 0.0992,0.07441 0.0992,0.297656 0,0.198438 -0.14883,0.520899 -0.0992,0.223242 -0.42168,0.719335 -0.32246,0.496094 -0.79375,1.116211 -0.47129,0.620118 -1.0914,1.289844 -0.59532,0.669727 -1.26504,1.21543 -0.66973,0.545705 -1.38907,0.892975 -0.69453,0.37207 -1.36425,0.37207 -0.32247,0 -0.5209,-0.0248 -0.19844,-0.0248 -0.34727,-0.0992 -0.12402,-0.0496 -0.24805,-0.12402 -0.12402,-0.0496 -0.29765,-0.12402 -0.44649,0.34726 -0.91777,0.5209 -0.47129,0.19843 -0.91778,0.19843 -0.42168,0 -0.74414,-0.14882 -0.29766,-0.12403 -0.49609,-0.37208 -0.19844,-0.22324 -0.32246,-0.49609 -0.12403,-0.29765 -0.19844,-0.57051 -0.0248,0.0992 -0.0496,0.17364 0,0.0744 -0.0248,0.19843 -0.29765,1.19063 -0.62011,2.75332 -0.27285,1.33946 -0.66973,3.24942 -0.37207,1.93476 -0.79375,4.39043 -0.14883,0.66972 -0.5209,0.76894 -0.39687,0.0992 -0.89297,-0.0992 z m 4.53926,-15.378902 q -0.12402,0.42168 -0.27285,0.992188 -0.12402,0.545703 -0.29766,1.314648 0.19844,-0.148828 0.44649,-0.223242 0.24805,-0.07441 0.49609,-0.07441 0.27285,0 0.69453,0.297656 0.42168,0.272852 1.017,0.595313 0.37207,-0.446485 0.76894,-0.992188 0.42168,-0.570508 0.74414,-1.16582 0.34727,-0.595313 0.57051,-1.21543 0.24805,-0.620117 0.27285,-1.190625 0.0496,-0.74414 -0.17363,-1.16582 -0.22324,-0.42168 -0.74414,-0.42168 -0.76895,0 -1.68672,0.917774 -0.89297,0.892968 -1.83555,2.33164 z"
         style="font-family:Satisfy;-inkscape-font-specification:Satisfy"
         id="path1155" />
      <path
         d="m 129.6966,94.592357 q 0.0992,-0.148828 0.24805,-0.173633 0.17363,-0.04961 0.27285,0.02481 0.0992,0.07441 0.0992,0.248047 0.0248,0.173633 -0.12402,0.471289 -0.4961,0.942578 -1.31465,2.033984 -0.79375,1.091406 -1.68672,2.058789 -0.89297,0.942587 -1.73633,1.562697 -0.84336,0.62012 -1.41387,0.62012 -0.81855,0 -1.36425,-0.32246 -0.54571,-0.32246 -0.86817,-0.79375 -0.29765,-0.471294 -0.42168,-1.016997 -0.12402,-0.570508 -0.0744,-1.041797 0.0248,-0.396875 0.17363,-1.413868 0.14883,-1.041796 0.39688,-2.381249 0.24804,-1.364258 0.5457,-2.902149 0.32246,-1.562695 0.66973,-3.001367 -0.42168,0.04961 -0.84336,0.09922 -0.42168,0.04961 -0.76895,0.04961 -0.79375,0 -1.48828,-0.173633 -0.71934,-0.198437 -1.0666,-0.37207 -0.19844,-0.09922 -0.17363,-0.272852 0.0248,-0.198437 0.14882,-0.37207 0.12403,-0.198437 0.32247,-0.322461 0.17363,-0.148828 0.32246,-0.148828 0.47129,0.04961 1.01699,0.09922 0.5457,0.02481 1.19062,0 0.47129,-0.02481 0.89297,-0.07441 0.44649,-0.04961 0.86817,-0.124024 0.32246,-1.190625 0.62011,-2.058789 0.32246,-0.892968 0.57051,-1.240234 0.0744,-0.124023 0.32246,-0.198438 0.27285,-0.09922 0.57051,-0.124023 0.29766,-0.04961 0.57051,0 0.27285,0.02481 0.39687,0.173633 0.12403,0.198437 0.0992,1.016992 -0.0248,0.818555 -0.27285,2.083594 1.0418,0 1.83555,0.124023 0.81855,0.09922 1.38906,0.248047 0.57051,0.124023 0.91777,0.272852 0.34727,0.124023 0.5209,0.173632 0.17363,0.04961 0.17363,0.248047 0.0248,0.198438 -0.0744,0.42168 -0.0744,0.198437 -0.27285,0.347266 -0.19844,0.148828 -0.44649,0.09922 -0.24804,-0.0248 -0.5705,-0.09922 -0.29766,-0.07441 -0.74414,-0.124024 -0.42168,-0.04961 -1.017,-0.09922 -0.59531,-0.04961 -1.38906,-0.04961 -0.14883,0 -0.34726,0.02481 -0.17364,0 -0.37207,0 -0.0992,0.396875 -0.19844,0.79375 -0.0744,0.37207 -0.22324,0.79375 -0.32247,0.992187 -0.74415,2.158007 -0.37207,1.016993 -0.89296,2.331641 -0.5209,1.314648 -1.16582,2.80293 -0.14883,1.066601 0.0248,1.637109 0.19844,0.545703 0.47129,0.79375 0.32246,0.272852 0.79375,0.297656 0.37207,0.04961 0.89297,-0.248047 0.5457,-0.322461 1.11621,-0.843359 0.57051,-0.520898 1.14101,-1.141016 0.59532,-0.620117 1.09141,-1.215429 0.49609,-0.595313 0.86817,-1.066602 0.37207,-0.496094 0.52089,-0.694531 z"
         style="font-family:Satisfy;-inkscape-font-specification:Satisfy"
         id="path1157" />
      <path
         d="m 135.55051,96.923998 q -0.24805,0.942578 -0.66973,1.761132 -0.42167,0.818555 -1.01699,1.41387 -0.57051,0.59531 -1.31465,0.91777 -0.71933,0.34727 -1.5875,0.34727 -1.01699,0 -1.6123,-0.44649 -0.57051,-0.42168 -0.86816,-1.066599 -0.27286,-0.644922 -0.32247,-1.413868 -0.0744,-0.768945 -0.0744,-1.438671 0,-0.471289 0.12402,-1.041797 0.0992,-0.570508 0.29766,-1.165821 0.19844,-0.595312 0.49609,-1.190625 0.32246,-0.595312 0.74414,-1.091406 0.14883,-0.421679 0.44649,-0.74414 0.32246,-0.322461 0.71933,-0.520899 0.42168,-0.223242 0.89297,-0.322461 0.47129,-0.124023 0.91778,-0.124023 0.0744,0 0.12402,0.02481 0.0744,0.0248 0.14883,0.04961 0.32246,0.0248 0.79375,0.248047 0.49609,0.223242 0.94258,0.669726 0.47129,0.446485 0.79375,1.141016 0.32246,0.669726 0.32246,1.637109 0,0.198438 -0.0248,0.496094 -0.0248,0.272852 -0.0496,0.471289 0.57051,-0.223242 1.19063,-0.545703 0.62012,-0.322461 1.19062,-0.669727 0.59532,-0.37207 1.09141,-0.74414 0.49609,-0.372071 0.79375,-0.669727 0.24805,-0.223242 0.42168,-0.248047 0.17363,-0.0248 0.24805,0.09922 0.0744,0.124024 0.0248,0.347266 -0.0496,0.223242 -0.27285,0.496093 -0.12402,0.148829 -0.64492,0.595313 -0.4961,0.446484 -1.19063,0.967383 -0.69453,0.520898 -1.51308,1.016992 -0.81856,0.496094 -1.5627,0.744141 z m -4.19199,-3.770313 q -0.0744,0.223242 -0.0744,0.471289 0,0.396875 0.0496,0.84336 0.0496,0.421679 0.24805,0.768945 0.19844,0.347265 0.62012,0.595312 0.44648,0.223243 1.21543,0.223243 0.12402,0 0.24805,0 0.12402,-0.02481 0.24804,-0.04961 0.0744,-0.322461 0.12403,-0.570508 0.0744,-0.272851 0.0744,-0.471289 0.0496,-0.471289 0,-0.967383 -0.0496,-0.496093 -0.19844,-0.892968 -0.12402,-0.42168 -0.34726,-0.669727 -0.19844,-0.272851 -0.4961,-0.272851 -0.47129,0 -0.91777,0.272851 -0.42168,0.248047 -0.79375,0.719336 z m -1.5875,4.365625 q 0,0.446484 0.0496,0.892969 0.0496,0.421679 0.19844,0.768945 0.14882,0.322461 0.39687,0.545703 0.24805,0.198438 0.64492,0.198438 0.44649,0 0.81856,-0.198438 0.37207,-0.223242 0.66972,-0.545703 0.29766,-0.347266 0.5209,-0.768945 0.24805,-0.446485 0.42168,-0.917774 -0.17363,0.02481 -0.34726,0.04961 -0.14883,0 -0.34727,0 -0.94258,0 -1.63711,-0.545703 -0.66972,-0.570508 -1.0418,-1.438672 -0.14882,0.520898 -0.24804,1.016992 -0.0992,0.496094 -0.0992,0.942578 z"
         style="font-family:Satisfy;-inkscape-font-specification:Satisfy"
         id="path1159" />
      <path
         d="m 149.54036,100.02458 q 0.76895,0 1.68672,-0.595309 0.94258,-0.620117 1.81074,-1.438672 0.89297,-0.818555 1.61231,-1.661914 0.74414,-0.868164 1.11621,-1.389062 0.22324,-0.322461 0.42168,-0.372071 0.19844,-0.07441 0.29766,0.04961 0.0992,0.124023 0.0744,0.396875 -0.0248,0.248047 -0.22324,0.570507 -0.17364,0.297657 -0.59532,0.868165 -0.39687,0.545703 -0.96738,1.215429 -0.5457,0.644922 -1.26504,1.339453 -0.69453,0.669727 -1.46347,1.240239 -0.76895,0.5457 -1.5875,0.89296 -0.81856,0.37207 -1.61231,0.37207 -1.0914,0 -1.83555,-0.42168 -0.71933,-0.39687 -1.16582,-1.04179 -0.42168,-0.644924 -0.59531,-1.413869 -0.17363,-0.79375 -0.17363,-1.562695 0,-0.768946 0.34726,-1.909961 0.34727,-1.141016 1.017,-2.182813 0.69453,-1.066601 1.73632,-1.810742 1.0418,-0.768945 2.45567,-0.768945 0.79375,0 1.33945,0.545703 0.57051,0.545703 0.54571,1.488281 0,0.446485 -0.14883,0.892969 -0.14883,0.42168 -0.39688,0.768945 -0.24804,0.322461 -0.59531,0.520899 -0.32246,0.198437 -0.71934,0.198437 -0.32246,0 -0.49609,-0.223242 -0.14883,-0.248047 -0.19844,-0.545703 -0.0248,-0.322461 0,-0.620117 0.0496,-0.297657 0.0992,-0.396875 0.12402,-0.173633 0.27285,-0.248047 0.14883,-0.07441 0.34727,-0.173633 0.14883,-0.07441 0.22324,-0.223242 0.0992,-0.148828 0.0992,-0.322461 0,-0.173633 -0.0992,-0.297656 -0.0992,-0.124024 -0.32246,-0.124024 -0.22324,0 -0.81856,0.372071 -0.5705,0.347265 -1.19062,1.066601 -0.59531,0.694531 -1.0666,1.761133 -0.47129,1.066601 -0.4961,2.480469 -0.0248,0.818554 0.22325,1.339453 0.24804,0.520898 0.62011,0.818554 0.37207,0.297657 0.81856,0.42168 0.44648,0.12402 0.86816,0.12402 z"
         style="fill:#b45309"
         id="path1161" />
      <path
         d="m 161.89309,96.923998 q -0.24804,0.942578 -0.66972,1.761132 -0.42168,0.818555 -1.01699,1.41387 -0.57051,0.59531 -1.31465,0.91777 -0.71934,0.34727 -1.5875,0.34727 -1.017,0 -1.61231,-0.44649 -0.57051,-0.42168 -0.86816,-1.066599 -0.27285,-0.644922 -0.32246,-1.413868 -0.0744,-0.768945 -0.0744,-1.438671 0,-0.471289 0.12403,-1.041797 0.0992,-0.570508 0.29765,-1.165821 0.19844,-0.595312 0.4961,-1.190625 0.32246,-0.595312 0.74414,-1.091406 0.14883,-0.421679 0.44648,-0.74414 0.32246,-0.322461 0.71934,-0.520899 0.42168,-0.223242 0.89297,-0.322461 0.47129,-0.124023 0.91777,-0.124023 0.0744,0 0.12402,0.02481 0.0744,0.0248 0.14883,0.04961 0.32246,0.0248 0.79375,0.248047 0.4961,0.223242 0.94258,0.669726 0.47129,0.446485 0.79375,1.141016 0.32246,0.669726 0.32246,1.637109 0,0.198438 -0.0248,0.496094 -0.0248,0.272852 -0.0496,0.471289 0.5705,-0.223242 1.19062,-0.545703 0.62012,-0.322461 1.19063,-0.669727 0.59531,-0.37207 1.0914,-0.74414 0.4961,-0.372071 0.79375,-0.669727 0.24805,-0.223242 0.42168,-0.248047 0.17363,-0.0248 0.24805,0.09922 0.0744,0.124024 0.0248,0.347266 -0.0496,0.223242 -0.27285,0.496093 -0.12402,0.148829 -0.64492,0.595313 -0.49609,0.446484 -1.19062,0.967383 -0.69454,0.520898 -1.51309,1.016992 -0.81856,0.496094 -1.5627,0.744141 z m -4.19199,-3.770313 q -0.0744,0.223242 -0.0744,0.471289 0,0.396875 0.0496,0.84336 0.0496,0.421679 0.24804,0.768945 0.19844,0.347265 0.62012,0.595312 0.44649,0.223243 1.21543,0.223243 0.12402,0 0.24805,0 0.12402,-0.02481 0.24804,-0.04961 0.0744,-0.322461 0.12403,-0.570508 0.0744,-0.272851 0.0744,-0.471289 0.0496,-0.471289 0,-0.967383 -0.0496,-0.496093 -0.19844,-0.892968 -0.12402,-0.42168 -0.34726,-0.669727 -0.19844,-0.272851 -0.49609,-0.272851 -0.47129,0 -0.91778,0.272851 -0.42168,0.248047 -0.79375,0.719336 z m -1.5875,4.365625 q 0,0.446484 0.0496,0.892969 0.0496,0.421679 0.19844,0.768945 0.14883,0.322461 0.39687,0.545703 0.24805,0.198438 0.64493,0.198438 0.44648,0 0.81855,-0.198438 0.37207,-0.223242 0.66973,-0.545703 0.29765,-0.347266 0.5209,-0.768945 0.24804,-0.446485 0.42168,-0.917774 -0.17364,0.02481 -0.34727,0.04961 -0.14883,0 -0.34727,0 -0.94257,0 -1.63711,-0.545703 -0.66972,-0.570508 -1.04179,-1.438672 -0.14883,0.520898 -0.24805,1.016992 -0.0992,0.496094 -0.0992,0.942578 z"
         style="fill:#b45309"
         id="path1163" />
      <path
         d="m 165.04329,98.288255 q -0.27285,-0.272851 -0.39687,-0.520898 -0.0992,-0.272852 -0.14883,-0.520899 -0.0496,-0.272851 0,-0.545703 0.0992,-0.347265 0.29766,-0.644921 0.17363,-0.272852 0.47128,-0.545704 0.29766,-0.297656 0.79375,-0.545703 0.32247,-0.79375 0.57051,-1.661914 0.27285,-0.892969 0.47129,-1.612304 0.22324,-0.84336 0.39688,-1.686719 0.62011,-2.108399 0.64492,-3.423047 0.0248,-1.339453 -0.0496,-1.761133 -0.0248,-0.173633 -0.0496,-0.347265 -0.0496,-0.148829 -0.0992,-0.322461 -0.0248,-0.198438 -0.0744,-0.372071 0.27285,-0.148828 0.47129,-0.248046 0.22324,-0.09922 0.37207,-0.148829 0.17363,-0.07441 0.32246,-0.09922 0.5705,-0.124024 1.0666,-0.124024 0.5209,-0.0248 0.57051,0.173633 0.0248,0.124023 0.0496,0.446484 0.0496,0.322461 0.0496,0.79375 0,0.471289 -0.0744,1.066602 -0.0744,0.570508 -0.27285,1.21543 -0.17363,0.570507 -0.47129,1.5875 -0.27285,0.868164 -0.71934,2.33164 -0.44648,1.438672 -1.16582,3.695899 0.74414,-0.248047 1.63711,-0.47129 0.89297,-0.223242 1.81075,-0.37207 0.94257,-0.148828 1.86035,-0.223242 0.94258,-0.07441 1.73633,-0.02481 0.14882,0 0.19843,0.148828 0.0744,0.124024 0,0.272852 -0.0496,0.148828 -0.27285,0.297656 -0.19844,0.124024 -0.59531,0.148828 -0.49609,0.04961 -1.09141,0.124024 -0.59531,0.04961 -1.24023,0.173633 -0.62012,0.09922 -1.24024,0.272851 -0.62011,0.148828 -1.16582,0.37207 -0.42168,0.148829 -0.84336,0.297657 -0.34726,0.124023 -0.74414,0.297656 -0.37207,0.148828 -0.62011,0.272852 l -0.57051,1.810742 q 1.43867,1.016992 2.20762,2.083593 0.79375,1.066598 1.14101,1.959568 0.42168,1.0418 0.47129,2.03398 0,1.09141 -0.32246,2.18282 -0.32246,1.11621 -0.86816,2.10839 -0.5209,1.017 -1.24024,1.88516 -0.69453,0.86817 -1.48828,1.48828 -0.76895,0.62012 -1.5875,0.94258 -0.79375,0.32246 -1.51309,0.24805 -0.52089,-0.0496 -0.86816,-0.34727 -0.34727,-0.27285 -0.5209,-0.71933 -0.17363,-0.42168 -0.19844,-0.96739 -0.0248,-0.5209 0.0992,-1.04179 0.0992,-0.5209 0.42168,-1.93477 0.27285,-1.19062 0.84336,-3.47266 0.57051,-2.25722 1.53789,-6.027532 z m 1.46348,1.165821 q -0.34727,1.240234 -0.62012,2.282034 -0.24804,1.04179 -0.42168,1.83554 -0.22324,0.91778 -0.34726,1.66192 -0.22325,0.94258 -0.47129,1.86035 -0.22324,0.91777 -0.34727,1.63711 -0.14883,0.74414 -0.12402,1.19062 0.0248,0.44649 0.32246,0.44649 0.71934,0.0496 1.48828,-0.57051 0.79375,-0.59531 1.43867,-1.53789 0.64492,-0.91777 1.0666,-2.00918 0.42168,-1.0666 0.42168,-1.98438 0,-1.01699 -0.32246,-2.00917 -0.22324,-0.5209 -0.5209,-1.017 -0.27285,-0.42168 -0.66972,-0.89297 -0.37207,-0.496089 -0.89297,-0.892964 z"
         style="fill:#b45309"
         id="path1165" />
      <path
         d="m 173.30324,98.288255 q -0.27285,-0.272851 -0.39687,-0.520898 -0.0992,-0.272852 -0.14883,-0.520899 -0.0496,-0.272851 0,-0.545703 0.0992,-0.347265 0.29765,-0.644921 0.17364,-0.272852 0.47129,-0.545704 0.29766,-0.297656 0.79375,-0.545703 0.32246,-0.79375 0.57051,-1.661914 0.27285,-0.892969 0.47129,-1.612304 0.22324,-0.84336 0.39688,-1.686719 0.62011,-2.108399 0.64492,-3.423047 0.0248,-1.339453 -0.0496,-1.761133 -0.0248,-0.173633 -0.0496,-0.347265 -0.0496,-0.148829 -0.0992,-0.322461 -0.0248,-0.198438 -0.0744,-0.372071 0.27285,-0.148828 0.47128,-0.248046 0.22325,-0.09922 0.37207,-0.148829 0.17364,-0.07441 0.32247,-0.09922 0.5705,-0.124024 1.0666,-0.124024 0.5209,-0.0248 0.57051,0.173633 0.0248,0.124023 0.0496,0.446484 0.0496,0.322461 0.0496,0.79375 0,0.471289 -0.0744,1.066602 -0.0744,0.570508 -0.27285,1.21543 -0.17363,0.570507 -0.47129,1.5875 -0.27285,0.868164 -0.71934,2.33164 -0.44648,1.438672 -1.16582,3.695899 0.74414,-0.248047 1.63711,-0.47129 0.89297,-0.223242 1.81074,-0.37207 0.94258,-0.148828 1.86036,-0.223242 0.94257,-0.07441 1.73632,-0.02481 0.14883,0 0.19844,0.148828 0.0744,0.124024 0,0.272852 -0.0496,0.148828 -0.27285,0.297656 -0.19844,0.124024 -0.59531,0.148828 -0.4961,0.04961 -1.09141,0.124024 -0.59531,0.04961 -1.24023,0.173633 -0.62012,0.09922 -1.24024,0.272851 -0.62011,0.148828 -1.16582,0.37207 -0.42168,0.148829 -0.84336,0.297657 -0.34726,0.124023 -0.74414,0.297656 -0.37207,0.148828 -0.62011,0.272852 l -0.57051,1.810742 q 1.43867,1.016992 2.20761,2.083593 0.79375,1.066598 1.14102,1.959568 0.42168,1.0418 0.47129,2.03398 0,1.09141 -0.32246,2.18282 -0.32246,1.11621 -0.86817,2.10839 -0.52089,1.017 -1.24023,1.88516 -0.69453,0.86817 -1.48828,1.48828 -0.76895,0.62012 -1.5875,0.94258 -0.79375,0.32246 -1.51309,0.24805 -0.5209,-0.0496 -0.86816,-0.34727 -0.34727,-0.27285 -0.5209,-0.71933 -0.17363,-0.42168 -0.19844,-0.96739 -0.0248,-0.5209 0.0992,-1.04179 0.0992,-0.5209 0.42168,-1.93477 0.27285,-1.19062 0.84336,-3.47266 0.57051,-2.25722 1.53789,-6.027532 z m 1.46348,1.165821 q -0.34727,1.240234 -0.62012,2.282034 -0.24805,1.04179 -0.42168,1.83554 -0.22324,0.91778 -0.34726,1.66192 -0.22325,0.94258 -0.47129,1.86035 -0.22325,0.91777 -0.34727,1.63711 -0.14883,0.74414 -0.12402,1.19062 0.0248,0.44649 0.32246,0.44649 0.71933,0.0496 1.48828,-0.57051 0.79375,-0.59531 1.43867,-1.53789 0.64492,-0.91777 1.0666,-2.00918 0.42168,-1.0666 0.42168,-1.98438 0,-1.01699 -0.32246,-2.00917 -0.22324,-0.5209 -0.5209,-1.017 -0.27285,-0.42168 -0.66972,-0.89297 -0.37207,-0.496089 -0.89297,-0.892964 z"
         style="fill:#b45309"
         id="path1167" />
      <path
         d="m 192.30363,95.708568 q -0.74414,1.091406 -1.68671,2.133203 -0.94258,1.016992 -2.00918,1.835547 -1.0418,0.793752 -2.15801,1.289842 -1.09141,0.4961 -2.1332,0.4961 -0.54571,0 -1.19063,-0.27286 -0.62012,-0.24804 -1.14102,-0.79375 -0.52089,-0.545699 -0.84335,-1.413863 -0.29766,-0.868164 -0.17364,-2.108399 0.0992,-1.016992 0.62012,-2.133203 0.5457,-1.141016 1.31465,-2.083594 0.79375,-0.942578 1.76113,-1.562695 0.99219,-0.620117 1.98438,-0.620117 0.94257,0 1.36425,0.471289 0.42168,0.471289 0.37207,1.16582 -0.0744,0.768946 -0.44648,1.413867 -0.34727,0.644922 -0.84336,1.165821 -0.49609,0.520898 -1.0666,0.942578 -0.5457,0.42168 -1.0418,0.768945 -0.5457,0.37207 -1.04179,0.719336 -0.4961,0.322461 -0.86817,0.595313 0.0248,0.620117 0.22324,1.041796 0.19844,0.42168 0.4961,0.694532 0.29765,0.248047 0.66972,0.37207 0.39688,0.09922 0.79375,0.09922 0.84336,0 1.76114,-0.520899 0.91777,-0.545703 1.78593,-1.289843 0.89297,-0.768946 1.63711,-1.5875 0.76895,-0.818555 1.26504,-1.413868 0.17364,-0.198437 0.34727,-0.223242 0.19844,-0.04961 0.29765,0.04961 0.12403,0.07441 0.12403,0.297656 0,0.198437 -0.17364,0.471288 z m -6.35,-3.819922 q -0.29765,0 -0.71933,0.297656 -0.39688,0.297657 -0.79375,0.868164 -0.39688,0.545703 -0.74414,1.364258 -0.34727,0.79375 -0.5209,1.835547 0.29766,-0.223242 0.64492,-0.446484 0.34727,-0.248047 0.69453,-0.520899 1.0666,-0.818554 1.48828,-1.438672 0.42168,-0.620117 0.47129,-1.066601 0.0496,-0.471289 -0.0992,-0.669727 -0.14882,-0.223242 -0.42168,-0.223242 z"
         style="fill:#b45309"
         id="path1169" />
      <path
         d="m 201.75423,95.708568 q -0.74414,1.091406 -1.68672,2.133203 -0.94258,1.016992 -2.00918,1.835547 -1.0418,0.793752 -2.15801,1.289842 -1.09141,0.4961 -2.1332,0.4961 -0.54571,0 -1.19063,-0.27286 -0.62011,-0.24804 -1.14101,-0.79375 -0.5209,-0.545699 -0.84336,-1.413863 -0.29766,-0.868164 -0.17364,-2.108399 0.0992,-1.016992 0.62012,-2.133203 0.54571,-1.141016 1.31465,-2.083594 0.79375,-0.942578 1.76113,-1.562695 0.99219,-0.620117 1.98438,-0.620117 0.94258,0 1.36426,0.471289 0.42168,0.471289 0.37207,1.16582 -0.0744,0.768946 -0.44649,1.413867 -0.34726,0.644922 -0.84336,1.165821 -0.49609,0.520898 -1.0666,0.942578 -0.5457,0.42168 -1.0418,0.768945 -0.5457,0.37207 -1.04179,0.719336 -0.4961,0.322461 -0.86817,0.595313 0.0248,0.620117 0.22325,1.041796 0.19843,0.42168 0.49609,0.694532 0.29766,0.248047 0.66973,0.37207 0.39687,0.09922 0.79375,0.09922 0.84336,0 1.76113,-0.520899 0.91777,-0.545703 1.78594,-1.289843 0.89296,-0.768946 1.63711,-1.5875 0.76894,-0.818555 1.26503,-1.413868 0.17364,-0.198437 0.34727,-0.223242 0.19844,-0.04961 0.29766,0.04961 0.12402,0.07441 0.12402,0.297656 0,0.198437 -0.17363,0.471288 z m -6.35,-3.819922 q -0.29766,0 -0.71934,0.297656 -0.39687,0.297657 -0.79375,0.868164 -0.39687,0.545703 -0.74414,1.364258 -0.34727,0.79375 -0.5209,1.835547 0.29766,-0.223242 0.64492,-0.446484 0.34727,-0.248047 0.69454,-0.520899 1.0666,-0.818554 1.48828,-1.438672 0.42168,-0.620117 0.47129,-1.066601 0.0496,-0.471289 -0.0992,-0.669727 -0.14883,-0.223242 -0.42168,-0.223242 z"
         style="fill:#b45309"
         id="path1171" />
    </g>
  </g>
</svg>
