<?xml version="1.0" encoding="UTF-8" standalone="no"?>
<!-- Created with Inkscape (http://www.inkscape.org/) -->

<svg
   width="187.7587mm"
   height="28.663887mm"
   viewBox="0 0 187.7587 28.663887"
   version="1.1"
   id="svg5"
   inkscape:version="1.2 (dc2aedaf03, 2022-05-15)"
   sodipodi:docname="assets.svg"
   xmlns:inkscape="http://www.inkscape.org/namespaces/inkscape"
   xmlns:sodipodi="http://sodipodi.sourceforge.net/DTD/sodipodi-0.dtd"
   xmlns="http://www.w3.org/2000/svg"
   xmlns:svg="http://www.w3.org/2000/svg">
  <sodipodi:namedview
     id="namedview7"
     pagecolor="#ffffff"
     bordercolor="#999999"
     borderopacity="1"
     inkscape:showpageshadow="0"
     inkscape:pageopacity="0"
     inkscape:pagecheckerboard="0"
     inkscape:deskcolor="#d1d1d1"
     inkscape:document-units="mm"
     showgrid="false"
     inkscape:zoom="0.75455247"
     inkscape:cx="264.39513"
     inkscape:cy="538.72993"
     inkscape:window-width="1920"
     inkscape:window-height="1018"
     inkscape:window-x="0"
     inkscape:window-y="30"
     inkscape:window-maximized="1"
     inkscape:current-layer="layer1" />
  <defs
     id="defs2" />
  <g
     inkscape:label="Layer 1"
     inkscape:groupmode="layer"
     id="layer1"
     transform="translate(-11.120635,-126.64685)">
    <g
       aria-label="buymeacrypto plant"
       id="text236-7"
       style="font-size:25.4px;line-height:1.25;stroke-width:0.52839"
       inkscape:label="plant">
      <path
         d="m 16.435925,130.37374 q -0.37207,1.48828 -0.84336,2.85254 -0.446484,1.33945 -0.942578,2.53007 -0.471289,1.16582 -0.967382,2.13321 -0.47129,0.96738 -0.84336,1.68672 -0.248047,1.78593 0,2.87734 0.248047,1.09141 0.967383,1.09141 0.595312,0 1.16582,-0.54571 0.570508,-0.5457 1.016992,-1.33945 0.446485,-0.79375 0.744141,-1.68672 0.322461,-0.91777 0.396875,-1.63711 -0.471289,-0.12402 -0.79375,-0.42168 -0.322461,-0.32246 -0.322461,-0.84336 0,-0.34726 0.198438,-0.64492 0.198437,-0.32246 0.471289,-0.5457 0.272851,-0.22324 0.595312,-0.34727 0.322461,-0.12402 0.595313,-0.12402 0.421679,0 0.719336,0.5457 0.297656,0.5209 0.396875,1.33945 0.992187,-0.0248 2.083593,-0.29765 1.091407,-0.27285 2.058789,-0.69453 0.272852,-0.12403 0.446485,-0.0744 0.173633,0.0496 0.223242,0.19844 0.07441,0.14883 0,0.34727 -0.07441,0.17363 -0.297656,0.27285 -0.570508,0.32246 -1.190625,0.59531 -0.595313,0.24805 -1.190625,0.42168 -0.595313,0.17363 -1.141016,0.27285 -0.545703,0.0992 -0.992187,0.0992 -0.09922,0.99219 -0.620118,2.15801 -0.520898,1.14101 -1.265039,2.1332 -0.74414,0.96738 -1.661914,1.61231 -0.892968,0.64492 -1.761132,0.64492 -0.272852,0 -0.719336,-0.0744 -0.446485,-0.0744 -0.868164,-0.52089 -0.42168,-0.44649 -0.719336,-1.41387 -0.297657,-0.99219 -0.248047,-2.80293 0.0248,-1.21543 0.272851,-2.57969 0.248047,-1.36426 0.595313,-2.72851 0.347265,-1.36426 0.768945,-2.6293 0.446484,-1.28985 0.843359,-2.30684 0.396875,-1.04179 0.719336,-1.73633 0.347266,-0.69453 0.520899,-0.89296 0.223242,-0.27286 0.520898,-0.39688 0.297657,-0.14883 0.570508,-0.19844 0.297656,-0.0744 0.545703,-0.0496 0.248047,0.0248 0.347266,0.0744 0.148828,0.0992 0.07441,1.0914 -0.04961,0.99219 -0.471289,2.55489 z"
         style="font-family:Satisfy;-inkscape-font-specification:Satisfy"
         id="path1174" />
      <path
         d="m 24.373425,144.9837 q -0.942578,0 -1.537891,-0.29766 -0.595312,-0.29765 -0.942578,-0.71933 -0.322461,-0.44649 -0.471289,-0.94258 -0.124023,-0.5209 -0.124023,-0.94258 0,-0.74414 0.124023,-1.5627 0.124024,-0.84336 0.297656,-1.53789 0.173633,-0.71933 0.297657,-1.21543 0.148828,-0.49609 0.198437,-0.62011 0.223242,-0.71934 0.570508,-1.24024 0.37207,-0.5457 1.016992,-0.74414 0.248047,-0.0496 0.520898,-0.0992 0.223243,-0.0248 0.446485,-0.0248 0.248047,0 0.446484,0.0744 -0.669726,1.71153 -1.066601,2.85254 -0.372071,1.14102 -0.570508,1.86035 -0.223242,0.81856 -0.272852,1.31465 -0.124023,1.11621 0.198438,1.68672 0.322461,0.57051 1.314648,0.57051 0.644922,0 1.240235,-0.47129 0.595312,-0.4961 1.091406,-1.26504 -0.07441,-0.39688 -0.07441,-0.81856 0,-0.79375 0.124023,-1.53789 0.148828,-0.76894 0.322461,-1.41386 0.198438,-0.66973 0.396875,-1.19063 0.223242,-0.5209 0.37207,-0.81855 0.272852,-0.59532 0.496094,-0.71934 0.223242,-0.14883 0.719336,-0.17363 0.198438,-0.0248 0.322461,0 0.148828,0 0.248047,0.0248 0.297656,0.0744 0.297656,0.29766 0,0.39687 -0.04961,1.19062 -0.04961,0.79375 -0.297656,1.63711 -0.173633,0.69454 -0.347266,1.19063 -0.148828,0.47129 -0.297656,0.81855 -0.148828,0.32246 -0.297657,0.54571 -0.148828,0.19843 -0.272851,0.37207 0.04961,0.74414 0.124023,1.19062 0.07441,0.44649 0.173633,0.69453 0.124024,0.22325 0.272852,0.32246 0.173632,0.0744 0.37207,0.0744 0.347266,0 0.818555,-0.32246 0.471289,-0.34727 0.967382,-0.84336 0.520899,-0.5209 1.016993,-1.11621 0.520898,-0.62012 0.942578,-1.16582 0.421679,-0.54571 0.719336,-0.94258 0.297656,-0.42168 0.37207,-0.5209 0.173633,-0.22324 0.322461,-0.27285 0.173633,-0.0496 0.272851,0.0496 0.09922,0.0744 0.09922,0.27285 0.02481,0.17363 -0.09922,0.39687 -0.496093,0.94258 -1.240234,2.00918 -0.719336,1.0418 -1.562695,1.93477 -0.818555,0.89297 -1.661914,1.48828 -0.84336,0.59531 -1.5875,0.59531 -0.669727,0 -1.066602,-0.44648 -0.37207,-0.47129 -0.644922,-1.33945 -0.570507,0.89296 -1.339453,1.38906 -0.768945,0.47129 -1.711523,0.47129 z"
         style="font-family:Satisfy;-inkscape-font-specification:Satisfy"
         id="path1176" />
      <path
         d="m 39.727526,135.4587 q 0.322461,-0.24805 0.620118,-0.37207 0.32246,-0.14883 0.570507,-0.19844 0.272852,-0.0744 0.545703,-0.0496 0.669727,0.0496 0.818555,0.42168 0.173633,0.37207 0.04961,1.19063 -0.07442,0.42167 -0.297657,1.0666 -0.223242,0.64492 -0.520898,1.5875 -0.297656,0.91777 -0.644922,2.1084 -0.322461,1.19062 -0.620117,2.6789 -0.297656,1.21543 -0.644922,2.80293 -0.297656,1.38906 -0.719336,3.34863 -0.396875,1.95957 -0.868164,4.48965 -0.124023,0.62012 -0.545703,0.71934 -0.396875,0.0992 -0.84336,-0.0992 -0.173632,-0.0992 -0.32246,-0.22324 -0.124024,-0.12403 -0.272852,-0.29766 -0.148828,-0.14883 -0.248047,-0.42168 0.570508,-2.08359 0.992188,-3.79512 0.446484,-1.71152 0.79375,-2.97656 0.37207,-1.46348 0.694531,-2.6293 0.124023,-0.52089 0.223242,-1.01699 0.124023,-0.5209 0.248047,-1.01699 -0.322461,0.5209 -0.694531,0.99219 -0.372071,0.47129 -0.818555,0.81855 -0.446484,0.34727 -0.967383,0.5209 -0.496094,0.19844 -1.041797,0.12402 -1.339453,-0.17363 -1.909961,-0.99218 -0.545703,-0.81856 -0.471289,-2.13321 0.02481,-0.52089 0.148828,-1.14101 0.124024,-0.62012 0.272852,-1.19063 0.148828,-0.5705 0.272852,-1.01699 0.148828,-0.47129 0.223242,-0.66973 0.297656,-0.94257 0.421679,-1.6123 0.148829,-0.66973 -0.198437,-1.11621 0.347266,-0.22324 0.644922,-0.29766 0.322461,-0.0992 0.570508,-0.14883 0.272851,-0.0248 0.545703,0 0.669726,0.0992 0.768945,0.4961 0.124023,0.39687 -0.07441,1.19062 -0.09922,0.42168 -0.322461,1.09141 -0.223242,0.64492 -0.471289,1.33945 -0.248047,0.69453 -0.446484,1.28985 -0.198438,0.5705 -0.223243,0.81855 -0.223242,1.11621 -0.0248,1.73633 0.198437,0.59531 0.868164,0.59531 0.322461,0 0.719336,-0.27285 0.396875,-0.29766 0.79375,-0.76895 0.421679,-0.47128 0.818554,-1.0666 0.396875,-0.62011 0.719336,-1.24023 0.347266,-0.62012 0.595313,-1.21543 0.272851,-0.59531 0.396875,-1.0666 0.173633,-0.91778 0.223242,-1.43867 0.04961,-0.5209 -0.347266,-0.94258 z"
         style="font-family:Satisfy;-inkscape-font-specification:Satisfy"
         id="path1178" />
      <path
         d="m 55.081626,143.44581 q 0,-0.5209 0.09922,-1.19063 0.124024,-0.66972 0.297656,-1.36426 0.173633,-0.71933 0.347266,-1.38906 0.173633,-0.66972 0.297656,-1.19062 0.148828,-0.64493 -0.0248,-0.99219 -0.173633,-0.34727 -0.595313,-0.34727 -0.198437,0 -0.79375,0.34727 -0.570508,0.34726 -1.265039,1.21543 -0.669727,0.84336 -1.339453,2.30683 -0.644922,1.43868 -1.016992,3.6711 -0.471289,0.24805 -0.892969,0.32246 -0.223242,0.0496 -0.396875,0.0744 -0.496094,0.0248 -0.644922,-0.17363 -0.148828,-0.17363 0.04961,-0.89297 0.09922,-0.34726 0.347266,-1.11621 0.272852,-0.76894 0.520899,-1.66191 0.248046,-0.91778 0.421679,-1.81075 0.198438,-0.91777 0.198438,-1.5875 0,-0.47128 -0.173633,-0.64492 -0.148828,-0.17363 -0.446484,-0.17363 -0.223243,0 -0.744141,0.24805 -0.520899,0.24804 -1.16582,0.96738 -0.644922,0.71934 -1.289844,2.00918 -0.620117,1.26504 -1.066602,3.29902 v -0.0496 q -0.04961,0.19844 -0.09922,0.39688 -0.04961,0.17363 -0.07441,0.37207 -0.02481,0.19844 -0.07442,0.37207 l -1.240234,0.5457 q -0.124023,0.0496 -0.322461,0.0744 -0.173633,0.0248 -0.347265,-0.0744 -0.148829,-0.0744 -0.223243,-0.34726 -0.07441,-0.27285 0.04961,-0.81856 l 1.562695,-6.47402 q 0.07441,-0.32246 0.124023,-0.62012 0.04961,-0.27285 0.04961,-0.5209 0.02481,-0.27285 -0.02481,-0.44648 0.42168,-0.19844 0.744141,-0.29766 0.322461,-0.0992 0.520898,-0.14883 0.248047,-0.0744 0.42168,-0.0744 0.79375,0 0.520898,1.36426 -0.09922,0.39687 -0.297656,1.16582 0.471289,-0.59531 0.992188,-1.11621 0.545703,-0.54571 1.091406,-0.96739 0.545703,-0.42168 1.091406,-0.66972 0.570508,-0.24805 1.116211,-0.24805 0.42168,0 0.694531,0.24805 0.297656,0.24804 0.446485,0.66972 0.173632,0.39688 0.198437,0.96739 0.02481,0.5457 -0.04961,1.14101 0.396875,-0.5209 0.868164,-1.04179 0.496093,-0.54571 1.016992,-0.96739 0.545703,-0.42168 1.116211,-0.69453 0.570508,-0.27285 1.141015,-0.27285 0.669727,0 1.016993,0.39688 0.37207,0.39687 0.496093,1.01699 0.148828,0.62011 0.07441,1.33945 -0.04961,0.71934 -0.198437,1.38906 l -0.843359,3.34864 q -0.272852,1.24023 0.520898,1.24023 0.620117,0 1.364258,-0.59531 0.74414,-0.59531 1.438672,-1.41387 0.719336,-0.81855 1.339453,-1.68672 0.620117,-0.86816 1.041797,-1.38906 0.148828,-0.17363 0.297656,-0.19844 0.173633,-0.0248 0.272851,0.0744 0.124024,0.0744 0.124024,0.27285 0.02481,0.19844 -0.124024,0.49609 -0.496093,0.86817 -1.215429,1.93477 -0.719336,1.04179 -1.5875,1.95957 -0.84336,0.91777 -1.810742,1.53789 -0.967383,0.62012 -2.00918,0.62012 -0.347266,0 -0.694531,-0.0744 -0.322461,-0.0744 -0.620117,-0.27285 -0.272852,-0.19844 -0.446485,-0.5209 -0.173633,-0.34726 -0.173633,-0.86816 z"
         style="font-family:Satisfy;-inkscape-font-specification:Satisfy"
         id="path1180" />
      <path
         d="m 72.990611,139.42745 q -0.744141,1.0914 -1.686719,2.1332 -0.942578,1.01699 -2.00918,1.83555 -1.041797,0.79375 -2.158007,1.28984 -1.091407,0.4961 -2.133204,0.4961 -0.545703,0 -1.190625,-0.27286 -0.620117,-0.24804 -1.141015,-0.79375 -0.520899,-0.5457 -0.843359,-1.41386 -0.297657,-0.86817 -0.173633,-2.1084 0.09922,-1.01699 0.620117,-2.13321 0.545703,-1.14101 1.314648,-2.08359 0.79375,-0.94258 1.761133,-1.56269 0.992188,-0.62012 1.984375,-0.62012 0.942578,0 1.364258,0.47129 0.42168,0.47129 0.37207,1.16582 -0.07441,0.76894 -0.446484,1.41387 -0.347266,0.64492 -0.84336,1.16582 -0.496093,0.52089 -1.066601,0.94257 -0.545703,0.42168 -1.041797,0.76895 -0.545703,0.37207 -1.041797,0.71933 -0.496094,0.32247 -0.868164,0.59532 0.02481,0.62011 0.223242,1.04179 0.198438,0.42168 0.496094,0.69454 0.297656,0.24804 0.669727,0.37207 0.396875,0.0992 0.79375,0.0992 0.843359,0 1.761132,-0.52089 0.917774,-0.54571 1.785938,-1.28985 0.892969,-0.76894 1.637109,-1.5875 0.768945,-0.81855 1.265039,-1.41386 0.173633,-0.19844 0.347266,-0.22325 0.198437,-0.0496 0.297656,0.0496 0.124024,0.0744 0.124024,0.29766 0,0.19844 -0.173633,0.47129 z m -6.35,-3.81992 q -0.297656,0 -0.719336,0.29765 -0.396875,0.29766 -0.79375,0.86817 -0.396875,0.5457 -0.744141,1.36425 -0.347265,0.79375 -0.520898,1.83555 0.297656,-0.22324 0.644922,-0.44648 0.347265,-0.24805 0.694531,-0.5209 1.066602,-0.81856 1.488281,-1.43867 0.42168,-0.62012 0.471289,-1.06661 0.04961,-0.47128 -0.09922,-0.66972 -0.148828,-0.22324 -0.421679,-0.22324 z"
         style="font-family:Satisfy;-inkscape-font-specification:Satisfy"
         id="path1182" />
      <path
         d="m 83.929476,139.65069 q -0.347265,0.49609 -0.892968,1.24023 -0.545703,0.71934 -1.141016,1.46348 -0.570508,0.71934 -1.141016,1.33945 -0.545703,0.59532 -0.917773,0.84336 -0.248047,0.14883 -0.570508,0.24805 -0.322461,0.0992 -0.669726,0.12402 -0.322461,0.0248 -0.620118,-0.0496 -0.297656,-0.0496 -0.520898,-0.19843 -0.223242,-0.17364 -0.37207,-0.4961 -0.124024,-0.27285 -0.248047,-0.71933 -0.09922,-0.44649 -0.07441,-1.11621 -0.595313,0.99218 -1.314649,1.53789 -0.719336,0.5209 -1.364257,0.76894 -0.744141,0.27285 -1.488282,0.32246 -0.347265,0 -0.74414,-0.24804 -0.396875,-0.22325 -0.669727,-0.71934 -0.272851,-0.5209 -0.347265,-1.31465 -0.07441,-0.81855 0.198437,-1.93476 0.347266,-1.51309 1.091406,-2.75332 0.768946,-1.24024 1.661914,-2.1084 0.892969,-0.89297 1.761133,-1.33946 0.868164,-0.44648 1.438672,-0.39687 0.669727,0.12402 1.091406,0.39687 0.347266,0.24805 0.446485,0.74414 0.124023,0.47129 -0.396875,1.26504 0.347265,-0.0744 0.570507,-0.0992 0.248047,-0.0248 0.372071,-0.0248 0.148828,0 0.198437,0.0248 0.02481,0.0496 0.02481,0.22324 0,0.14883 -0.07441,0.57051 -0.07441,0.42167 -0.223242,1.14101 -0.148829,0.71934 -0.396875,1.86035 -0.04961,0.22324 -0.09922,0.42168 -0.02481,0.17363 -0.07441,0.37207 -0.02481,0.17364 -0.07441,0.42168 -0.04961,0.24805 -0.124024,0.62012 -0.0248,0.22324 -0.0248,0.49609 0.0248,0.24805 0.09922,0.47129 0.07441,0.22324 0.223243,0.37207 0.173632,0.12403 0.471289,0.12403 0.248046,0 0.644921,-0.29766 0.396875,-0.32246 0.84336,-0.79375 0.446484,-0.49609 0.917773,-1.0666 0.496094,-0.59531 0.917774,-1.14102 0.421679,-0.5457 0.74414,-0.96738 0.347266,-0.42168 0.496094,-0.62012 0.198438,-0.22324 0.396875,-0.24804 0.198438,-0.0496 0.297656,0.0992 0.09922,0.14883 0.02481,0.44649 -0.04961,0.29765 -0.347266,0.69453 z m -7.267773,1.09141 q 0.124023,-0.4961 0.297656,-1.16582 0.173633,-0.66973 0.297657,-1.28985 0.124023,-0.62012 0.173632,-1.01699 0.07441,-0.42168 -0.0248,-0.39688 -0.124024,0.0248 -0.272852,0.0744 -0.124023,0.0496 -0.322461,0.0744 -0.198437,0.0248 -0.396875,0.0744 0.198438,-0.39688 0.223242,-0.64492 0.04961,-0.27286 0.02481,-0.42168 -0.02481,-0.17364 -0.09922,-0.27286 -0.272851,-0.22324 -0.967383,0.37207 -0.669726,0.57051 -1.562695,2.13321 -0.37207,0.64492 -0.595312,1.38906 -0.223242,0.71934 -0.322461,1.36426 -0.07441,0.64492 -0.02481,1.14101 0.04961,0.47129 0.198438,0.62012 0.272851,0.27285 0.620117,0.27285 0.347265,-0.0248 0.694531,-0.19844 0.37207,-0.19843 0.719336,-0.49609 0.37207,-0.29766 0.644922,-0.62012 0.297656,-0.32246 0.471289,-0.59531 0.198437,-0.27285 0.223242,-0.39687 z"
         style="font-family:Satisfy;-inkscape-font-specification:Satisfy"
         id="path1184" />
      <path
         d="m 86.484358,143.74346 q 0.768945,0 1.686718,-0.59531 0.942579,-0.62012 1.810743,-1.43867 0.892968,-0.81856 1.612304,-1.66192 0.744141,-0.86816 1.116211,-1.38906 0.223242,-0.32246 0.42168,-0.37207 0.198437,-0.0744 0.297656,0.0496 0.09922,0.12402 0.07441,0.39688 -0.0248,0.24804 -0.223242,0.5705 -0.173633,0.29766 -0.595312,0.86817 -0.396875,0.5457 -0.967383,1.21543 -0.545703,0.64492 -1.265039,1.33945 -0.694532,0.66973 -1.463477,1.24024 -0.768945,0.5457 -1.5875,0.89296 -0.818554,0.37207 -1.612304,0.37207 -1.091407,0 -1.835547,-0.42168 -0.719336,-0.39687 -1.165821,-1.04179 -0.421679,-0.64492 -0.595312,-1.41387 -0.173633,-0.79375 -0.173633,-1.56269 0,-0.76895 0.347266,-1.90997 0.347265,-1.14101 1.016992,-2.18281 0.694531,-1.0666 1.736328,-1.81074 1.041797,-0.76895 2.455664,-0.76895 0.79375,0 1.339453,0.54571 0.570508,0.5457 0.545703,1.48828 0,0.44648 -0.148828,0.89297 -0.148828,0.42168 -0.396875,0.76894 -0.248047,0.32246 -0.595312,0.5209 -0.322461,0.19844 -0.719336,0.19844 -0.322461,0 -0.496094,-0.22324 -0.148828,-0.24805 -0.198438,-0.54571 -0.0248,-0.32246 0,-0.62011 0.04961,-0.29766 0.09922,-0.39688 0.124024,-0.17363 0.272852,-0.24805 0.148828,-0.0744 0.347265,-0.17363 0.148829,-0.0744 0.223243,-0.22324 0.09922,-0.14883 0.09922,-0.32246 0,-0.17363 -0.09922,-0.29766 -0.09922,-0.12402 -0.322461,-0.12402 -0.223243,0 -0.818555,0.37207 -0.570508,0.34726 -1.190625,1.0666 -0.595313,0.69453 -1.066602,1.76113 -0.471289,1.06661 -0.496093,2.48047 -0.02481,0.81856 0.223242,1.33946 0.248047,0.52089 0.620117,0.81855 0.37207,0.29766 0.818555,0.42168 0.446484,0.12402 0.868164,0.12402 z"
         style="font-family:Satisfy;-inkscape-font-specification:Satisfy"
         id="path1186" />
      <path
         d="m 90.552331,144.4628 q -0.173633,0.27285 -0.37207,0.34726 -0.223242,0.0992 -0.37207,0.0248 -0.173633,-0.0496 -0.223243,-0.24805 -0.04961,-0.19843 0.09922,-0.49609 0.07441,-0.14883 0.347266,-0.66973 0.248047,-0.5209 0.620117,-1.24023 0.347266,-0.74414 0.768945,-1.5875 0.42168,-0.86817 0.79375,-1.63711 0.396875,-0.76895 0.719336,-1.36426 0.322461,-0.62012 0.471289,-0.89297 -0.272851,-0.24804 -0.37207,-0.34726 -0.09922,-0.12403 -0.148828,-0.4961 -0.04961,-0.32246 0.148828,-0.84336 0.198437,-0.5209 0.520898,-0.99218 0.322461,-0.4961 0.719336,-0.84336 0.396875,-0.34727 0.768946,-0.34727 0.694531,0 0.967382,0.44649 0.297657,0.44648 0.347266,0.91777 0.04961,0.32246 -0.04961,0.81855 -0.09922,0.4961 -0.372071,0.89297 0.07441,0.0496 0.198438,0.12403 0.124023,0.0496 0.396875,0.0496 0.396875,0 0.545703,-0.0496 0.173633,-0.0496 0.520898,-0.0496 0.42168,0 0.694532,0.22324 0.272851,0.19844 0.446484,0.5209 0.173633,0.29765 0.248047,0.66972 0.09922,0.34727 0.124023,0.64493 0.07441,0.62011 -0.322461,1.28984 -0.396875,0.66973 -0.967382,1.46348 -0.347266,0.49609 -0.694532,1.11621 -0.347265,0.62011 -0.297656,1.11621 0.04961,0.32246 0.173633,0.5209 0.124023,0.19843 0.694531,0.19843 0.42168,0 0.917773,-0.29765 0.520899,-0.32246 1.041797,-0.79375 0.545699,-0.4961 1.066599,-1.0666 0.5209,-0.59532 0.96739,-1.14102 0.44648,-0.57051 0.74414,-1.01699 0.32246,-0.44649 0.47129,-0.64492 0.12402,-0.19844 0.32246,-0.27286 0.19843,-0.0744 0.34726,0 0.14883,0.0744 0.17363,0.29766 0.0496,0.22324 -0.17363,0.59531 -0.14883,0.24805 -0.5209,0.79375 -0.34726,0.54571 -0.86816,1.21543 -0.49609,0.66973 -1.11621,1.38907 -0.62012,0.69453 -1.31465,1.28984 -0.669726,0.57051 -1.364258,0.94258 -0.669726,0.37207 -1.289843,0.37207 -0.644922,0 -1.066602,-0.24805 -0.42168,-0.24805 -0.694531,-0.59531 -0.248047,-0.37207 -0.372071,-0.79375 -0.09922,-0.44649 -0.07441,-0.81856 0.02481,-0.29765 0.148829,-0.62011 0.148828,-0.34727 0.32246,-0.69454 0.198438,-0.37207 0.396875,-0.71933 0.223243,-0.37207 0.396875,-0.71934 0.42168,-0.71933 0.669727,-1.21543 0.272852,-0.5209 0.272852,-0.86816 0,-0.22324 -0.09922,-0.39688 -0.09922,-0.17363 -0.322461,-0.17363 -0.148828,0 -0.223242,0.0248 -0.04961,0 -0.124024,0 -0.04961,0 -0.173633,0.0248 -0.09922,0 -0.32246,0 -0.322461,0 -0.545704,-0.0992 -0.223242,-0.0992 -0.421679,-0.14883 -0.09922,0.17364 -0.446485,0.74414 -0.347265,0.57051 -0.818554,1.33946 -0.446485,0.76894 -0.967383,1.6123 -0.496094,0.84336 -0.942578,1.5875 -0.446485,0.71934 -0.744141,1.24024 -0.322461,0.49609 -0.396875,0.59531 z"
         style="font-family:Satisfy;-inkscape-font-specification:Satisfy"
         id="path1188" />
      <path
         d="m 108.33729,135.4587 q 0.32246,-0.24805 0.62012,-0.37207 0.32246,-0.14883 0.57051,-0.19844 0.27285,-0.0744 0.5457,-0.0496 0.66973,0.0496 0.81855,0.42168 0.17364,0.37207 0.0496,1.19063 -0.0744,0.42167 -0.29765,1.0666 -0.22325,0.64492 -0.5209,1.5875 -0.29766,0.91777 -0.64492,2.1084 -0.32246,1.19062 -0.62012,2.6789 -0.29766,1.21543 -0.64492,2.80293 -0.29766,1.38906 -0.71934,3.34863 -0.39687,1.95957 -0.86816,4.48965 -0.12403,0.62012 -0.54571,0.71934 -0.39687,0.0992 -0.84336,-0.0992 -0.17363,-0.0992 -0.32246,-0.22324 -0.12402,-0.12403 -0.27285,-0.29766 -0.14883,-0.14883 -0.24804,-0.42168 0.5705,-2.08359 0.99218,-3.79512 0.44649,-1.71152 0.79375,-2.97656 0.37207,-1.46348 0.69453,-2.6293 0.12403,-0.52089 0.22325,-1.01699 0.12402,-0.5209 0.24804,-1.01699 -0.32246,0.5209 -0.69453,0.99219 -0.37207,0.47129 -0.81855,0.81855 -0.44649,0.34727 -0.96739,0.5209 -0.49609,0.19844 -1.04179,0.12402 -1.33946,-0.17363 -1.90996,-0.99218 -0.54571,-0.81856 -0.47129,-2.13321 0.0248,-0.52089 0.14883,-1.14101 0.12402,-0.62012 0.27285,-1.19063 0.14883,-0.5705 0.27285,-1.01699 0.14883,-0.47129 0.22324,-0.66973 0.29766,-0.94257 0.42168,-1.6123 0.14883,-0.66973 -0.19844,-1.11621 0.34727,-0.22324 0.64492,-0.29766 0.32247,-0.0992 0.57051,-0.14883 0.27285,-0.0248 0.54571,0 0.66972,0.0992 0.76894,0.4961 0.12402,0.39687 -0.0744,1.19062 -0.0992,0.42168 -0.32246,1.09141 -0.22325,0.64492 -0.47129,1.33945 -0.24805,0.69453 -0.44649,1.28985 -0.19843,0.5705 -0.22324,0.81855 -0.22324,1.11621 -0.0248,1.73633 0.19843,0.59531 0.86816,0.59531 0.32246,0 0.71934,-0.27285 0.39687,-0.29766 0.79375,-0.76895 0.42168,-0.47128 0.81855,-1.0666 0.39688,-0.62011 0.71934,-1.24023 0.34726,-0.62012 0.59531,-1.21543 0.27285,-0.59531 0.39687,-1.0666 0.17364,-0.91778 0.22325,-1.43867 0.0496,-0.5209 -0.34727,-0.94258 z"
         style="font-family:Satisfy;-inkscape-font-specification:Satisfy"
         id="path1190" />
      <path
         d="m 110.34647,155.17842 q -0.17363,-0.0744 -0.34727,-0.22324 -0.14882,-0.12402 -0.29765,-0.32246 -0.14883,-0.17363 -0.24805,-0.44648 0.69453,-2.65411 1.19063,-4.61368 0.47128,-1.95957 0.81855,-3.27421 0.37207,-1.53789 0.64492,-2.57969 0.24805,-0.99219 0.4961,-1.98438 0.19843,-0.86816 0.42167,-1.86035 0.24805,-0.99219 0.44649,-1.86035 0.24805,-0.96738 0.29766,-1.53789 0.0496,-0.59531 -0.37207,-1.01699 0.29765,-0.24805 0.59531,-0.37207 0.32246,-0.14883 0.57051,-0.19844 0.27285,-0.0744 0.5457,-0.0496 0.66973,0.0496 0.81855,0.42168 0.17364,0.37207 0.0496,1.19063 -0.0248,0.12402 -0.0496,0.22324 0,0.0744 0,0.17363 0.34727,-0.39687 0.76895,-0.76895 0.42168,-0.37207 0.84336,-0.66972 0.44648,-0.29766 0.89297,-0.47129 0.47129,-0.19844 0.89297,-0.19844 0.5705,0 0.91777,0.29766 0.37207,0.27285 0.57051,0.74414 0.19843,0.47129 0.24804,1.0666 0.0496,0.57051 0.0248,1.14102 -0.0248,0.62011 -0.22324,1.31464 -0.17364,0.69454 -0.4961,1.41387 -0.32246,0.71934 -0.74414,1.41387 -0.42168,0.69453 -0.89297,1.28984 0.0992,0.0248 0.12403,0.0496 0.0248,0 0.0248,0.0248 0,0 0.0248,0.0248 0.0496,0 0.17363,0 0.57051,0 1.16582,-0.29766 0.59531,-0.29765 1.16582,-0.74414 0.57051,-0.47128 1.09141,-1.01699 0.5457,-0.5457 0.96738,-1.04179 0.44648,-0.5209 0.74414,-0.91778 0.29766,-0.42168 0.44648,-0.59531 0.19844,-0.24805 0.37207,-0.32246 0.17364,-0.0992 0.27286,-0.0248 0.0992,0.0744 0.0992,0.29766 0,0.19844 -0.14882,0.5209 -0.0992,0.22324 -0.42168,0.71933 -0.32246,0.4961 -0.79375,1.11622 -0.47129,0.62011 -1.09141,1.28984 -0.59531,0.66973 -1.26504,1.21543 -0.66973,0.5457 -1.38906,0.89297 -0.69453,0.37207 -1.36426,0.37207 -0.32246,0 -0.5209,-0.0248 -0.19844,-0.0248 -0.34726,-0.0992 -0.12403,-0.0496 -0.24805,-0.12402 -0.12402,-0.0496 -0.29766,-0.12402 -0.44648,0.34726 -0.91777,0.5209 -0.47129,0.19843 -0.91777,0.19843 -0.42168,0 -0.74414,-0.14882 -0.29766,-0.12403 -0.4961,-0.37208 -0.19844,-0.22324 -0.32246,-0.49609 -0.12402,-0.29766 -0.19844,-0.57051 -0.0248,0.0992 -0.0496,0.17364 0,0.0744 -0.0248,0.19843 -0.29766,1.19063 -0.62012,2.75332 -0.27285,1.33946 -0.66972,3.24942 -0.37207,1.93476 -0.79375,4.39043 -0.14883,0.66972 -0.5209,0.76894 -0.39688,0.0992 -0.89297,-0.0992 z m 4.53926,-15.3789 q -0.12403,0.42168 -0.27286,0.99219 -0.12402,0.5457 -0.29765,1.31464 0.19844,-0.14882 0.44648,-0.22324 0.24805,-0.0744 0.4961,-0.0744 0.27285,0 0.69453,0.29765 0.42168,0.27286 1.01699,0.59532 0.37207,-0.44649 0.76895,-0.99219 0.42168,-0.57051 0.74414,-1.16582 0.34726,-0.59531 0.5705,-1.21543 0.24805,-0.62012 0.27286,-1.19063 0.0496,-0.74414 -0.17364,-1.16582 -0.22324,-0.42168 -0.74414,-0.42168 -0.76894,0 -1.68672,0.91778 -0.89297,0.89297 -1.83554,2.33164 z"
         style="font-family:Satisfy;-inkscape-font-specification:Satisfy"
         id="path1192" />
      <path
         d="m 132.7451,138.31124 q 0.0992,-0.14883 0.24805,-0.17364 0.17363,-0.0496 0.27285,0.0248 0.0992,0.0744 0.0992,0.24805 0.0248,0.17363 -0.12403,0.47128 -0.49609,0.94258 -1.31465,2.03399 -0.79375,1.09141 -1.68672,2.05879 -0.89296,0.94258 -1.73632,1.56269 -0.84336,0.62012 -1.41387,0.62012 -0.81855,0 -1.36426,-0.32246 -0.5457,-0.32246 -0.86816,-0.79375 -0.29766,-0.47129 -0.42168,-1.01699 -0.12403,-0.57051 -0.0744,-1.0418 0.0248,-0.39687 0.17364,-1.41387 0.14883,-1.04179 0.39687,-2.38125 0.24805,-1.36425 0.54571,-2.90215 0.32246,-1.56269 0.66972,-3.00136 -0.42168,0.0496 -0.84336,0.0992 -0.42168,0.0496 -0.76894,0.0496 -0.79375,0 -1.48828,-0.17364 -0.71934,-0.19843 -1.06661,-0.37207 -0.19843,-0.0992 -0.17363,-0.27285 0.0248,-0.19844 0.14883,-0.37207 0.12402,-0.19844 0.32246,-0.32246 0.17363,-0.14883 0.32246,-0.14883 0.47129,0.0496 1.01699,0.0992 0.54571,0.0248 1.19063,0 0.47129,-0.0248 0.89297,-0.0744 0.44648,-0.0496 0.86816,-0.12403 0.32246,-1.19062 0.62012,-2.05879 0.32246,-0.89296 0.57051,-1.24023 0.0744,-0.12402 0.32246,-0.19844 0.27285,-0.0992 0.5705,-0.12402 0.29766,-0.0496 0.57051,0 0.27285,0.0248 0.39688,0.17363 0.12402,0.19844 0.0992,1.01699 -0.0248,0.81856 -0.27286,2.0836 1.0418,0 1.83555,0.12402 0.81856,0.0992 1.38906,0.24805 0.57051,0.12402 0.91778,0.27285 0.34726,0.12402 0.5209,0.17363 0.17363,0.0496 0.17363,0.24805 0.0248,0.19844 -0.0744,0.42168 -0.0744,0.19844 -0.27285,0.34726 -0.19843,0.14883 -0.44648,0.0992 -0.24805,-0.0248 -0.57051,-0.0992 -0.29766,-0.0744 -0.74414,-0.12402 -0.42168,-0.0496 -1.01699,-0.0992 -0.59531,-0.0496 -1.38906,-0.0496 -0.14883,0 -0.34727,0.0248 -0.17363,0 -0.37207,0 -0.0992,0.39687 -0.19844,0.79375 -0.0744,0.37207 -0.22324,0.79375 -0.32246,0.99218 -0.74414,2.15801 -0.37207,1.01699 -0.89297,2.33164 -0.5209,1.31464 -1.16582,2.80293 -0.14883,1.0666 0.0248,1.6371 0.19843,0.54571 0.47128,0.79375 0.32247,0.27286 0.79375,0.29766 0.37207,0.0496 0.89297,-0.24805 0.54571,-0.32246 1.11621,-0.84336 0.57051,-0.52089 1.14102,-1.14101 0.59531,-0.62012 1.09141,-1.21543 0.49609,-0.59531 0.86816,-1.0666 0.37207,-0.4961 0.5209,-0.69453 z"
         style="font-family:Satisfy;-inkscape-font-specification:Satisfy"
         id="path1194" />
      <path
         d="m 138.59901,140.64288 q -0.24805,0.94258 -0.66973,1.76113 -0.42168,0.81855 -1.01699,1.41387 -0.57051,0.59531 -1.31465,0.91777 -0.71934,0.34727 -1.5875,0.34727 -1.01699,0 -1.61231,-0.44649 -0.5705,-0.42168 -0.86816,-1.0666 -0.27285,-0.64492 -0.32246,-1.41387 -0.0744,-0.76894 -0.0744,-1.43867 0,-0.47129 0.12402,-1.0418 0.0992,-0.5705 0.29766,-1.16582 0.19843,-0.59531 0.49609,-1.19062 0.32246,-0.59531 0.74414,-1.09141 0.14883,-0.42168 0.44648,-0.74414 0.32246,-0.32246 0.71934,-0.5209 0.42168,-0.22324 0.89297,-0.32246 0.47129,-0.12402 0.91777,-0.12402 0.0744,0 0.12403,0.0248 0.0744,0.0248 0.14882,0.0496 0.32246,0.0248 0.79375,0.24805 0.4961,0.22324 0.94258,0.66973 0.47129,0.44648 0.79375,1.14101 0.32246,0.66973 0.32246,1.63711 0,0.19844 -0.0248,0.4961 -0.0248,0.27285 -0.0496,0.47128 0.57051,-0.22324 1.19062,-0.5457 0.62012,-0.32246 1.19063,-0.66972 0.59531,-0.37208 1.0914,-0.74415 0.4961,-0.37207 0.79375,-0.66972 0.24805,-0.22324 0.42168,-0.24805 0.17364,-0.0248 0.24805,0.0992 0.0744,0.12402 0.0248,0.34727 -0.0496,0.22324 -0.27286,0.49609 -0.12402,0.14883 -0.64492,0.59531 -0.49609,0.44649 -1.19062,0.96738 -0.69453,0.5209 -1.51309,1.017 -0.81855,0.49609 -1.56269,0.74414 z m -4.192,-3.77032 q -0.0744,0.22325 -0.0744,0.47129 0,0.39688 0.0496,0.84336 0.0496,0.42168 0.24805,0.76895 0.19843,0.34726 0.62011,0.59531 0.44649,0.22324 1.21543,0.22324 0.12403,0 0.24805,0 0.12402,-0.0248 0.24805,-0.0496 0.0744,-0.32246 0.12402,-0.5705 0.0744,-0.27286 0.0744,-0.47129 0.0496,-0.47129 0,-0.96739 -0.0496,-0.49609 -0.19843,-0.89296 -0.12403,-0.42168 -0.34727,-0.66973 -0.19844,-0.27285 -0.49609,-0.27285 -0.47129,0 -0.91778,0.27285 -0.42168,0.24805 -0.79375,0.71933 z m -1.5875,4.36563 q 0,0.44648 0.0496,0.89297 0.0496,0.42168 0.19844,0.76894 0.14883,0.32246 0.39688,0.54571 0.24804,0.19843 0.64492,0.19843 0.44648,0 0.81855,-0.19843 0.37207,-0.22325 0.66973,-0.54571 0.29766,-0.34726 0.5209,-0.76894 0.24804,-0.44649 0.42168,-0.91777 -0.17364,0.0248 -0.34727,0.0496 -0.14883,0 -0.34726,0 -0.94258,0 -1.63711,-0.5457 -0.66973,-0.57051 -1.0418,-1.43867 -0.14883,0.5209 -0.24805,1.01699 -0.0992,0.4961 -0.0992,0.94258 z"
         style="font-family:Satisfy;-inkscape-font-specification:Satisfy"
         id="path1196" />
      <path
         d="m 146.58612,155.17842 q -0.17363,-0.0744 -0.34726,-0.22324 -0.14883,-0.12402 -0.29766,-0.32246 -0.14883,-0.17363 -0.24805,-0.44648 0.69454,-2.65411 1.19063,-4.61368 0.47129,-1.95957 0.81855,-3.27421 0.37207,-1.53789 0.64493,-2.57969 0.24804,-0.99219 0.49609,-1.98438 0.19844,-0.86816 0.42168,-1.86035 0.24805,-0.99219 0.44648,-1.86035 0.24805,-0.96738 0.29766,-1.53789 0.0496,-0.59531 -0.37207,-1.01699 0.29766,-0.24805 0.59531,-0.37207 0.32246,-0.14883 0.57051,-0.19844 0.27285,-0.0744 0.5457,-0.0496 0.66973,0.0496 0.81856,0.42168 0.17363,0.37207 0.0496,1.19063 -0.0248,0.12402 -0.0496,0.22324 0,0.0744 0,0.17363 0.34726,-0.39687 0.76894,-0.76895 0.42168,-0.37207 0.84336,-0.66972 0.44649,-0.29766 0.89297,-0.47129 0.47129,-0.19844 0.89297,-0.19844 0.57051,0 0.91777,0.29766 0.37207,0.27285 0.57051,0.74414 0.19844,0.47129 0.24805,1.0666 0.0496,0.57051 0.0248,1.14102 -0.0248,0.62011 -0.22324,1.31464 -0.17363,0.69454 -0.49609,1.41387 -0.32246,0.71934 -0.74414,1.41387 -0.42168,0.69453 -0.89297,1.28984 0.0992,0.0248 0.12402,0.0496 0.0248,0 0.0248,0.0248 0,0 0.0248,0.0248 0.0496,0 0.17363,0 0.57051,0 1.16582,-0.29766 0.59532,-0.29765 1.16582,-0.74414 0.57051,-0.47128 1.09141,-1.01699 0.5457,-0.5457 0.96738,-1.04179 0.44649,-0.5209 0.74414,-0.91778 0.29766,-0.42168 0.44649,-0.59531 0.19844,-0.24805 0.37207,-0.32246 0.17363,-0.0992 0.27285,-0.0248 0.0992,0.0744 0.0992,0.29766 0,0.19844 -0.14883,0.5209 -0.0992,0.22324 -0.42168,0.71933 -0.32246,0.4961 -0.79375,1.11622 -0.47129,0.62011 -1.09141,1.28984 -0.59531,0.66973 -1.26503,1.21543 -0.66973,0.5457 -1.38907,0.89297 -0.69453,0.37207 -1.36425,0.37207 -0.32247,0 -0.5209,-0.0248 -0.19844,-0.0248 -0.34727,-0.0992 -0.12402,-0.0496 -0.24805,-0.12402 -0.12402,-0.0496 -0.29765,-0.12402 -0.44649,0.34726 -0.91778,0.5209 -0.47128,0.19843 -0.91777,0.19843 -0.42168,0 -0.74414,-0.14882 -0.29766,-0.12403 -0.49609,-0.37208 -0.19844,-0.22324 -0.32246,-0.49609 -0.12403,-0.29766 -0.19844,-0.57051 -0.0248,0.0992 -0.0496,0.17364 0,0.0744 -0.0248,0.19843 -0.29765,1.19063 -0.62011,2.75332 -0.27285,1.33946 -0.66973,3.24942 -0.37207,1.93476 -0.79375,4.39043 -0.14883,0.66972 -0.5209,0.76894 -0.39687,0.0992 -0.89297,-0.0992 z m 4.53926,-15.3789 q -0.12402,0.42168 -0.27285,0.99219 -0.12402,0.5457 -0.29766,1.31464 0.19844,-0.14882 0.44649,-0.22324 0.24804,-0.0744 0.49609,-0.0744 0.27285,0 0.69453,0.29765 0.42168,0.27286 1.01699,0.59532 0.37208,-0.44649 0.76895,-0.99219 0.42168,-0.57051 0.74414,-1.16582 0.34727,-0.59531 0.57051,-1.21543 0.24805,-0.62012 0.27285,-1.19063 0.0496,-0.74414 -0.17363,-1.16582 -0.22324,-0.42168 -0.74414,-0.42168 -0.76895,0 -1.68672,0.91778 -0.89297,0.89297 -1.83555,2.33164 z"
         style="fill:#16a34a"
         id="path1198" />
      <path
         d="m 159.45975,144.18995 q 1.09141,-4.58887 1.73633,-7.36699 0.66973,-2.77813 1.01699,-4.24161 0.39688,-1.73632 0.54571,-2.40605 0.0744,-0.47129 0.12402,-0.91777 0.0496,-0.39688 0.0496,-0.81856 0,-0.42168 -0.0744,-0.76894 0.19843,-0.12403 0.42167,-0.19844 0.24805,-0.0744 0.47129,-0.12403 0.27286,-0.0744 0.54571,-0.12402 0.27285,-0.0496 0.49609,-0.0496 0.19844,0 0.37207,0.0496 0.17363,0.0248 0.22324,0.14883 0.14883,0.12402 0.12403,0.49609 0,0.37207 -0.0496,0.76895 -0.0992,0.47129 -0.22324,1.01699 -0.29766,1.0666 -0.81856,3.07578 -0.44648,1.71153 -1.21543,4.66328 -0.74414,2.95176 -1.88516,7.44141 -0.12402,0.12402 -0.29765,0.17363 -0.17363,0.0496 -0.32246,0.0496 -0.17364,0 -0.37207,-0.0248 -0.17364,-0.0496 -0.34727,-0.14883 -0.14883,-0.0992 -0.29765,-0.27285 -0.14883,-0.14883 -0.22325,-0.42168 z"
         style="fill:#16a34a"
         id="path1200" />
      <path
         d="m 178.11287,139.65069 q -0.34726,0.49609 -0.89297,1.24023 -0.5457,0.71934 -1.14101,1.46348 -0.57051,0.71934 -1.14102,1.33945 -0.5457,0.59532 -0.91777,0.84336 -0.24805,0.14883 -0.57051,0.24805 -0.32246,0.0992 -0.66973,0.12402 -0.32246,0.0248 -0.62011,-0.0496 -0.29766,-0.0496 -0.5209,-0.19843 -0.22324,-0.17364 -0.37207,-0.4961 -0.12403,-0.27285 -0.24805,-0.71933 -0.0992,-0.44649 -0.0744,-1.11621 -0.59532,0.99218 -1.31465,1.53789 -0.71934,0.5209 -1.36426,0.76894 -0.74414,0.27285 -1.48828,0.32246 -0.34727,0 -0.74414,-0.24804 -0.39688,-0.22325 -0.66973,-0.71934 -0.27285,-0.5209 -0.34726,-1.31465 -0.0744,-0.81855 0.19843,-1.93476 0.34727,-1.51309 1.09141,-2.75332 0.76895,-1.24024 1.66191,-2.1084 0.89297,-0.89297 1.76114,-1.33946 0.86816,-0.44648 1.43867,-0.39687 0.66973,0.12402 1.09141,0.39687 0.34726,0.24805 0.44648,0.74414 0.12402,0.47129 -0.39688,1.26504 0.34727,-0.0744 0.57051,-0.0992 0.24805,-0.0248 0.37207,-0.0248 0.14883,0 0.19844,0.0248 0.0248,0.0496 0.0248,0.22324 0,0.14883 -0.0744,0.57051 -0.0744,0.42167 -0.22324,1.14101 -0.14883,0.71934 -0.39688,1.86035 -0.0496,0.22324 -0.0992,0.42168 -0.0248,0.17363 -0.0744,0.37207 -0.0248,0.17364 -0.0744,0.42168 -0.0496,0.24805 -0.12403,0.62012 -0.0248,0.22324 -0.0248,0.49609 0.0248,0.24805 0.0992,0.47129 0.0744,0.22324 0.22324,0.37207 0.17363,0.12403 0.47129,0.12403 0.24805,0 0.64492,-0.29766 0.39688,-0.32246 0.84336,-0.79375 0.44648,-0.49609 0.91777,-1.0666 0.4961,-0.59531 0.91778,-1.14102 0.42168,-0.5457 0.74414,-0.96738 0.34726,-0.42168 0.49609,-0.62012 0.19844,-0.22324 0.39688,-0.24804 0.19843,-0.0496 0.29765,0.0992 0.0992,0.14883 0.0248,0.44649 -0.0496,0.29765 -0.34727,0.69453 z m -7.26777,1.09141 q 0.12402,-0.4961 0.29765,-1.16582 0.17364,-0.66973 0.29766,-1.28985 0.12402,-0.62012 0.17363,-1.01699 0.0744,-0.42168 -0.0248,-0.39688 -0.12402,0.0248 -0.27285,0.0744 -0.12403,0.0496 -0.32246,0.0744 -0.19844,0.0248 -0.39688,0.0744 0.19844,-0.39688 0.22324,-0.64492 0.0496,-0.27286 0.0248,-0.42168 -0.0248,-0.17364 -0.0992,-0.27286 -0.27285,-0.22324 -0.96738,0.37207 -0.66973,0.57051 -1.5627,2.13321 -0.37207,0.64492 -0.59531,1.38906 -0.22324,0.71934 -0.32246,1.36426 -0.0744,0.64492 -0.0248,1.14101 0.0496,0.47129 0.19844,0.62012 0.27285,0.27285 0.62012,0.27285 0.34726,-0.0248 0.69453,-0.19844 0.37207,-0.19843 0.71934,-0.49609 0.37207,-0.29766 0.64492,-0.62012 0.29765,-0.32246 0.47129,-0.59531 0.19843,-0.27285 0.22324,-0.39687 z"
         style="fill:#16a34a"
         id="path1202" />
      <path
         d="m 183.81796,145.20694 q -0.57051,0 -0.99219,-0.22324 -0.39688,-0.19844 -0.64492,-0.54571 -0.24805,-0.34726 -0.32246,-0.79375 -0.0744,-0.47128 0.0496,-0.99218 0.0744,-0.34727 0.24804,-0.91778 0.17363,-0.59531 0.34727,-1.26504 0.19844,-0.69453 0.34726,-1.36425 0.17364,-0.69453 0.22325,-1.24024 0.0496,-0.57051 -0.0496,-0.91777 -0.0992,-0.37207 -0.42168,-0.37207 -0.39688,0 -0.81856,0.27285 -0.42168,0.24805 -0.86816,0.69453 -0.42168,0.44649 -0.86817,1.0418 -0.42168,0.57051 -0.84336,1.19062 -0.22324,0.84336 -0.37207,1.48828 -0.14882,0.62012 -0.27285,1.14102 -0.0992,0.49609 -0.19844,0.89297 -0.0992,0.37207 -0.17363,0.71933 -0.0744,0.24805 -0.44648,0.4961 -0.37207,0.22324 -0.79375,0.37207 -0.42168,0.14883 -0.71934,0.14883 -0.32246,0 -0.27285,-0.22325 0.0248,-0.14882 0.17363,-0.66972 0.12403,-0.5209 0.32246,-1.21543 0.17364,-0.71934 0.37207,-1.51309 0.19844,-0.79375 0.37207,-1.51308 0.12403,-0.57051 0.27286,-1.26504 0.12402,-0.59531 0.29765,-1.38906 0.19844,-0.79375 0.44649,-1.73633 0.17363,-0.14883 0.34726,-0.22325 0.19844,-0.0992 0.39688,-0.14882 0.19843,-0.0744 0.42168,-0.0992 0.19843,0 0.39687,0.0248 0.17363,0.0248 0.34727,0.0992 0.19844,0.0496 0.34726,0.17363 -0.0744,0.17364 -0.17363,0.4961 -0.0992,0.29765 -0.19844,0.64492 -0.0992,0.39687 -0.24804,0.81855 0.32246,-0.44648 0.71933,-0.89296 0.42168,-0.47129 0.89297,-0.84336 0.49609,-0.37207 1.0418,-0.59532 0.5457,-0.24804 1.11621,-0.24804 0.47129,0 0.84336,0.27285 0.37207,0.27285 0.57051,0.76894 0.22324,0.47129 0.24804,1.14102 0.0496,0.66973 -0.17363,1.46348 l -0.27285,1.0914 q -0.12403,0.5209 -0.32246,1.24024 -0.17364,0.69453 -0.44649,1.53789 -0.14883,0.5457 -0.12402,0.94258 0.0496,0.39687 0.49609,0.39687 0.44649,0 1.11621,-0.5457 0.69454,-0.54571 1.38907,-1.31465 0.69453,-0.76895 1.31465,-1.5627 0.62011,-0.81855 0.94257,-1.31464 0.22325,-0.32247 0.42168,-0.42168 0.19844,-0.0992 0.29766,-0.0248 0.12402,0.0744 0.12402,0.34727 0,0.24804 -0.19843,0.64492 -0.17364,0.34726 -0.54571,0.91777 -0.34726,0.57051 -0.84336,1.21543 -0.49609,0.64492 -1.0666,1.31465 -0.57051,0.64492 -1.19062,1.19062 -0.62012,0.5209 -1.24024,0.84336 -0.59531,0.34727 -1.14101,0.34727 z"
         style="fill:#16a34a"
         id="path1204" />
      <path
         d="m 197.33651,138.31124 q 0.0992,-0.14883 0.24805,-0.17364 0.17363,-0.0496 0.27285,0.0248 0.0992,0.0744 0.0992,0.24805 0.0248,0.17363 -0.12402,0.47128 -0.4961,0.94258 -1.31465,2.03399 -0.79375,1.09141 -1.68672,2.05879 -0.89297,0.94258 -1.73633,1.56269 -0.84336,0.62012 -1.41386,0.62012 -0.81856,0 -1.36426,-0.32246 -0.54571,-0.32246 -0.86817,-0.79375 -0.29765,-0.47129 -0.42168,-1.01699 -0.12402,-0.57051 -0.0744,-1.0418 0.0248,-0.39687 0.17363,-1.41387 0.14883,-1.04179 0.39688,-2.38125 0.24804,-1.36425 0.5457,-2.90215 0.32246,-1.56269 0.66973,-3.00136 -0.42168,0.0496 -0.84336,0.0992 -0.42168,0.0496 -0.76895,0.0496 -0.79375,0 -1.48828,-0.17364 -0.71933,-0.19843 -1.0666,-0.37207 -0.19844,-0.0992 -0.17363,-0.27285 0.0248,-0.19844 0.14882,-0.37207 0.12403,-0.19844 0.32247,-0.32246 0.17363,-0.14883 0.32246,-0.14883 0.47129,0.0496 1.01699,0.0992 0.5457,0.0248 1.19062,0 0.47129,-0.0248 0.89297,-0.0744 0.44649,-0.0496 0.86817,-0.12403 0.32246,-1.19062 0.62011,-2.05879 0.32246,-0.89296 0.57051,-1.24023 0.0744,-0.12402 0.32246,-0.19844 0.27285,-0.0992 0.57051,-0.12402 0.29766,-0.0496 0.57051,0 0.27285,0.0248 0.39687,0.17363 0.12403,0.19844 0.0992,1.01699 -0.0248,0.81856 -0.27285,2.0836 1.0418,0 1.83555,0.12402 0.81855,0.0992 1.38906,0.24805 0.57051,0.12402 0.91777,0.27285 0.34727,0.12402 0.5209,0.17363 0.17363,0.0496 0.17363,0.24805 0.0248,0.19844 -0.0744,0.42168 -0.0744,0.19844 -0.27285,0.34726 -0.19844,0.14883 -0.44649,0.0992 -0.24804,-0.0248 -0.5705,-0.0992 -0.29766,-0.0744 -0.74414,-0.12402 -0.42168,-0.0496 -1.017,-0.0992 -0.59531,-0.0496 -1.38906,-0.0496 -0.14883,0 -0.34726,0.0248 -0.17364,0 -0.37207,0 -0.0992,0.39687 -0.19844,0.79375 -0.0744,0.37207 -0.22324,0.79375 -0.32247,0.99218 -0.74414,2.15801 -0.37208,1.01699 -0.89297,2.33164 -0.5209,1.31464 -1.16582,2.80293 -0.14883,1.0666 0.0248,1.6371 0.19844,0.54571 0.47129,0.79375 0.32246,0.27286 0.79375,0.29766 0.37207,0.0496 0.89297,-0.24805 0.5457,-0.32246 1.11621,-0.84336 0.57051,-0.52089 1.14102,-1.14101 0.59531,-0.62012 1.0914,-1.21543 0.4961,-0.59531 0.86817,-1.0666 0.37207,-0.4961 0.52089,-0.69453 z"
         style="fill:#16a34a"
         id="path1206" />
    </g>
  </g>
</svg>
