<?xml version="1.0" encoding="UTF-8" standalone="no"?>
<!-- Created with Inkscape (http://www.inkscape.org/) -->

<svg
   width="140.2751mm"
   height="28.663883mm"
   viewBox="0 0 140.2751 28.663883"
   version="1.1"
   id="svg5"
   inkscape:version="1.2 (dc2aedaf03, 2022-05-15)"
   sodipodi:docname="assets.svg"
   xmlns:inkscape="http://www.inkscape.org/namespaces/inkscape"
   xmlns:sodipodi="http://sodipodi.sourceforge.net/DTD/sodipodi-0.dtd"
   xmlns="http://www.w3.org/2000/svg"
   xmlns:svg="http://www.w3.org/2000/svg">
  <sodipodi:namedview
     id="namedview7"
     pagecolor="#ffffff"
     bordercolor="#999999"
     borderopacity="1"
     inkscape:showpageshadow="0"
     inkscape:pageopacity="0"
     inkscape:pagecheckerboard="0"
     inkscape:deskcolor="#d1d1d1"
     inkscape:document-units="mm"
     showgrid="false"
     inkscape:zoom="0.75455247"
     inkscape:cx="264.39513"
     inkscape:cy="538.72993"
     inkscape:window-width="1920"
     inkscape:window-height="1018"
     inkscape:window-x="0"
     inkscape:window-y="30"
     inkscape:window-maximized="1"
     inkscape:current-layer="layer1" />
  <defs
     id="defs2" />
  <g
     inkscape:label="Layer 1"
     inkscape:groupmode="layer"
     id="layer1"
     transform="translate(-31.302972,-40.430186)">
    <g
       aria-label="buymeacrypto_"
       id="text236"
       style="font-size:25.4px;line-height:1.25;stroke-width:0.52839"
       inkscape:label="logo">
      <path
         d="m 36.61826,44.157081 q -0.372071,1.488281 -0.84336,2.852539 -0.446484,1.339453 -0.942578,2.530078 -0.471289,1.16582 -0.967383,2.133203 -0.471289,0.967383 -0.843359,1.686719 -0.248047,1.785937 0,2.877344 0.248047,1.091406 0.967383,1.091406 0.595312,0 1.16582,-0.545703 0.570508,-0.545703 1.016992,-1.339453 0.446485,-0.79375 0.744141,-1.686719 0.322461,-0.917773 0.396875,-1.637109 -0.471289,-0.124024 -0.79375,-0.42168 -0.322461,-0.322461 -0.322461,-0.843359 0,-0.347266 0.198438,-0.644922 0.198437,-0.322461 0.471289,-0.545703 0.272851,-0.223243 0.595312,-0.347266 0.322461,-0.124023 0.595313,-0.124023 0.421679,0 0.719336,0.545703 0.297656,0.520898 0.396875,1.339453 0.992187,-0.02481 2.083593,-0.297656 1.091406,-0.272852 2.058789,-0.694532 0.272852,-0.124023 0.446485,-0.07441 0.173632,0.04961 0.223242,0.198438 0.07441,0.148828 0,0.347265 -0.07441,0.173633 -0.297656,0.272852 -0.570508,0.322461 -1.190625,0.595312 -0.595313,0.248047 -1.190625,0.42168 -0.595313,0.173633 -1.141016,0.272852 -0.545703,0.09922 -0.992187,0.09922 -0.09922,0.992188 -0.620118,2.158008 -0.520898,1.141016 -1.265039,2.133203 -0.74414,0.967383 -1.661914,1.612305 -0.892968,0.644922 -1.761133,0.644922 -0.272851,0 -0.719335,-0.07441 -0.446485,-0.07441 -0.868165,-0.520899 -0.421679,-0.446484 -0.719335,-1.413867 -0.297657,-0.992187 -0.248047,-2.80293 0.0248,-1.215429 0.272851,-2.579687 0.248047,-1.364258 0.595313,-2.728516 0.347265,-1.364257 0.768945,-2.629296 0.446484,-1.289844 0.843359,-2.306836 0.396875,-1.041797 0.719336,-1.736328 0.347266,-0.694532 0.520899,-0.892969 0.223242,-0.272852 0.520898,-0.396875 0.297656,-0.148828 0.570508,-0.198438 0.297656,-0.07441 0.545703,-0.04961 0.248047,0.02481 0.347266,0.07441 0.148828,0.09922 0.07441,1.091406 -0.04961,0.992188 -0.471289,2.554883 z"
         style="font-family:Satisfy;-inkscape-font-specification:Satisfy"
         id="path555" />
      <path
         d="m 44.55576,58.767042 q -0.942578,0 -1.537891,-0.297656 -0.595312,-0.297657 -0.942578,-0.719336 -0.322461,-0.446485 -0.471289,-0.942579 -0.124023,-0.520898 -0.124023,-0.942578 0,-0.74414 0.124023,-1.562695 0.124023,-0.843359 0.297656,-1.537891 0.173633,-0.719335 0.297656,-1.215429 0.148829,-0.496094 0.198438,-0.620117 0.223242,-0.719336 0.570508,-1.240235 0.37207,-0.545703 1.016992,-0.74414 0.248047,-0.04961 0.520898,-0.09922 0.223243,-0.0248 0.446485,-0.0248 0.248047,0 0.446484,0.07441 -0.669726,1.711524 -1.066601,2.852539 -0.372071,1.141016 -0.570508,1.860352 -0.223242,0.818555 -0.272852,1.314648 -0.124023,1.116211 0.198438,1.686719 0.322461,0.570508 1.314648,0.570508 0.644922,0 1.240234,-0.471289 0.595313,-0.496094 1.091407,-1.265039 -0.07441,-0.396875 -0.07441,-0.818555 0,-0.79375 0.124023,-1.537891 0.148828,-0.768945 0.322461,-1.413867 0.198438,-0.669726 0.396875,-1.190625 0.223242,-0.520898 0.37207,-0.818554 0.272852,-0.595313 0.496094,-0.719336 0.223242,-0.148828 0.719336,-0.173633 0.198437,-0.02481 0.322461,0 0.148828,0 0.248047,0.02481 0.297656,0.07441 0.297656,0.297656 0,0.396875 -0.04961,1.190625 -0.04961,0.79375 -0.297657,1.637109 -0.173632,0.694531 -0.347265,1.190625 -0.148828,0.471289 -0.297656,0.818555 -0.148829,0.322461 -0.297657,0.545703 -0.148828,0.198437 -0.272851,0.37207 0.04961,0.744141 0.124023,1.190625 0.07441,0.446485 0.173633,0.694531 0.124023,0.223243 0.272852,0.322461 0.173632,0.07441 0.37207,0.07441 0.347265,0 0.818555,-0.322461 0.471289,-0.347265 0.967382,-0.843359 0.520899,-0.520898 1.016993,-1.116211 0.520898,-0.620117 0.942578,-1.16582 0.421679,-0.545703 0.719336,-0.942578 0.297656,-0.42168 0.37207,-0.520899 0.173633,-0.223242 0.322461,-0.272851 0.173633,-0.04961 0.272851,0.04961 0.09922,0.07441 0.09922,0.272852 0.02481,0.173633 -0.09922,0.396875 -0.496093,0.942578 -1.240234,2.009179 -0.719336,1.041797 -1.562695,1.934766 -0.818555,0.892969 -1.661914,1.488281 -0.84336,0.595313 -1.5875,0.595313 -0.669727,0 -1.066602,-0.446485 -0.37207,-0.471289 -0.644922,-1.339453 -0.570508,0.892969 -1.339453,1.389063 -0.768945,0.471289 -1.711523,0.471289 z"
         style="font-family:Satisfy;-inkscape-font-specification:Satisfy"
         id="path557" />
      <path
         d="m 59.909861,49.242042 q 0.322461,-0.248047 0.620117,-0.37207 0.322461,-0.148829 0.570508,-0.198438 0.272852,-0.07441 0.545703,-0.04961 0.669727,0.04961 0.818555,0.421679 0.173633,0.372071 0.04961,1.190625 -0.07441,0.42168 -0.297656,1.066602 -0.223242,0.644922 -0.520898,1.5875 -0.297656,0.917773 -0.644922,2.108398 -0.322461,1.190625 -0.620117,2.678907 -0.297657,1.215429 -0.644922,2.802929 -0.297656,1.389063 -0.719336,3.348633 -0.396875,1.95957 -0.868164,4.489648 -0.124024,0.620117 -0.545703,0.719336 -0.396875,0.09922 -0.84336,-0.09922 -0.173632,-0.09922 -0.322461,-0.223242 -0.124023,-0.124023 -0.272851,-0.297656 -0.148828,-0.148828 -0.248047,-0.42168 0.570508,-2.083593 0.992188,-3.795117 0.446484,-1.711523 0.793749,-2.976562 0.372071,-1.463477 0.694532,-2.629297 0.124023,-0.520898 0.223242,-1.016992 0.124023,-0.520899 0.248047,-1.016992 -0.322461,0.520898 -0.694531,0.992187 -0.372071,0.471289 -0.818555,0.818555 -0.446484,0.347265 -0.967383,0.520898 -0.496094,0.198438 -1.041797,0.124024 -1.339453,-0.173633 -1.909961,-0.992188 -0.545703,-0.818555 -0.471289,-2.133203 0.02481,-0.520898 0.148828,-1.141016 0.124024,-0.620117 0.272852,-1.190625 0.148828,-0.570507 0.272851,-1.016992 0.148829,-0.471289 0.223243,-0.669726 0.297656,-0.942578 0.421679,-1.612305 0.148828,-0.669726 -0.198437,-1.116211 0.347265,-0.223242 0.644922,-0.297656 0.322461,-0.09922 0.570508,-0.148828 0.272851,-0.02481 0.545703,0 0.669726,0.09922 0.768945,0.496094 0.124023,0.396875 -0.07441,1.190625 -0.09922,0.421679 -0.322461,1.091406 -0.223242,0.644922 -0.471289,1.339453 -0.248047,0.694531 -0.446484,1.289844 -0.198438,0.570507 -0.223243,0.818554 -0.223242,1.116211 -0.0248,1.736328 0.198437,0.595313 0.868164,0.595313 0.322461,0 0.719336,-0.272852 0.396875,-0.297656 0.79375,-0.768945 0.421679,-0.471289 0.818554,-1.066602 0.396875,-0.620117 0.719336,-1.240234 0.347266,-0.620117 0.595313,-1.21543 0.272851,-0.595312 0.396875,-1.066601 0.173633,-0.917774 0.223242,-1.438672 0.04961,-0.520898 -0.347266,-0.942578 z"
         style="font-family:Satisfy;-inkscape-font-specification:Satisfy"
         id="path559" />
      <path
         d="m 75.263961,57.229151 q 0,-0.520898 0.09922,-1.190625 0.124023,-0.669726 0.297656,-1.364258 0.173633,-0.719336 0.347266,-1.389062 0.173633,-0.669727 0.297656,-1.190625 0.148828,-0.644922 -0.02481,-0.992188 -0.173632,-0.347265 -0.595312,-0.347265 -0.198438,0 -0.79375,0.347265 -0.570508,0.347266 -1.265039,1.21543 -0.669727,0.843359 -1.339453,2.306836 -0.644922,1.438672 -1.016992,3.671094 -0.471289,0.248047 -0.892969,0.322461 -0.223242,0.04961 -0.396875,0.07441 -0.496094,0.0248 -0.644922,-0.173633 -0.148828,-0.173633 0.04961,-0.892969 0.09922,-0.347265 0.347266,-1.116211 0.272852,-0.768945 0.520898,-1.661914 0.248047,-0.917773 0.42168,-1.810742 0.198438,-0.917773 0.198438,-1.5875 0,-0.471289 -0.173633,-0.644922 -0.148828,-0.173633 -0.446485,-0.173633 -0.223242,0 -0.74414,0.248047 -0.520899,0.248047 -1.16582,0.967383 -0.644922,0.719336 -1.289844,2.00918 -0.620117,1.265039 -1.066602,3.299023 v -0.04961 q -0.04961,0.198437 -0.09922,0.396875 -0.04961,0.173633 -0.07442,0.37207 -0.0248,0.198438 -0.07441,0.37207 l -1.240234,0.545703 q -0.124023,0.04961 -0.322461,0.07442 -0.173633,0.0248 -0.347266,-0.07442 -0.148828,-0.07441 -0.223242,-0.347265 -0.07441,-0.272852 0.04961,-0.818555 l 1.562695,-6.474023 q 0.07441,-0.322461 0.124023,-0.620117 0.04961,-0.272852 0.04961,-0.520899 0.0248,-0.272851 -0.02481,-0.446484 0.42168,-0.198438 0.744141,-0.297656 0.322461,-0.09922 0.520898,-0.148829 0.248047,-0.07441 0.42168,-0.07441 0.79375,0 0.520898,1.364258 -0.09922,0.396875 -0.297656,1.165821 0.471289,-0.595313 0.992187,-1.116211 0.545704,-0.545704 1.091407,-0.967383 0.545703,-0.42168 1.091406,-0.669727 0.570508,-0.248047 1.116211,-0.248047 0.42168,0 0.694531,0.248047 0.297656,0.248047 0.446484,0.669727 0.173633,0.396875 0.198438,0.967383 0.02481,0.545703 -0.04961,1.141015 0.396875,-0.520898 0.868164,-1.041797 0.496093,-0.545703 1.016992,-0.967382 0.545703,-0.42168 1.116211,-0.694532 0.570508,-0.272851 1.141015,-0.272851 0.669727,0 1.016993,0.396875 0.37207,0.396875 0.496093,1.016992 0.148828,0.620117 0.07441,1.339453 -0.04961,0.719336 -0.198437,1.389062 l -0.84336,3.348633 q -0.272851,1.240235 0.520899,1.240235 0.620117,0 1.364258,-0.595313 0.74414,-0.595312 1.438672,-1.413867 0.719335,-0.818555 1.339453,-1.686719 0.620117,-0.868164 1.041796,-1.389062 0.148829,-0.173633 0.297657,-0.198438 0.173633,-0.0248 0.272851,0.07441 0.124024,0.07441 0.124024,0.272852 0.0248,0.198437 -0.124024,0.496094 -0.496093,0.868164 -1.215429,1.934765 -0.719336,1.041797 -1.5875,1.95957 -0.84336,0.917774 -1.810743,1.537891 -0.967382,0.620117 -2.009179,0.620117 -0.347266,0 -0.694531,-0.07441 -0.322461,-0.07441 -0.620118,-0.272851 -0.272851,-0.198438 -0.446484,-0.520899 -0.173633,-0.347265 -0.173633,-0.868164 z"
         style="font-family:Satisfy;-inkscape-font-specification:Satisfy"
         id="path561" />
      <path
         d="m 93.172946,53.210792 q -0.744141,1.091406 -1.686719,2.133203 -0.942578,1.016992 -2.00918,1.835547 -1.041797,0.79375 -2.158008,1.289844 -1.091406,0.496093 -2.133203,0.496093 -0.545703,0 -1.190625,-0.272851 -0.620117,-0.248047 -1.141015,-0.79375 -0.520899,-0.545703 -0.84336,-1.413867 -0.297656,-0.868164 -0.173632,-2.108399 0.09922,-1.016992 0.620117,-2.133203 0.545703,-1.141016 1.314648,-2.083594 0.79375,-0.942578 1.761133,-1.562695 0.992187,-0.620117 1.984375,-0.620117 0.942578,0 1.364258,0.471289 0.421679,0.471289 0.37207,1.16582 -0.07441,0.768946 -0.446484,1.413867 -0.347266,0.644922 -0.84336,1.165821 -0.496093,0.520898 -1.066601,0.942578 -0.545703,0.421679 -1.041797,0.768945 -0.545703,0.37207 -1.041797,0.719336 -0.496094,0.322461 -0.868164,0.595313 0.02481,0.620117 0.223242,1.041796 0.198438,0.42168 0.496094,0.694532 0.297656,0.248046 0.669726,0.37207 0.396875,0.09922 0.79375,0.09922 0.84336,0 1.761133,-0.520899 0.917774,-0.545703 1.785938,-1.289843 0.892968,-0.768946 1.637109,-1.5875 0.768945,-0.818555 1.265039,-1.413868 0.173633,-0.198437 0.347266,-0.223242 0.198437,-0.04961 0.297656,0.04961 0.124023,0.07441 0.124023,0.297656 0,0.198437 -0.173632,0.471289 z m -6.35,-3.819922 q -0.297657,0 -0.719336,0.297656 -0.396875,0.297657 -0.79375,0.868164 -0.396875,0.545703 -0.744141,1.364258 -0.347265,0.79375 -0.520898,1.835547 0.297656,-0.223242 0.644922,-0.446484 0.347265,-0.248047 0.694531,-0.520899 1.066601,-0.818555 1.488281,-1.438672 0.42168,-0.620117 0.471289,-1.066601 0.04961,-0.471289 -0.09922,-0.669727 -0.148828,-0.223242 -0.421679,-0.223242 z"
         style="font-family:Satisfy;-inkscape-font-specification:Satisfy"
         id="path563" />
      <path
         d="m 104.11181,53.434034 q -0.34726,0.496094 -0.89297,1.240234 -0.5457,0.719336 -1.14101,1.463477 -0.57051,0.719336 -1.14102,1.339453 -0.5457,0.595313 -0.91777,0.843359 -0.248049,0.148829 -0.57051,0.248047 -0.322461,0.09922 -0.669726,0.124024 -0.322461,0.0248 -0.620118,-0.04961 -0.297656,-0.04961 -0.520898,-0.198437 -0.223242,-0.173633 -0.37207,-0.496094 -0.124024,-0.272851 -0.248047,-0.719336 -0.09922,-0.446484 -0.07441,-1.116211 -0.595313,0.992188 -1.314649,1.537891 -0.719336,0.520898 -1.364258,0.768945 -0.74414,0.272852 -1.488281,0.322461 -0.347265,0 -0.74414,-0.248047 -0.396875,-0.223242 -0.669727,-0.719336 -0.272851,-0.520898 -0.347266,-1.314648 -0.07441,-0.818555 0.198438,-1.934766 0.347266,-1.513086 1.091406,-2.75332 0.768945,-1.240234 1.661914,-2.108398 0.892969,-0.892969 1.761133,-1.339454 0.868164,-0.446484 1.438672,-0.396875 0.669726,0.124024 1.091406,0.396875 0.347266,0.248047 0.446484,0.744141 0.124024,0.471289 -0.396875,1.265039 0.347266,-0.07441 0.570508,-0.09922 0.248047,-0.0248 0.372071,-0.0248 0.148828,0 0.198437,0.0248 0.02481,0.04961 0.02481,0.223243 0,0.148828 -0.07441,0.570507 -0.07441,0.42168 -0.223242,1.141016 -0.148829,0.719336 -0.396875,1.860352 -0.04961,0.223242 -0.09922,0.421679 -0.02481,0.173633 -0.07441,0.372071 -0.02481,0.173632 -0.07441,0.421679 -0.04961,0.248047 -0.124024,0.620117 -0.0248,0.223243 -0.0248,0.496094 0.0248,0.248047 0.09922,0.471289 0.07441,0.223242 0.223242,0.37207 0.173633,0.124024 0.47129,0.124024 0.248046,0 0.644921,-0.297656 0.396884,-0.322461 0.843364,-0.79375 0.44648,-0.496094 0.91777,-1.066602 0.4961,-0.595312 0.91778,-1.141015 0.42168,-0.545704 0.74414,-0.967383 0.34726,-0.42168 0.49609,-0.620117 0.19844,-0.223243 0.39688,-0.248047 0.19843,-0.04961 0.29765,0.09922 0.0992,0.148829 0.0248,0.446485 -0.0496,0.297656 -0.34727,0.694531 z m -7.267772,1.091406 q 0.124023,-0.496093 0.297656,-1.16582 0.173633,-0.669727 0.297656,-1.289844 0.124024,-0.620117 0.173633,-1.016992 0.07441,-0.42168 -0.0248,-0.396875 -0.124024,0.02481 -0.272852,0.07441 -0.124023,0.04961 -0.322461,0.07441 -0.198437,0.0248 -0.396875,0.07441 0.198438,-0.396875 0.223242,-0.644922 0.04961,-0.272851 0.02481,-0.421679 -0.02481,-0.173633 -0.09922,-0.272852 -0.272851,-0.223242 -0.967383,0.37207 -0.669726,0.570508 -1.562695,2.133204 -0.37207,0.644921 -0.595312,1.389062 -0.223243,0.719336 -0.322461,1.364258 -0.07441,0.644922 -0.02481,1.141015 0.04961,0.471289 0.198437,0.620118 0.272852,0.272851 0.620118,0.272851 0.347265,-0.02481 0.694531,-0.198437 0.37207,-0.198438 0.719336,-0.496094 0.37207,-0.297656 0.644922,-0.620117 0.297656,-0.322461 0.471289,-0.595313 0.198437,-0.272851 0.223242,-0.396875 z"
         style="font-family:Satisfy;-inkscape-font-specification:Satisfy"
         id="path565" />
      <path
         d="m 106.66669,57.526807 q 0.76895,0 1.68672,-0.595312 0.94258,-0.620117 1.81074,-1.438672 0.89297,-0.818555 1.61231,-1.661914 0.74414,-0.868164 1.11621,-1.389062 0.22324,-0.322461 0.42168,-0.372071 0.19844,-0.07441 0.29766,0.04961 0.0992,0.124023 0.0744,0.396875 -0.0248,0.248046 -0.22324,0.570507 -0.17364,0.297657 -0.59532,0.868164 -0.39687,0.545704 -0.96738,1.21543 -0.5457,0.644922 -1.26504,1.339453 -0.69453,0.669727 -1.46347,1.240235 -0.76895,0.545703 -1.5875,0.892968 -0.81856,0.372071 -1.61231,0.372071 -1.0914,0 -1.83555,-0.42168 -0.71933,-0.396875 -1.16582,-1.041797 -0.42168,-0.644922 -0.59531,-1.413867 -0.17363,-0.79375 -0.17363,-1.562695 0,-0.768946 0.34726,-1.909961 0.34727,-1.141016 1.017,-2.182813 0.69453,-1.066601 1.73632,-1.810742 1.0418,-0.768945 2.45567,-0.768945 0.79375,0 1.33945,0.545703 0.57051,0.545703 0.54571,1.488281 0,0.446485 -0.14883,0.892969 -0.14883,0.42168 -0.39688,0.768945 -0.24804,0.322461 -0.59531,0.520899 -0.32246,0.198437 -0.71934,0.198437 -0.32246,0 -0.49609,-0.223242 -0.14883,-0.248047 -0.19844,-0.545703 -0.0248,-0.322461 0,-0.620117 0.0496,-0.297657 0.0992,-0.396875 0.12402,-0.173633 0.27285,-0.248047 0.14883,-0.07441 0.34727,-0.173633 0.14883,-0.07441 0.22324,-0.223242 0.0992,-0.148828 0.0992,-0.322461 0,-0.173633 -0.0992,-0.297656 -0.0992,-0.124024 -0.32246,-0.124024 -0.22324,0 -0.81856,0.37207 -0.5705,0.347266 -1.19062,1.066602 -0.59531,0.694531 -1.0666,1.761133 -0.47129,1.066601 -0.4961,2.480469 -0.0248,0.818554 0.22325,1.339453 0.24804,0.520898 0.62011,0.818554 0.37207,0.297657 0.81856,0.42168 0.44648,0.124023 0.86816,0.124023 z"
         style="font-family:Satisfy;-inkscape-font-specification:Satisfy"
         id="path567" />
      <path
         d="m 110.73467,58.246143 q -0.17364,0.272852 -0.37207,0.347266 -0.22325,0.09922 -0.37207,0.02481 -0.17364,-0.04961 -0.22325,-0.248047 -0.0496,-0.198438 0.0992,-0.496094 0.0744,-0.148828 0.34727,-0.669727 0.24804,-0.520898 0.62011,-1.240234 0.34727,-0.74414 0.76895,-1.5875 0.42168,-0.868164 0.79375,-1.637109 0.39688,-0.768946 0.71934,-1.364258 0.32246,-0.620117 0.47129,-0.892969 -0.27286,-0.248047 -0.37208,-0.347265 -0.0992,-0.124024 -0.14882,-0.496094 -0.0496,-0.322461 0.14882,-0.843359 0.19844,-0.520899 0.5209,-0.992188 0.32246,-0.496094 0.71934,-0.843359 0.39687,-0.347266 0.76894,-0.347266 0.69454,0 0.96739,0.446484 0.29765,0.446485 0.34726,0.917774 0.0496,0.322461 -0.0496,0.818555 -0.0992,0.496093 -0.37207,0.892968 0.0744,0.04961 0.19844,0.124024 0.12402,0.04961 0.39688,0.04961 0.39687,0 0.5457,-0.04961 0.17363,-0.04961 0.5209,-0.04961 0.42168,0 0.69453,0.223243 0.27285,0.198437 0.44648,0.520898 0.17364,0.297656 0.24805,0.669727 0.0992,0.347265 0.12402,0.644921 0.0744,0.620118 -0.32246,1.289844 -0.39687,0.669727 -0.96738,1.463477 -0.34727,0.496093 -0.69453,1.116211 -0.34727,0.620117 -0.29766,1.11621 0.0496,0.322461 0.17363,0.520899 0.12403,0.198437 0.69454,0.198437 0.42168,0 0.91777,-0.297656 0.5209,-0.322461 1.0418,-0.79375 0.5457,-0.496094 1.0666,-1.066601 0.5209,-0.595313 0.96738,-1.141016 0.44648,-0.570508 0.74414,-1.016992 0.32246,-0.446485 0.47129,-0.644922 0.12402,-0.198438 0.32246,-0.272852 0.19844,-0.07441 0.34727,0 0.14882,0.07441 0.17363,0.297657 0.0496,0.223242 -0.17363,0.595312 -0.14883,0.248047 -0.5209,0.79375 -0.34727,0.545703 -0.86817,1.21543 -0.49609,0.669726 -1.11621,1.389062 -0.62011,0.694532 -1.31465,1.289844 -0.66972,0.570508 -1.36425,0.942578 -0.66973,0.37207 -1.28985,0.37207 -0.64492,0 -1.0666,-0.248046 -0.42168,-0.248047 -0.69453,-0.595313 -0.24805,-0.37207 -0.37207,-0.79375 -0.0992,-0.446484 -0.0744,-0.818555 0.0248,-0.297656 0.14882,-0.620117 0.14883,-0.347265 0.32247,-0.694531 0.19843,-0.37207 0.39687,-0.719336 0.22324,-0.37207 0.39688,-0.719336 0.42168,-0.719336 0.66972,-1.21543 0.27285,-0.520898 0.27285,-0.868164 0,-0.223242 -0.0992,-0.396875 -0.0992,-0.173632 -0.32246,-0.173632 -0.14882,0 -0.22324,0.0248 -0.0496,0 -0.12402,0 -0.0496,0 -0.17363,0.02481 -0.0992,0 -0.32247,0 -0.32246,0 -0.5457,-0.09922 -0.22324,-0.09922 -0.42168,-0.148828 -0.0992,0.173633 -0.44648,0.744141 -0.34727,0.570508 -0.81856,1.339453 -0.44648,0.768945 -0.96738,1.612305 -0.49609,0.843359 -0.94258,1.587499 -0.44648,0.719336 -0.74414,1.240235 -0.32246,0.496094 -0.39687,0.595312 z"
         style="font-family:Satisfy;-inkscape-font-specification:Satisfy"
         id="path569" />
      <path
         d="m 128.51963,49.242042 q 0.32246,-0.248047 0.62011,-0.37207 0.32246,-0.148829 0.57051,-0.198438 0.27285,-0.07441 0.5457,-0.04961 0.66973,0.04961 0.81856,0.421679 0.17363,0.372071 0.0496,1.190625 -0.0744,0.42168 -0.29766,1.066602 -0.22324,0.644922 -0.5209,1.5875 -0.29765,0.917773 -0.64492,2.108398 -0.32246,1.190625 -0.62012,2.678907 -0.29765,1.215429 -0.64492,2.802929 -0.29765,1.389063 -0.71933,3.348633 -0.39688,1.95957 -0.86817,4.489648 -0.12402,0.620117 -0.5457,0.719336 -0.39688,0.09922 -0.84336,-0.09922 -0.17363,-0.09922 -0.32246,-0.223242 -0.12402,-0.124023 -0.27285,-0.297656 -0.14883,-0.148828 -0.24805,-0.42168 0.57051,-2.083593 0.99219,-3.795117 0.44648,-1.711523 0.79375,-2.976562 0.37207,-1.463477 0.69453,-2.629297 0.12402,-0.520898 0.22324,-1.016992 0.12402,-0.520899 0.24805,-1.016992 -0.32246,0.520898 -0.69453,0.992187 -0.37207,0.471289 -0.81856,0.818555 -0.44648,0.347265 -0.96738,0.520898 -0.49609,0.198438 -1.0418,0.124024 -1.33945,-0.173633 -1.90996,-0.992188 -0.5457,-0.818555 -0.47129,-2.133203 0.0248,-0.520898 0.14883,-1.141016 0.12402,-0.620117 0.27285,-1.190625 0.14883,-0.570507 0.27285,-1.016992 0.14883,-0.471289 0.22325,-0.669726 0.29765,-0.942578 0.42168,-1.612305 0.14882,-0.669726 -0.19844,-1.116211 0.34726,-0.223242 0.64492,-0.297656 0.32246,-0.09922 0.57051,-0.148828 0.27285,-0.02481 0.5457,0 0.66973,0.09922 0.76895,0.496094 0.12402,0.396875 -0.0744,1.190625 -0.0992,0.421679 -0.32246,1.091406 -0.22324,0.644922 -0.47129,1.339453 -0.24804,0.694531 -0.44648,1.289844 -0.19844,0.570507 -0.22324,0.818554 -0.22325,1.116211 -0.0248,1.736328 0.19844,0.595313 0.86816,0.595313 0.32247,0 0.71934,-0.272852 0.39688,-0.297656 0.79375,-0.768945 0.42168,-0.471289 0.81856,-1.066602 0.39687,-0.620117 0.71933,-1.240234 0.34727,-0.620117 0.59531,-1.21543 0.27286,-0.595312 0.39688,-1.066601 0.17363,-0.917774 0.22324,-1.438672 0.0496,-0.520898 -0.34726,-0.942578 z"
         style="font-family:Satisfy;-inkscape-font-specification:Satisfy"
         id="path571" />
      <path
         d="m 130.5288,68.961768 q -0.17363,-0.07441 -0.34726,-0.223242 -0.14883,-0.124023 -0.29766,-0.322461 -0.14883,-0.173633 -0.24805,-0.446484 0.69454,-2.654102 1.19063,-4.613672 0.47129,-1.95957 0.81855,-3.274219 0.37207,-1.53789 0.64493,-2.579687 0.24804,-0.992188 0.49609,-1.984375 0.19844,-0.868164 0.42168,-1.860352 0.24805,-0.992187 0.44648,-1.860351 0.24805,-0.967383 0.29766,-1.537891 0.0496,-0.595312 -0.37207,-1.016992 0.29766,-0.248047 0.59531,-0.37207 0.32246,-0.148829 0.57051,-0.198438 0.27285,-0.07441 0.5457,-0.04961 0.66973,0.04961 0.81856,0.421679 0.17363,0.372071 0.0496,1.190625 -0.0248,0.124024 -0.0496,0.223243 0,0.07441 0,0.173632 0.34726,-0.396875 0.76894,-0.768945 0.42168,-0.37207 0.84336,-0.669726 0.44649,-0.297657 0.89297,-0.47129 0.47129,-0.198437 0.89297,-0.198437 0.57051,0 0.91777,0.297656 0.37207,0.272852 0.57051,0.744141 0.19844,0.471289 0.24805,1.066601 0.0496,0.570508 0.0248,1.141016 -0.0248,0.620117 -0.22324,1.314648 -0.17363,0.694532 -0.49609,1.413868 -0.32246,0.719336 -0.74414,1.413867 -0.42168,0.694531 -0.89297,1.289843 0.0992,0.02481 0.12402,0.04961 0.0248,0 0.0248,0.02481 0,0 0.0248,0.0248 0.0496,0 0.17363,0 0.57051,0 1.16582,-0.297656 0.59532,-0.297656 1.16582,-0.744141 0.57051,-0.471289 1.09141,-1.016992 0.5457,-0.545703 0.96738,-1.041797 0.44649,-0.520898 0.74414,-0.917773 0.29766,-0.42168 0.44649,-0.595313 0.19844,-0.248046 0.37207,-0.322461 0.17363,-0.09922 0.27285,-0.0248 0.0992,0.07441 0.0992,0.297656 0,0.198438 -0.14883,0.520898 -0.0992,0.223243 -0.42168,0.719336 -0.32246,0.496094 -0.79375,1.116211 -0.47129,0.620118 -1.09141,1.289844 -0.59531,0.669727 -1.26503,1.21543 -0.66973,0.545703 -1.38907,0.892968 -0.69453,0.372071 -1.36425,0.372071 -0.32247,0 -0.5209,-0.0248 -0.19844,-0.02481 -0.34727,-0.09922 -0.12402,-0.04961 -0.24805,-0.124023 -0.12402,-0.04961 -0.29765,-0.124024 -0.44649,0.347266 -0.91778,0.520899 -0.47128,0.198437 -0.91777,0.198437 -0.42168,0 -0.74414,-0.148828 -0.29766,-0.124023 -0.49609,-0.37207 -0.19844,-0.223242 -0.32246,-0.496094 -0.12403,-0.297656 -0.19844,-0.570508 -0.0248,0.09922 -0.0496,0.173633 0,0.07441 -0.0248,0.198438 -0.29765,1.190625 -0.62011,2.75332 -0.27285,1.339453 -0.66973,3.249414 -0.37207,1.934766 -0.79375,4.39043 -0.14883,0.669726 -0.5209,0.768945 -0.39687,0.09922 -0.89297,-0.09922 z m 4.53926,-15.378906 q -0.12402,0.42168 -0.27285,0.992188 -0.12402,0.545703 -0.29766,1.314648 0.19844,-0.148828 0.44649,-0.223242 0.24804,-0.07441 0.49609,-0.07441 0.27285,0 0.69453,0.297656 0.42168,0.272852 1.017,0.595313 0.37207,-0.446485 0.76894,-0.992188 0.42168,-0.570508 0.74414,-1.16582 0.34727,-0.595313 0.57051,-1.21543 0.24805,-0.620117 0.27285,-1.190625 0.0496,-0.74414 -0.17363,-1.16582 -0.22324,-0.42168 -0.74414,-0.42168 -0.76895,0 -1.68672,0.917774 -0.89297,0.892968 -1.83555,2.33164 z"
         style="font-family:Satisfy;-inkscape-font-specification:Satisfy"
         id="path573" />
      <path
         d="m 152.92743,52.094581 q 0.0992,-0.148828 0.24805,-0.173633 0.17363,-0.04961 0.27285,0.02481 0.0992,0.07441 0.0992,0.248047 0.0248,0.173632 -0.12402,0.471289 -0.4961,0.942578 -1.31465,2.033984 -0.79375,1.091406 -1.68672,2.058789 -0.89297,0.942578 -1.73633,1.562695 -0.84336,0.620118 -1.41387,0.620118 -0.81855,0 -1.36425,-0.322461 -0.54571,-0.322461 -0.86817,-0.79375 -0.29765,-0.471289 -0.42168,-1.016993 -0.12402,-0.570507 -0.0744,-1.041796 0.0248,-0.396875 0.17363,-1.413868 0.14883,-1.041796 0.39688,-2.38125 0.24804,-1.364257 0.5457,-2.902148 0.32246,-1.562695 0.66973,-3.001367 -0.42168,0.04961 -0.84336,0.09922 -0.42168,0.04961 -0.76895,0.04961 -0.79375,0 -1.48828,-0.173633 -0.71934,-0.198437 -1.0666,-0.37207 -0.19844,-0.09922 -0.17363,-0.272852 0.0248,-0.198437 0.14882,-0.37207 0.12403,-0.198437 0.32247,-0.322461 0.17363,-0.148828 0.32246,-0.148828 0.47129,0.04961 1.01699,0.09922 0.5457,0.0248 1.19062,0 0.47129,-0.02481 0.89297,-0.07441 0.44649,-0.04961 0.86817,-0.124024 0.32246,-1.190625 0.62011,-2.058789 0.32246,-0.892968 0.57051,-1.240234 0.0744,-0.124024 0.32246,-0.198438 0.27285,-0.09922 0.57051,-0.124023 0.29766,-0.04961 0.57051,0 0.27285,0.02481 0.39687,0.173633 0.12403,0.198437 0.0992,1.016992 -0.0248,0.818555 -0.27285,2.083594 1.0418,0 1.83555,0.124023 0.81855,0.09922 1.38906,0.248047 0.57051,0.124023 0.91777,0.272852 0.34727,0.124023 0.5209,0.173632 0.17363,0.04961 0.17363,0.248047 0.0248,0.198438 -0.0744,0.42168 -0.0744,0.198437 -0.27285,0.347266 -0.19844,0.148828 -0.44649,0.09922 -0.24804,-0.0248 -0.5705,-0.09922 -0.29766,-0.07442 -0.74414,-0.124024 -0.42168,-0.04961 -1.017,-0.09922 -0.59531,-0.04961 -1.38906,-0.04961 -0.14883,0 -0.34726,0.02481 -0.17364,0 -0.37208,0 -0.0992,0.396875 -0.19843,0.79375 -0.0744,0.37207 -0.22324,0.79375 -0.32247,0.992187 -0.74415,2.158007 -0.37207,1.016993 -0.89296,2.331641 -0.5209,1.314648 -1.16582,2.80293 -0.14883,1.066601 0.0248,1.637109 0.19844,0.545703 0.47129,0.79375 0.32246,0.272852 0.79375,0.297656 0.37207,0.04961 0.89297,-0.248047 0.5457,-0.322461 1.11621,-0.843359 0.57051,-0.520898 1.14101,-1.141016 0.59532,-0.620117 1.09141,-1.215429 0.49609,-0.595313 0.86816,-1.066602 0.37208,-0.496094 0.5209,-0.694531 z"
         style="font-family:Satisfy;-inkscape-font-specification:Satisfy"
         id="path575" />
      <path
         d="m 158.78134,54.426222 q -0.24805,0.942578 -0.66973,1.761132 -0.42168,0.818555 -1.01699,1.413867 -0.57051,0.595313 -1.31465,0.917774 -0.71933,0.347266 -1.5875,0.347266 -1.01699,0 -1.6123,-0.446485 -0.57051,-0.42168 -0.86816,-1.066601 -0.27286,-0.644922 -0.32247,-1.413868 -0.0744,-0.768945 -0.0744,-1.438671 0,-0.471289 0.12402,-1.041797 0.0992,-0.570508 0.29766,-1.165821 0.19844,-0.595312 0.49609,-1.190625 0.32246,-0.595312 0.74414,-1.091406 0.14883,-0.421679 0.44649,-0.74414 0.32246,-0.322461 0.71933,-0.520899 0.42168,-0.223242 0.89297,-0.322461 0.47129,-0.124023 0.91778,-0.124023 0.0744,0 0.12402,0.0248 0.0744,0.02481 0.14883,0.04961 0.32246,0.02481 0.79375,0.248047 0.49609,0.223242 0.94258,0.669726 0.47129,0.446485 0.79375,1.141016 0.32246,0.669726 0.32246,1.637109 0,0.198438 -0.0248,0.496094 -0.0248,0.272852 -0.0496,0.471289 0.57051,-0.223242 1.19063,-0.545703 0.62012,-0.322461 1.19062,-0.669727 0.59532,-0.37207 1.09141,-0.74414 0.49609,-0.372071 0.79375,-0.669727 0.24805,-0.223242 0.42168,-0.248047 0.17363,-0.0248 0.24805,0.09922 0.0744,0.124024 0.0248,0.347266 -0.0496,0.223242 -0.27285,0.496093 -0.12402,0.148829 -0.64492,0.595313 -0.4961,0.446484 -1.19063,0.967383 -0.69453,0.520898 -1.51308,1.016992 -0.81856,0.496094 -1.5627,0.744141 z m -4.19199,-3.770313 q -0.0744,0.223242 -0.0744,0.471289 0,0.396875 0.0496,0.843359 0.0496,0.42168 0.24805,0.768946 0.19844,0.347265 0.62012,0.595312 0.44648,0.223242 1.21543,0.223242 0.12402,0 0.24804,0 0.12403,-0.0248 0.24805,-0.04961 0.0744,-0.322461 0.12403,-0.570508 0.0744,-0.272851 0.0744,-0.471289 0.0496,-0.471289 0,-0.967383 -0.0496,-0.496093 -0.19844,-0.892968 -0.12402,-0.42168 -0.34726,-0.669727 -0.19844,-0.272851 -0.4961,-0.272851 -0.47129,0 -0.91777,0.272851 -0.42168,0.248047 -0.79375,0.719336 z m -1.5875,4.365625 q 0,0.446484 0.0496,0.892969 0.0496,0.421679 0.19844,0.768945 0.14882,0.322461 0.39687,0.545703 0.24805,0.198438 0.64492,0.198438 0.44649,0 0.81856,-0.198438 0.37207,-0.223242 0.66972,-0.545703 0.29766,-0.347266 0.5209,-0.768945 0.24805,-0.446485 0.42168,-0.917774 -0.17363,0.02481 -0.34726,0.04961 -0.14883,0 -0.34727,0 -0.94258,0 -1.63711,-0.545703 -0.66973,-0.570508 -1.0418,-1.438672 -0.14882,0.520898 -0.24804,1.016992 -0.0992,0.496094 -0.0992,0.942578 z"
         style="font-family:Satisfy;-inkscape-font-specification:Satisfy"
         id="path577" />
      <path
         d="m 171.3077,56.9563 q 0.19844,0.07441 0.24805,0.272851 0.0744,0.173633 -0.0992,0.644922 -0.14883,0.446484 -0.32246,0.570508 -0.17363,0.124023 -0.34726,0.173633 -0.0744,0.0248 -0.66973,-0.02481 -0.59531,-0.04961 -1.46348,-0.124023 -0.84336,-0.04961 -1.86035,-0.09922 -0.99219,-0.02481 -1.88516,0 -1.66191,0.04961 -3.05097,0.09922 -1.36426,0.04961 -2.48047,0.173632 -0.5209,0.04961 -0.64492,-0.198437 -0.12403,-0.223242 -0.0744,-0.520899 0.0744,-0.322461 0.24805,-0.719336 0.14883,-0.396875 0.5209,-0.446484 1.19062,-0.124023 2.28203,-0.173633 1.09141,-0.04961 1.95957,-0.07441 0.99219,-0.0248 1.90996,0 1.14102,-0.04961 2.1332,0 1.017,0.04961 1.78594,0.148828 0.76895,0.09922 1.24024,0.198438 0.47128,0.07441 0.5705,0.09922 z"
         style="font-family:Satisfy;-inkscape-font-specification:Satisfy"
         id="path579" />
    </g>
  </g>
</svg>
