<?xml version="1.0" encoding="UTF-8" standalone="no"?>
<!-- Created with Inkscape (http://www.inkscape.org/) -->

<svg
   width="586.84589mm"
   height="89.693787mm"
   viewBox="0 0 586.84589 89.693787"
   version="1.1"
   id="svg5"
   inkscape:version="1.2 (dc2aedaf03, 2022-05-15)"
   sodipodi:docname="Page 4.svg"
   inkscape:export-filename="assets/dark/assets.svg"
   inkscape:export-xdpi="300"
   inkscape:export-ydpi="300"
   xmlns:inkscape="http://www.inkscape.org/namespaces/inkscape"
   xmlns:sodipodi="http://sodipodi.sourceforge.net/DTD/sodipodi-0.dtd"
   xmlns="http://www.w3.org/2000/svg"
   xmlns:svg="http://www.w3.org/2000/svg">
  <sodipodi:namedview
     id="namedview7"
     pagecolor="#000000"
     bordercolor="#999999"
     borderopacity="1"
     inkscape:showpageshadow="0"
     inkscape:pageopacity="1"
     inkscape:pagecheckerboard="0"
     inkscape:deskcolor="#d1d1d1"
     inkscape:document-units="mm"
     showgrid="false"
     inkscape:zoom="0.60234445"
     inkscape:cx="983.65644"
     inkscape:cy="68.897456"
     inkscape:window-width="1920"
     inkscape:window-height="1018"
     inkscape:window-x="0"
     inkscape:window-y="30"
     inkscape:window-maximized="1"
     inkscape:current-layer="layer1" />
  <defs
     id="defs2" />
  <g
     inkscape:label="Layer 1"
     inkscape:groupmode="layer"
     id="layer1"
     transform="translate(218.86978,-1019.7947)">
    <g
       aria-label="buymeacrypto plant"
       id="text236-7"
       style="font-size:25.4px;line-height:1.25;stroke-width:0.52839"
       inkscape:label="plant"
       inkscape:export-filename="buymeacrypto_ plant.svg"
       inkscape:export-xdpi="300"
       inkscape:export-ydpi="300"
       transform="matrix(3.1255321,0,0,3.1291563,-253.62767,623.4968)">
      <path
         d="m 33.155982,132.37588 q -0.301827,1.2073 -0.684142,2.314 -0.362192,1.08658 -0.764628,2.05242 -0.382314,0.94572 -0.78475,1.73048 -0.382315,0.78475 -0.684141,1.36828 -0.201218,1.44877 0,2.33413 0.201218,0.88536 0.78475,0.88536 0.482923,0 0.945724,-0.44268 0.462802,-0.44268 0.824994,-1.08658 0.362193,-0.6439 0.603654,-1.36828 0.261583,-0.74451 0.321949,-1.32804 -0.382314,-0.10061 -0.643898,-0.34207 -0.261583,-0.26158 -0.261583,-0.68414 0,-0.2817 0.160974,-0.52317 0.160974,-0.26158 0.382315,-0.44268 0.221339,-0.18109 0.482922,-0.2817 0.261584,-0.10061 0.482924,-0.10061 0.34207,0 0.583532,0.44268 0.241461,0.42256 0.321949,1.08657 0.804871,-0.0201 1.69023,-0.24145 0.88536,-0.22134 1.670109,-0.56341 0.22134,-0.10062 0.362193,-0.0604 0.140853,0.0402 0.181096,0.16098 0.06036,0.12073 0,0.28171 -0.06036,0.14085 -0.241461,0.22134 -0.462802,0.26158 -0.965847,0.48292 -0.482923,0.20122 -0.965846,0.34207 -0.482923,0.14085 -0.925603,0.22134 -0.442679,0.0805 -0.804871,0.0805 -0.08049,0.80487 -0.503046,1.7506 -0.422557,0.92559 -1.026211,1.73047 -0.603654,0.78475 -1.348161,1.30792 -0.724384,0.52316 -1.428647,0.52316 -0.22134,0 -0.583532,-0.0603 -0.362193,-0.0603 -0.704263,-0.42255 -0.34207,-0.3622 -0.583532,-1.14695 -0.241462,-0.80487 -0.201218,-2.27376 0.02012,-0.98597 0.221339,-2.09267 0.201219,-1.1067 0.482924,-2.21339 0.281705,-1.1067 0.623775,-2.13291 0.362192,-1.04634 0.684141,-1.87133 0.321949,-0.84511 0.583532,-1.40853 0.281706,-0.56341 0.422559,-0.72438 0.181096,-0.22135 0.422557,-0.32195 0.241462,-0.12073 0.462801,-0.16098 0.241462,-0.0603 0.44268,-0.0402 0.201218,0.0201 0.281705,0.0603 0.120731,0.0805 0.06036,0.88535 -0.04024,0.80488 -0.382314,2.07255 z"
         style="font-family:Satisfy;-inkscape-font-specification:Satisfy;fill:#ffffff;stroke-width:0.428635"
         id="path1174" />
      <path
         d="m 39.594956,144.22761 q -0.764628,0 -1.247551,-0.24146 -0.482923,-0.24146 -0.764628,-0.58353 -0.261584,-0.36219 -0.382315,-0.76463 -0.100608,-0.42256 -0.100608,-0.76463 0,-0.60365 0.100608,-1.26767 0.10061,-0.68415 0.241462,-1.24756 0.140853,-0.58352 0.241462,-0.98596 0.120731,-0.40244 0.160974,-0.50304 0.181096,-0.58354 0.462801,-1.0061 0.301827,-0.44267 0.824994,-0.60365 0.201218,-0.0402 0.422557,-0.0805 0.181097,-0.0201 0.362193,-0.0201 0.201218,0 0.362192,0.0603 -0.543288,1.38841 -0.865237,2.31401 -0.301827,0.92561 -0.462801,1.50913 -0.181096,0.66403 -0.22134,1.06646 -0.100609,0.90548 0.160975,1.36828 0.261583,0.46281 1.066454,0.46281 0.523167,0 1.006091,-0.38232 0.482923,-0.40244 0.885359,-1.02621 -0.06036,-0.32195 -0.06036,-0.66402 0,-0.6439 0.100608,-1.24755 0.120731,-0.62378 0.261584,-1.14694 0.160974,-0.54329 0.321948,-0.96585 0.181096,-0.42256 0.301827,-0.66402 0.22134,-0.48293 0.402436,-0.58353 0.181096,-0.12073 0.583532,-0.14085 0.160975,-0.0201 0.261584,0 0.12073,0 0.201218,0.0201 0.241461,0.0603 0.241461,0.24146 0,0.32194 -0.04024,0.96584 -0.04024,0.6439 -0.241461,1.32804 -0.140853,0.56342 -0.281706,0.96585 -0.12073,0.38232 -0.241461,0.66402 -0.120731,0.26158 -0.241462,0.44268 -0.120731,0.16097 -0.22134,0.30183 0.04025,0.60365 0.100609,0.96584 0.06036,0.3622 0.140853,0.56341 0.100609,0.1811 0.22134,0.26158 0.140852,0.0604 0.301827,0.0604 0.281705,0 0.664019,-0.26159 0.382314,-0.2817 0.78475,-0.68414 0.422558,-0.42256 0.824994,-0.90548 0.422557,-0.50304 0.764628,-0.94572 0.34207,-0.44269 0.583532,-0.76463 0.241462,-0.34207 0.301827,-0.42256 0.140853,-0.18109 0.261583,-0.22134 0.140853,-0.0402 0.22134,0.0402 0.08049,0.0603 0.08049,0.22134 0.02013,0.14085 -0.08049,0.32194 -0.402436,0.76463 -1.00609,1.62987 -0.583532,0.84511 -1.267673,1.5695 -0.664019,0.72439 -1.34816,1.20731 -0.684142,0.48292 -1.287795,0.48292 -0.543289,0 -0.865238,-0.36219 -0.301826,-0.38232 -0.523167,-1.08658 -0.4628,0.72438 -1.086577,1.12682 -0.623775,0.38232 -1.388403,0.38232 z"
         style="font-family:Satisfy;-inkscape-font-specification:Satisfy;fill:#ffffff;stroke-width:0.428635"
         id="path1176" />
      <path
         d="m 52.050348,136.50084 q 0.261584,-0.20122 0.503046,-0.30182 0.261582,-0.12073 0.4628,-0.16098 0.22134,-0.0603 0.44268,-0.0402 0.543289,0.0402 0.664019,0.34207 0.140853,0.30182 0.04024,0.96585 -0.06037,0.34206 -0.241462,0.86523 -0.181096,0.52317 -0.422557,1.2878 -0.241461,0.7445 -0.523167,1.71035 -0.261583,0.96584 -0.503045,2.17315 -0.241461,0.98597 -0.523167,2.27376 -0.241461,1.12682 -0.583532,2.71644 -0.321948,1.58963 -0.704262,3.64205 -0.100609,0.50305 -0.44268,0.58354 -0.321949,0.0805 -0.684142,-0.0805 -0.140851,-0.0805 -0.261582,-0.18109 -0.10061,-0.10062 -0.22134,-0.24147 -0.120731,-0.12073 -0.201218,-0.34207 0.462801,-1.69022 0.804872,-3.07863 0.362192,-1.3884 0.643897,-2.41462 0.301827,-1.18719 0.563411,-2.13291 0.100608,-0.42255 0.181096,-0.82499 0.100608,-0.42256 0.201218,-0.82499 -0.261584,0.42256 -0.56341,0.80487 -0.301828,0.38232 -0.66402,0.66402 -0.362192,0.2817 -0.78475,0.42255 -0.402436,0.16098 -0.845116,0.10061 -1.086577,-0.14085 -1.549378,-0.80486 -0.44268,-0.66403 -0.382314,-1.73049 0.02013,-0.42255 0.12073,-0.92559 0.10061,-0.50305 0.221341,-0.96585 0.12073,-0.4628 0.22134,-0.825 0.12073,-0.38231 0.181096,-0.54329 0.241461,-0.76462 0.34207,-1.30791 0.120731,-0.54329 -0.160974,-0.90548 0.281705,-0.18109 0.523167,-0.24146 0.261583,-0.0805 0.462801,-0.12074 0.221339,-0.0201 0.442679,0 0.543288,0.0805 0.623776,0.40244 0.100608,0.32195 -0.06036,0.96585 -0.08049,0.34207 -0.261584,0.88536 -0.181096,0.52316 -0.382314,1.08657 -0.201218,0.56341 -0.362192,1.04634 -0.160975,0.4628 -0.181097,0.66402 -0.181096,0.90548 -0.02012,1.40852 0.160974,0.48293 0.704263,0.48293 0.261584,0 0.583532,-0.22134 0.321949,-0.24147 0.643898,-0.62378 0.34207,-0.38231 0.664019,-0.86524 0.321948,-0.50304 0.583532,-1.00608 0.281705,-0.50305 0.482923,-0.98597 0.22134,-0.48292 0.321949,-0.86524 0.140853,-0.74451 0.181096,-1.16706 0.04024,-0.42256 -0.281705,-0.76463 z"
         style="font-family:Satisfy;-inkscape-font-specification:Satisfy;fill:#ffffff;stroke-width:0.428635"
         id="path1178" />
      <path
         d="m 64.505739,142.98006 q 0,-0.42256 0.08049,-0.96585 0.10061,-0.54328 0.241462,-1.1067 0.140852,-0.58352 0.281705,-1.12682 0.140853,-0.54328 0.241461,-0.96584 0.120731,-0.52317 -0.02012,-0.80487 -0.140852,-0.28171 -0.482923,-0.28171 -0.160974,0 -0.643898,0.28171 -0.462801,0.2817 -1.026211,0.98597 -0.543289,0.68414 -1.086577,1.87132 -0.523167,1.16707 -0.824994,2.97803 -0.382314,0.20122 -0.724385,0.26158 -0.181096,0.0402 -0.321948,0.0604 -0.402436,0.0201 -0.523167,-0.14085 -0.120731,-0.14085 0.04024,-0.72439 0.08049,-0.2817 0.281705,-0.90548 0.221341,-0.62377 0.422559,-1.34816 0.201217,-0.74451 0.34207,-1.46889 0.160974,-0.74451 0.160974,-1.2878 0,-0.38231 -0.140852,-0.52317 -0.120731,-0.14085 -0.362192,-0.14085 -0.181097,0 -0.603655,0.20123 -0.422558,0.20121 -0.945724,0.78474 -0.523167,0.58354 -1.046333,1.62987 -0.503045,1.02621 -0.865238,2.67619 v -0.0402 q -0.04024,0.16098 -0.08049,0.32195 -0.04024,0.14085 -0.06036,0.30183 -0.02013,0.16097 -0.06037,0.30183 l -1.006089,0.44267 q -0.100609,0.0402 -0.261583,0.0604 -0.140853,0.0201 -0.281705,-0.0604 -0.120732,-0.0603 -0.181097,-0.2817 -0.06036,-0.22134 0.04024,-0.66402 l 1.267673,-5.25179 q 0.06036,-0.26158 0.100609,-0.50305 0.04024,-0.22133 0.04024,-0.42255 0.02013,-0.22134 -0.02013,-0.36219 0.342071,-0.16098 0.603654,-0.24147 0.261583,-0.0805 0.422557,-0.12073 0.201218,-0.0603 0.342071,-0.0603 0.643898,0 0.422557,1.1067 -0.08049,0.32194 -0.241461,0.94572 0.382314,-0.48292 0.804872,-0.90548 0.44268,-0.44268 0.885359,-0.78476 0.44268,-0.34207 0.885359,-0.54328 0.462802,-0.20122 0.905481,-0.20122 0.342071,0 0.56341,0.20122 0.241461,0.20121 0.362193,0.54328 0.140852,0.32196 0.160974,0.78476 0.02013,0.44268 -0.04024,0.9256 0.321949,-0.42256 0.704263,-0.84511 0.402435,-0.44269 0.824993,-0.78476 0.44268,-0.34207 0.905481,-0.56341 0.462802,-0.22133 0.925602,-0.22133 0.543289,0 0.824995,0.32195 0.301826,0.32194 0.402435,0.82499 0.120731,0.50304 0.06036,1.08657 -0.04024,0.58354 -0.160974,1.12682 l -0.684141,2.71645 q -0.22134,1.00609 0.422558,1.00609 0.503044,0 1.106699,-0.48292 0.603653,-0.48292 1.167064,-1.14695 0.583532,-0.66401 1.086577,-1.36828 0.503045,-0.70426 0.845115,-1.12682 0.120731,-0.14085 0.241462,-0.16098 0.140852,-0.0201 0.221339,0.0604 0.100609,0.0603 0.100609,0.22134 0.02013,0.16097 -0.100609,0.40243 -0.402435,0.70427 -0.985967,1.5695 -0.583533,0.84511 -1.287795,1.58962 -0.684142,0.74451 -1.468891,1.24756 -0.784751,0.50304 -1.629866,0.50304 -0.281706,0 -0.56341,-0.0603 -0.261584,-0.0604 -0.503045,-0.22134 -0.22134,-0.16098 -0.362193,-0.42256 -0.140853,-0.2817 -0.140853,-0.70426 z"
         style="font-family:Satisfy;-inkscape-font-specification:Satisfy;fill:#ffffff;stroke-width:0.428635"
         id="path1180" />
      <path
         d="m 79.033677,139.72033 q -0.603655,0.88536 -1.368283,1.73047 -0.764628,0.825 -1.629865,1.48902 -0.845116,0.6439 -1.750596,1.04633 -0.88536,0.40244 -1.730475,0.40244 -0.44268,0 -0.965847,-0.22135 -0.503044,-0.20121 -0.925602,-0.64389 -0.422558,-0.44268 -0.684141,-1.14694 -0.241462,-0.70427 -0.140852,-1.71035 0.08049,-0.825 0.503045,-1.73048 0.442679,-0.9256 1.066454,-1.69023 0.643898,-0.76463 1.428648,-1.26767 0.804872,-0.50305 1.609744,-0.50305 0.764628,0 1.106699,0.38232 0.342071,0.38231 0.301826,0.94572 -0.06036,0.62377 -0.362192,1.14695 -0.281705,0.52316 -0.684141,0.94572 -0.402435,0.42255 -0.865237,0.76462 -0.442679,0.34207 -0.845115,0.62378 -0.44268,0.30183 -0.845116,0.58353 -0.402436,0.26159 -0.704263,0.48293 0.02013,0.50304 0.181096,0.84511 0.160975,0.34207 0.402436,0.56341 0.241462,0.20122 0.543289,0.30183 0.321949,0.0805 0.643898,0.0805 0.68414,0 1.428647,-0.42255 0.744506,-0.44268 1.448769,-1.04634 0.724385,-0.62377 1.328039,-1.28779 0.623775,-0.66402 1.026211,-1.14694 0.140853,-0.16097 0.281706,-0.1811 0.160974,-0.0402 0.241461,0.0402 0.100609,0.0603 0.100609,0.24146 0,0.16098 -0.140852,0.38232 z m -5.15118,-3.09875 q -0.241462,0 -0.583532,0.24145 -0.321949,0.24147 -0.643898,0.70427 -0.321949,0.44268 -0.603654,1.10669 -0.281705,0.6439 -0.422557,1.48902 0.241461,-0.1811 0.523166,-0.36219 0.281705,-0.20122 0.56341,-0.42256 0.865238,-0.66402 1.207308,-1.16706 0.342071,-0.50305 0.382314,-0.86525 0.04024,-0.3823 -0.08049,-0.54328 -0.120731,-0.18109 -0.34207,-0.18109 z"
         style="font-family:Satisfy;-inkscape-font-specification:Satisfy;fill:#ffffff;stroke-width:0.428635"
         id="path1182" />
      <path
         d="m 87.907387,139.90143 q -0.281704,0.40243 -0.724384,1.00608 -0.442679,0.58354 -0.925603,1.18719 -0.462801,0.58354 -0.925603,1.08658 -0.442679,0.48292 -0.744506,0.68414 -0.201218,0.12073 -0.462801,0.20122 -0.261584,0.0805 -0.543288,0.1006 -0.261584,0.0201 -0.503046,-0.0402 -0.241461,-0.0402 -0.422557,-0.16097 -0.181096,-0.14086 -0.301827,-0.40244 -0.100609,-0.22134 -0.201218,-0.58353 -0.08049,-0.3622 -0.06036,-0.90548 -0.482924,0.80487 -1.066456,1.24755 -0.583532,0.42256 -1.106698,0.62377 -0.603654,0.22134 -1.207308,0.26159 -0.281705,0 -0.603654,-0.20122 -0.321949,-0.1811 -0.543289,-0.58353 -0.221339,-0.42256 -0.281704,-1.06646 -0.06036,-0.66401 0.160974,-1.56949 0.281705,-1.22744 0.885358,-2.23352 0.623777,-1.0061 1.348161,-1.71036 0.724385,-0.72438 1.428648,-1.08658 0.704262,-0.36219 1.167064,-0.32194 0.543289,0.1006 0.885359,0.32194 0.281705,0.20122 0.362193,0.60365 0.100608,0.38232 -0.321949,1.02622 0.281704,-0.0604 0.4628,-0.0805 0.201218,-0.0201 0.301828,-0.0201 0.120731,0 0.160974,0.0201 0.02013,0.0402 0.02013,0.1811 0,0.12073 -0.06036,0.4628 -0.06036,0.34206 -0.181096,0.9256 -0.120732,0.58354 -0.321949,1.50913 -0.04024,0.1811 -0.08049,0.34207 -0.02013,0.14085 -0.06036,0.30183 -0.02013,0.14086 -0.06036,0.34207 -0.04024,0.20122 -0.10061,0.50305 -0.02012,0.18109 -0.02012,0.40243 0.02012,0.20122 0.08049,0.38232 0.06036,0.18109 0.181096,0.30182 0.140852,0.10062 0.382314,0.10062 0.201218,0 0.523166,-0.24147 0.321949,-0.26158 0.684142,-0.64389 0.362192,-0.40244 0.744506,-0.86524 0.402436,-0.48292 0.744507,-0.92561 0.34207,-0.44267 0.603653,-0.78474 0.281706,-0.34208 0.402437,-0.50305 0.160974,-0.1811 0.321948,-0.20121 0.160975,-0.0402 0.241462,0.0805 0.08049,0.12073 0.02013,0.36219 -0.04024,0.24146 -0.281706,0.56341 z m -5.895686,0.88536 q 0.100609,-0.40244 0.241462,-0.94573 0.140852,-0.54329 0.241462,-1.04633 0.100608,-0.50305 0.140852,-0.825 0.06036,-0.34207 -0.02012,-0.32195 -0.10061,0.0201 -0.221341,0.0603 -0.100608,0.0402 -0.261583,0.0604 -0.160974,0.0201 -0.321949,0.0603 0.160975,-0.32195 0.181096,-0.52316 0.04024,-0.22135 0.02013,-0.34207 -0.02013,-0.14086 -0.08049,-0.22135 -0.221339,-0.18109 -0.78475,0.30183 -0.543288,0.4628 -1.267673,1.73048 -0.301827,0.52316 -0.482923,1.12682 -0.181096,0.58353 -0.261583,1.1067 -0.06036,0.52316 -0.02013,0.92559 0.04024,0.38232 0.160975,0.50305 0.221339,0.22134 0.503044,0.22134 0.281705,-0.0201 0.563411,-0.16098 0.301826,-0.16096 0.583532,-0.40243 0.301826,-0.24146 0.523166,-0.50305 0.241462,-0.26158 0.382315,-0.48292 0.160974,-0.22134 0.181096,-0.32194 z"
         style="font-family:Satisfy;-inkscape-font-specification:Satisfy;fill:#ffffff;stroke-width:0.428635"
         id="path1184" />
      <path
         d="m 89.979932,143.22152 q 0.623775,0 1.368281,-0.48292 0.764629,-0.50305 1.468892,-1.16706 0.724384,-0.66403 1.307916,-1.34817 0.603654,-0.70426 0.905481,-1.12682 0.181096,-0.26158 0.342071,-0.30182 0.160974,-0.0604 0.241461,0.0402 0.08049,0.10061 0.06036,0.32195 -0.02012,0.20122 -0.181096,0.4628 -0.140852,0.24146 -0.482922,0.70427 -0.321949,0.44267 -0.784751,0.98597 -0.442679,0.52316 -1.026211,1.08657 -0.563411,0.54329 -1.187187,1.00609 -0.623775,0.44268 -1.287795,0.72438 -0.664018,0.30183 -1.307916,0.30183 -0.885359,0 -1.489013,-0.34207 -0.583532,-0.32195 -0.945725,-0.84511 -0.34207,-0.52317 -0.482922,-1.14695 -0.140853,-0.64389 -0.140853,-1.26767 0,-0.62378 0.281705,-1.54938 0.281705,-0.9256 0.824994,-1.77072 0.56341,-0.86523 1.408525,-1.46889 0.845116,-0.62378 1.992058,-0.62378 0.643898,0 1.086577,0.44269 0.462802,0.44268 0.44268,1.20731 0,0.36218 -0.120731,0.72438 -0.120731,0.34207 -0.321949,0.62377 -0.201218,0.26159 -0.482923,0.42256 -0.261583,0.16098 -0.583532,0.16098 -0.261583,0 -0.402436,-0.1811 -0.120731,-0.20122 -0.160975,-0.44268 -0.02012,-0.26158 0,-0.50304 0.04024,-0.24147 0.08049,-0.32195 0.100609,-0.14085 0.22134,-0.20122 0.12073,-0.0604 0.281704,-0.14085 0.120732,-0.0604 0.181097,-0.1811 0.08049,-0.12073 0.08049,-0.26158 0,-0.14085 -0.08049,-0.24147 -0.08049,-0.1006 -0.261583,-0.1006 -0.181097,0 -0.66402,0.30182 -0.462801,0.28171 -0.965846,0.86524 -0.482924,0.56341 -0.865238,1.42865 -0.382314,0.86524 -0.402435,2.01218 -0.02013,0.66402 0.181096,1.08658 0.201218,0.42255 0.503045,0.66401 0.301827,0.24147 0.664019,0.34208 0.362192,0.1006 0.704263,0.1006 z"
         style="font-family:Satisfy;-inkscape-font-specification:Satisfy;fill:#ffffff;stroke-width:0.428635"
         id="path1186" />
      <path
         d="m 93.27991,143.80506 q -0.140853,0.22133 -0.301827,0.2817 -0.181096,0.0805 -0.301827,0.0201 -0.140852,-0.0402 -0.181097,-0.20122 -0.04024,-0.16097 0.08049,-0.40243 0.06036,-0.12073 0.281705,-0.54329 0.201218,-0.42256 0.503045,-1.00609 0.281705,-0.60365 0.623775,-1.28779 0.342071,-0.70427 0.643898,-1.32804 0.321949,-0.62378 0.583532,-1.1067 0.261583,-0.50305 0.382314,-0.72439 -0.221339,-0.20121 -0.301827,-0.2817 -0.08049,-0.10061 -0.12073,-0.40244 -0.04024,-0.26158 0.12073,-0.68414 0.160974,-0.42256 0.422558,-0.80487 0.261583,-0.40244 0.583532,-0.68414 0.321949,-0.28171 0.623776,-0.28171 0.56341,0 0.78475,0.3622 0.241462,0.36219 0.281705,0.7445 0.04024,0.26159 -0.04024,0.66402 -0.08049,0.40244 -0.301828,0.72438 0.06036,0.0402 0.160975,0.10062 0.100609,0.0402 0.321949,0.0402 0.321949,0 0.442679,-0.0402 0.140853,-0.0402 0.422558,-0.0402 0.342071,0 0.563411,0.1811 0.221339,0.16097 0.362192,0.42256 0.140852,0.24145 0.201212,0.54328 0.0805,0.28171 0.10061,0.52317 0.0604,0.50304 -0.261579,1.04633 -0.321949,0.54329 -0.784749,1.18719 -0.281706,0.40244 -0.563411,0.90548 -0.281705,0.50304 -0.241462,0.90548 0.04024,0.26158 0.140853,0.42256 0.100609,0.16097 0.56341,0.16097 0.342071,0 0.744506,-0.24146 0.422552,-0.26158 0.845112,-0.64389 0.44268,-0.40245 0.86523,-0.86524 0.42257,-0.48293 0.78477,-0.92561 0.36219,-0.4628 0.60365,-0.82499 0.26159,-0.3622 0.38232,-0.52316 0.1006,-0.16098 0.26158,-0.22135 0.16097,-0.0603 0.2817,0 0.12073,0.0603 0.14085,0.24146 0.0402,0.1811 -0.14085,0.48293 -0.12073,0.20122 -0.42256,0.64389 -0.2817,0.44269 -0.70427,0.98597 -0.40242,0.54329 -0.90547,1.12683 -0.50304,0.56341 -1.06646,1.04633 -0.54329,0.4628 -1.106698,0.76463 -0.543288,0.30182 -1.046333,0.30182 -0.523166,0 -0.865237,-0.20122 -0.342071,-0.20122 -0.56341,-0.48292 -0.201218,-0.30182 -0.301828,-0.64389 -0.08049,-0.3622 -0.06036,-0.66403 0.02013,-0.24145 0.120732,-0.50304 0.12073,-0.28171 0.261582,-0.56341 0.160975,-0.30183 0.321949,-0.58353 0.181097,-0.30183 0.321949,-0.58354 0.342071,-0.58352 0.543289,-0.98597 0.22134,-0.42255 0.22134,-0.70425 0,-0.1811 -0.08049,-0.32196 -0.08049,-0.14085 -0.261583,-0.14085 -0.120731,0 -0.181096,0.0201 -0.04024,0 -0.100609,0 -0.04024,0 -0.140853,0.0201 -0.08049,0 -0.261583,0 -0.261583,0 -0.44268,-0.0805 -0.181096,-0.0805 -0.34207,-0.12074 -0.08049,0.14086 -0.362193,0.60366 -0.281704,0.4628 -0.664019,1.08658 -0.362192,0.62377 -0.78475,1.30791 -0.402436,0.68414 -0.764628,1.2878 -0.362193,0.58353 -0.603654,1.00609 -0.261584,0.40244 -0.321949,0.48292 z"
         style="font-family:Satisfy;-inkscape-font-specification:Satisfy;fill:#ffffff;stroke-width:0.428635"
         id="path1188" />
      <path
         d="m 107.70724,136.50084 q 0.26158,-0.20122 0.50304,-0.30182 0.26159,-0.12073 0.46281,-0.16098 0.22134,-0.0603 0.44267,-0.0402 0.54329,0.0402 0.66402,0.34207 0.14086,0.30182 0.0402,0.96585 -0.0604,0.34206 -0.24146,0.86523 -0.1811,0.52317 -0.42256,1.2878 -0.24146,0.7445 -0.52317,1.71035 -0.26158,0.96584 -0.50304,2.17315 -0.24147,0.98597 -0.52317,2.27376 -0.24146,1.12682 -0.58353,2.71644 -0.32195,1.58963 -0.70426,3.64205 -0.10062,0.50305 -0.44269,0.58354 -0.32194,0.0805 -0.68414,-0.0805 -0.14085,-0.0805 -0.26158,-0.18109 -0.10061,-0.10062 -0.22134,-0.24147 -0.12073,-0.12073 -0.20121,-0.34207 0.46279,-1.69022 0.80486,-3.07863 0.3622,-1.3884 0.6439,-2.41462 0.30183,-1.18719 0.56341,-2.13291 0.10061,-0.42255 0.1811,-0.82499 0.10061,-0.42256 0.20121,-0.82499 -0.26158,0.42256 -0.5634,0.80487 -0.30183,0.38232 -0.66402,0.66402 -0.3622,0.2817 -0.78476,0.42255 -0.40243,0.16098 -0.84511,0.10061 -1.08658,-0.14085 -1.54937,-0.80486 -0.44269,-0.66403 -0.38232,-1.73049 0.0201,-0.42255 0.12073,-0.92559 0.10061,-0.50305 0.22134,-0.96585 0.12073,-0.4628 0.22134,-0.825 0.12073,-0.38231 0.18109,-0.54329 0.24147,-0.76462 0.34208,-1.30791 0.12073,-0.54329 -0.16098,-0.90548 0.28171,-0.18109 0.52316,-0.24146 0.2616,-0.0805 0.46281,-0.12074 0.22134,-0.0201 0.44268,0 0.54329,0.0805 0.62377,0.40244 0.10061,0.32195 -0.0603,0.96585 -0.0805,0.34207 -0.26158,0.88536 -0.1811,0.52316 -0.38232,1.08657 -0.20122,0.56341 -0.36219,1.04634 -0.16097,0.4628 -0.1811,0.66402 -0.18109,0.90548 -0.0201,1.40852 0.16097,0.48293 0.70426,0.48293 0.26159,0 0.58354,-0.22134 0.32194,-0.24147 0.6439,-0.62378 0.34207,-0.38231 0.66401,-0.86524 0.32195,-0.50304 0.58354,-1.00608 0.2817,-0.50305 0.48292,-0.98597 0.22134,-0.48292 0.32194,-0.86524 0.14086,-0.74451 0.18111,-1.16706 0.0402,-0.42256 -0.28171,-0.76463 z"
         style="font-family:Satisfy;-inkscape-font-specification:Satisfy;fill:#ffffff;stroke-width:0.428635"
         id="path1190" />
      <path
         d="m 109.3371,152.49767 q -0.14085,-0.0604 -0.28171,-0.1811 -0.12072,-0.1006 -0.24145,-0.26158 -0.12074,-0.14085 -0.20122,-0.36219 0.56341,-2.15304 0.96585,-3.74266 0.3823,-1.58962 0.66401,-2.65607 0.30183,-1.24755 0.52317,-2.09267 0.20122,-0.80487 0.40244,-1.60975 0.16097,-0.70426 0.34206,-1.50913 0.20122,-0.80487 0.3622,-1.50913 0.20122,-0.78475 0.24146,-1.24755 0.0402,-0.48293 -0.30182,-0.825 0.24145,-0.20122 0.48292,-0.30182 0.26158,-0.12073 0.4628,-0.16098 0.22134,-0.0603 0.44268,-0.0402 0.54329,0.0402 0.66401,0.34207 0.14086,0.30182 0.0402,0.96585 -0.0201,0.1006 -0.0402,0.18109 0,0.0603 0,0.14085 0.28171,-0.32194 0.62378,-0.62378 0.34207,-0.30183 0.68414,-0.54328 0.36219,-0.24147 0.72439,-0.38232 0.38231,-0.16097 0.72439,-0.16097 0.46279,0 0.7445,0.24146 0.30183,0.22134 0.4628,0.60365 0.16097,0.38232 0.20121,0.86524 0.0402,0.4628 0.0201,0.92561 -0.0201,0.50304 -0.18109,1.06645 -0.14086,0.56341 -0.40244,1.14694 -0.26159,0.58354 -0.60366,1.14694 -0.34207,0.56341 -0.72438,1.04634 0.0805,0.0201 0.10061,0.0402 0.0201,0 0.0201,0.0201 0,0 0.0201,0.0201 0.0402,0 0.14085,0 0.4628,0 0.94572,-0.24147 0.48292,-0.24145 0.94573,-0.60365 0.4628,-0.38231 0.88536,-0.82499 0.44268,-0.44268 0.78475,-0.84511 0.36219,-0.42256 0.60365,-0.74451 0.24146,-0.34208 0.36219,-0.48293 0.16098,-0.20122 0.30183,-0.26158 0.14085,-0.0805 0.22134,-0.0201 0.0805,0.0604 0.0805,0.24147 0,0.16097 -0.12072,0.42256 -0.0805,0.18109 -0.34207,0.58352 -0.26158,0.40245 -0.6439,0.90549 -0.38231,0.50304 -0.88536,1.04633 -0.48292,0.54329 -1.02621,0.98597 -0.54329,0.44268 -1.12682,0.72439 -0.56341,0.30182 -1.1067,0.30182 -0.26158,0 -0.42256,-0.0201 -0.16098,-0.0201 -0.2817,-0.0805 -0.10062,-0.0402 -0.20122,-0.1006 -0.10061,-0.0402 -0.24147,-0.10061 -0.36219,0.2817 -0.7445,0.42256 -0.38232,0.16097 -0.7445,0.16097 -0.34207,0 -0.60366,-0.12073 -0.24146,-0.10061 -0.40244,-0.30183 -0.16097,-0.18109 -0.26158,-0.40243 -0.10061,-0.24147 -0.16098,-0.46281 -0.0201,0.0805 -0.0402,0.14086 0,0.0604 -0.0201,0.16097 -0.24147,0.96585 -0.50305,2.23352 -0.22134,1.08658 -0.54328,2.63596 -0.30183,1.5695 -0.6439,3.56156 -0.12073,0.54328 -0.42256,0.62377 -0.32195,0.0805 -0.72438,-0.0805 z m 3.68229,-12.47551 q -0.10061,0.34207 -0.22134,0.80487 -0.10061,0.44268 -0.24146,1.06645 0.16098,-0.12072 0.36219,-0.18109 0.20122,-0.0604 0.40244,-0.0604 0.22134,0 0.56341,0.24146 0.34207,0.22135 0.82499,0.48293 0.30183,-0.3622 0.62378,-0.80488 0.34207,-0.4628 0.60365,-0.94572 0.2817,-0.48292 0.4628,-0.98597 0.20122,-0.50305 0.22135,-0.96585 0.0402,-0.60365 -0.14086,-0.94572 -0.1811,-0.34207 -0.60366,-0.34207 -0.62377,0 -1.36828,0.74451 -0.72439,0.72438 -1.48901,1.89145 z"
         style="font-family:Satisfy;-inkscape-font-specification:Satisfy;fill:#ffffff;stroke-width:0.428635"
         id="path1192" />
      <path
         d="m 127.50708,138.81485 q 0.0805,-0.12073 0.20122,-0.14086 0.14085,-0.0402 0.22134,0.0201 0.0805,0.0604 0.0805,0.20122 0.0201,0.14085 -0.10061,0.38231 -0.40243,0.76463 -1.06646,1.64999 -0.6439,0.88536 -1.36828,1.67011 -0.72438,0.76463 -1.40852,1.26767 -0.68414,0.50305 -1.14694,0.50305 -0.66402,0 -1.10671,-0.26159 -0.44267,-0.26158 -0.70425,-0.64389 -0.24147,-0.38232 -0.34208,-0.825 -0.10061,-0.4628 -0.0603,-0.84511 0.0201,-0.32195 0.14086,-1.14695 0.12073,-0.84511 0.32194,-1.93169 0.20122,-1.10669 0.44269,-2.35425 0.26158,-1.26767 0.54328,-2.43473 -0.34207,0.0402 -0.68414,0.0805 -0.34207,0.0402 -0.62377,0.0402 -0.6439,0 -1.20731,-0.14085 -0.58353,-0.16097 -0.86524,-0.30183 -0.16097,-0.0805 -0.14085,-0.22134 0.0201,-0.16098 0.12073,-0.30183 0.10061,-0.16097 0.26158,-0.26158 0.14085,-0.12073 0.26159,-0.12073 0.38231,0.0402 0.82499,0.0805 0.44268,0.0201 0.96585,0 0.38231,-0.0201 0.72438,-0.0603 0.36219,-0.0402 0.70426,-0.10062 0.26159,-0.96584 0.50305,-1.67011 0.26158,-0.72437 0.4628,-1.00608 0.0604,-0.10061 0.26159,-0.16098 0.22133,-0.0805 0.46279,-0.10061 0.24147,-0.0402 0.4628,0 0.22134,0.0201 0.32196,0.14085 0.1006,0.16098 0.0805,0.825 -0.0201,0.66402 -0.22135,1.69023 0.84512,0 1.48902,0.10061 0.66402,0.0805 1.12682,0.20122 0.4628,0.1006 0.74451,0.22134 0.2817,0.1006 0.42256,0.14085 0.14085,0.0402 0.14085,0.20122 0.0201,0.16097 -0.0604,0.34207 -0.0604,0.16098 -0.22134,0.2817 -0.16096,0.12073 -0.36218,0.0805 -0.20122,-0.0201 -0.46281,-0.0805 -0.24146,-0.0603 -0.60365,-0.10061 -0.34207,-0.0402 -0.82499,-0.0805 -0.48292,-0.0402 -1.12682,-0.0402 -0.12073,0 -0.28171,0.0201 -0.14085,0 -0.30183,0 -0.0805,0.32195 -0.16097,0.6439 -0.0604,0.30183 -0.1811,0.6439 -0.26158,0.80486 -0.60365,1.7506 -0.30183,0.82499 -0.72439,1.89144 -0.42256,1.06645 -0.94572,2.27377 -0.12073,0.86523 0.0201,1.32803 0.16097,0.44268 0.3823,0.6439 0.26159,0.22134 0.6439,0.24146 0.30183,0.0402 0.72439,-0.20122 0.44268,-0.26158 0.90548,-0.68414 0.4628,-0.42255 0.9256,-0.9256 0.48292,-0.50305 0.88537,-0.98597 0.40243,-0.48292 0.70426,-0.86523 0.30182,-0.40244 0.42255,-0.56341 z"
         style="font-family:Satisfy;-inkscape-font-specification:Satisfy;fill:#ffffff;stroke-width:0.428635"
         id="path1194" />
      <path
         d="m 132.25583,140.7063 q -0.20122,0.76463 -0.54329,1.42865 -0.34207,0.66401 -0.82499,1.14694 -0.46281,0.48292 -1.06646,0.7445 -0.58354,0.28171 -1.2878,0.28171 -0.82499,0 -1.30792,-0.36219 -0.46279,-0.34208 -0.70426,-0.86524 -0.22133,-0.52317 -0.26158,-1.14695 -0.0603,-0.62377 -0.0603,-1.16706 0,-0.38231 0.1006,-0.84512 0.0805,-0.46279 0.24147,-0.94572 0.16097,-0.48292 0.40243,-0.96584 0.26158,-0.48292 0.60365,-0.88536 0.12074,-0.34208 0.36219,-0.60366 0.26159,-0.26158 0.58354,-0.42256 0.34207,-0.18109 0.72438,-0.26158 0.38232,-0.10061 0.74451,-0.10061 0.0603,0 0.10061,0.0201 0.0604,0.0201 0.12073,0.0402 0.26158,0.0201 0.64389,0.20122 0.40245,0.18109 0.76463,0.54329 0.38232,0.36219 0.6439,0.9256 0.26158,0.54329 0.26158,1.32804 0,0.16097 -0.0201,0.40244 -0.0201,0.22134 -0.0402,0.38231 0.4628,-0.1811 0.96584,-0.44268 0.50305,-0.26158 0.96585,-0.54329 0.48292,-0.30183 0.88536,-0.60366 0.40244,-0.30182 0.64389,-0.54328 0.20122,-0.18109 0.34207,-0.20122 0.14086,-0.0201 0.20123,0.0805 0.0603,0.10061 0.0201,0.28171 -0.0402,0.18109 -0.22134,0.40243 -0.10061,0.12074 -0.52317,0.48292 -0.40243,0.3622 -0.96584,0.78475 -0.56341,0.42256 -1.22743,0.825 -0.66402,0.40244 -1.26767,0.60366 z m -3.40059,-3.05852 q -0.0603,0.1811 -0.0603,0.38232 0,0.32195 0.0402,0.68414 0.0402,0.34207 0.20122,0.62378 0.16097,0.2817 0.50304,0.48292 0.3622,0.18109 0.98597,0.18109 0.10061,0 0.20122,0 0.10061,-0.0201 0.20122,-0.0402 0.0603,-0.26159 0.10061,-0.4628 0.0603,-0.22135 0.0603,-0.38231 0.0402,-0.38232 0,-0.78476 -0.0402,-0.40243 -0.16097,-0.72438 -0.10061,-0.34207 -0.28171,-0.54329 -0.16097,-0.22134 -0.40243,-0.22134 -0.38231,0 -0.74451,0.22134 -0.34207,0.20122 -0.6439,0.58353 z m -1.2878,3.54144 q 0,0.36219 0.0402,0.72439 0.0402,0.34207 0.16098,0.62377 0.12073,0.26158 0.32195,0.44268 0.20121,0.16097 0.52316,0.16097 0.36219,0 0.66402,-0.16097 0.30183,-0.1811 0.54329,-0.44268 0.24147,-0.2817 0.42256,-0.62377 0.20121,-0.3622 0.34207,-0.74451 -0.14086,0.0201 -0.28171,0.0402 -0.12073,0 -0.2817,0 -0.76463,0 -1.32804,-0.44268 -0.54329,-0.4628 -0.84512,-1.16706 -0.12073,0.42256 -0.20122,0.82499 -0.0805,0.40244 -0.0805,0.76463 z"
         style="font-family:Satisfy;-inkscape-font-specification:Satisfy;fill:#ffffff;stroke-width:0.428635"
         id="path1196" />
      <path
         d="m 138.73505,152.49767 q -0.14085,-0.0604 -0.2817,-0.1811 -0.12073,-0.1006 -0.24147,-0.26158 -0.12073,-0.14085 -0.20122,-0.36219 0.56342,-2.15304 0.96585,-3.74266 0.38232,-1.58962 0.66402,-2.65607 0.30183,-1.24755 0.52317,-2.09267 0.20121,-0.80487 0.40243,-1.60975 0.16098,-0.70426 0.34208,-1.50913 0.20122,-0.80487 0.36218,-1.50913 0.20122,-0.78475 0.24147,-1.24755 0.0402,-0.48293 -0.30183,-0.825 0.24147,-0.20122 0.48292,-0.30182 0.26159,-0.12073 0.46281,-0.16098 0.22133,-0.0603 0.44267,-0.0402 0.54329,0.0402 0.66403,0.34207 0.14085,0.30182 0.0402,0.96585 -0.0201,0.1006 -0.0402,0.18109 0,0.0603 0,0.14085 0.2817,-0.32194 0.62377,-0.62378 0.34207,-0.30183 0.68414,-0.54328 0.3622,-0.24147 0.72439,-0.38232 0.38231,-0.16097 0.72438,-0.16097 0.4628,0 0.7445,0.24146 0.30183,0.22134 0.46281,0.60365 0.16097,0.38232 0.20122,0.86524 0.0402,0.4628 0.0201,0.92561 -0.0201,0.50304 -0.1811,1.06645 -0.14085,0.56341 -0.40243,1.14694 -0.26158,0.58354 -0.60365,1.14694 -0.34207,0.56341 -0.72439,1.04634 0.0805,0.0201 0.10061,0.0402 0.0201,0 0.0201,0.0201 0,0 0.0201,0.0201 0.0402,0 0.14085,0 0.46281,0 0.94573,-0.24147 0.48293,-0.24145 0.94572,-0.60365 0.4628,-0.38231 0.88536,-0.82499 0.44268,-0.44268 0.78475,-0.84511 0.3622,-0.42256 0.60365,-0.74451 0.24147,-0.34208 0.3622,-0.48293 0.16098,-0.20122 0.30183,-0.26158 0.14085,-0.0805 0.22134,-0.0201 0.0805,0.0604 0.0805,0.24147 0,0.16097 -0.12073,0.42256 -0.0805,0.18109 -0.34207,0.58352 -0.26159,0.40245 -0.6439,0.90549 -0.38232,0.50304 -0.88536,1.04633 -0.48293,0.54329 -1.02621,0.98597 -0.54329,0.44268 -1.12683,0.72439 -0.5634,0.30182 -1.10669,0.30182 -0.26159,0 -0.42256,-0.0201 -0.16097,-0.0201 -0.28171,-0.0805 -0.1006,-0.0402 -0.20122,-0.1006 -0.1006,-0.0402 -0.24145,-0.10061 -0.3622,0.2817 -0.74451,0.42256 -0.38231,0.16097 -0.74451,0.16097 -0.34207,0 -0.60365,-0.12073 -0.24147,-0.10061 -0.40243,-0.30183 -0.16098,-0.18109 -0.26159,-0.40243 -0.10061,-0.24147 -0.16097,-0.46281 -0.0201,0.0805 -0.0402,0.14086 0,0.0604 -0.0201,0.16097 -0.24145,0.96585 -0.50304,2.23352 -0.22133,1.08658 -0.54329,2.63596 -0.30182,1.5695 -0.6439,3.56156 -0.12073,0.54328 -0.42255,0.62377 -0.32195,0.0805 -0.72439,-0.0805 z m 3.68229,-12.47551 q -0.10061,0.34207 -0.22134,0.80487 -0.10061,0.44268 -0.24146,1.06645 0.16097,-0.12072 0.36219,-0.18109 0.20122,-0.0604 0.40244,-0.0604 0.22133,0 0.5634,0.24146 0.34208,0.22135 0.825,0.48293 0.30183,-0.3622 0.62378,-0.80488 0.34207,-0.4628 0.60365,-0.94572 0.28171,-0.48292 0.4628,-0.98597 0.20122,-0.50305 0.22134,-0.96585 0.0402,-0.60365 -0.14085,-0.94572 -0.18109,-0.34207 -0.60365,-0.34207 -0.62378,0 -1.36829,0.74451 -0.72438,0.72438 -1.48901,1.89145 z"
         style="fill:#16a34a;stroke-width:0.428635"
         id="path1198" />
      <path
         d="m 149.17826,143.58372 q 0.88536,-3.72254 1.40853,-5.97618 0.54329,-2.25364 0.82499,-3.44083 0.32195,-1.40852 0.44268,-1.95181 0.0604,-0.38231 0.10061,-0.7445 0.0402,-0.32196 0.0402,-0.66403 0,-0.34207 -0.0603,-0.62377 0.16097,-0.10061 0.34206,-0.16097 0.20122,-0.0604 0.38232,-0.10062 0.22135,-0.0603 0.44268,-0.10061 0.22134,-0.0402 0.40244,-0.0402 0.16097,0 0.30182,0.0402 0.14085,0.0201 0.1811,0.12074 0.12073,0.1006 0.10061,0.40243 0,0.30183 -0.0402,0.62378 -0.0805,0.38231 -0.1811,0.82499 -0.24146,0.86524 -0.66402,2.4951 -0.36219,1.38841 -0.98597,3.7829 -0.60365,2.3945 -1.52926,6.03654 -0.10061,0.10061 -0.24146,0.14085 -0.14085,0.0402 -0.26158,0.0402 -0.14086,0 -0.30183,-0.0201 -0.14085,-0.0402 -0.2817,-0.12073 -0.12074,-0.0805 -0.24146,-0.22134 -0.12073,-0.12073 -0.1811,-0.34207 z"
         style="fill:#16a34a;stroke-width:0.428635"
         id="path1200" />
      <path
         d="m 164.30985,139.90143 q -0.28171,0.40243 -0.72439,1.00608 -0.44268,0.58354 -0.9256,1.18719 -0.4628,0.58354 -0.9256,1.08658 -0.44268,0.48292 -0.74451,0.68414 -0.20122,0.12073 -0.4628,0.20122 -0.26158,0.0805 -0.54329,0.1006 -0.26159,0.0201 -0.50304,-0.0402 -0.24147,-0.0402 -0.42256,-0.16097 -0.1811,-0.14086 -0.30183,-0.40244 -0.10061,-0.22134 -0.20122,-0.58353 -0.0805,-0.3622 -0.0603,-0.90548 -0.48293,0.80487 -1.06646,1.24755 -0.58353,0.42256 -1.1067,0.62377 -0.60365,0.22134 -1.20731,0.26159 -0.2817,0 -0.60365,-0.20122 -0.32195,-0.1811 -0.54329,-0.58353 -0.22134,-0.42256 -0.2817,-1.06646 -0.0603,-0.66401 0.16097,-1.56949 0.28171,-1.22744 0.88536,-2.23352 0.62378,-1.0061 1.34816,-1.71036 0.72438,-0.72438 1.42865,-1.08658 0.70426,-0.36219 1.16706,-0.32194 0.54329,0.1006 0.88536,0.32194 0.28171,0.20122 0.36219,0.60365 0.10061,0.38232 -0.32195,1.02622 0.28171,-0.0604 0.4628,-0.0805 0.20122,-0.0201 0.30183,-0.0201 0.12073,0 0.16098,0.0201 0.0201,0.0402 0.0201,0.1811 0,0.12073 -0.0603,0.4628 -0.0603,0.34206 -0.18109,0.9256 -0.12074,0.58354 -0.32196,1.50913 -0.0402,0.1811 -0.0805,0.34207 -0.0201,0.14085 -0.0603,0.30183 -0.0201,0.14086 -0.0604,0.34207 -0.0402,0.20122 -0.10061,0.50305 -0.0201,0.18109 -0.0201,0.40243 0.0201,0.20122 0.0805,0.38232 0.0604,0.18109 0.1811,0.30182 0.14085,0.10062 0.38231,0.10062 0.20122,0 0.52317,-0.24147 0.32195,-0.26158 0.68414,-0.64389 0.36219,-0.40244 0.7445,-0.86524 0.40244,-0.48292 0.74451,-0.92561 0.34208,-0.44267 0.60366,-0.78474 0.2817,-0.34208 0.40243,-0.50305 0.16098,-0.1811 0.32195,-0.20121 0.16097,-0.0402 0.24146,0.0805 0.0805,0.12073 0.0201,0.36219 -0.0402,0.24146 -0.28171,0.56341 z m -5.89569,0.88536 q 0.10061,-0.40244 0.24146,-0.94573 0.14086,-0.54329 0.24146,-1.04633 0.10061,-0.50305 0.14085,-0.825 0.0604,-0.34207 -0.0201,-0.32195 -0.10061,0.0201 -0.22134,0.0603 -0.10062,0.0402 -0.26159,0.0604 -0.16097,0.0201 -0.32195,0.0603 0.16098,-0.32195 0.1811,-0.52316 0.0402,-0.22135 0.0201,-0.34207 -0.0201,-0.14086 -0.0805,-0.22135 -0.22134,-0.18109 -0.78475,0.30183 -0.54329,0.4628 -1.26767,1.73048 -0.30183,0.52316 -0.48292,1.12682 -0.1811,0.58353 -0.26159,1.1067 -0.0603,0.52316 -0.0201,0.92559 0.0402,0.38232 0.16097,0.50305 0.22134,0.22134 0.50305,0.22134 0.2817,-0.0201 0.56341,-0.16098 0.30182,-0.16096 0.58353,-0.40243 0.30183,-0.24146 0.52317,-0.50305 0.24146,-0.26158 0.38231,-0.48292 0.16097,-0.22134 0.1811,-0.32194 z"
         style="fill:#16a34a;stroke-width:0.428635"
         id="path1202" />
      <path
         d="m 168.93787,144.40871 q -0.4628,0 -0.80488,-0.1811 -0.32195,-0.16097 -0.52316,-0.44268 -0.20122,-0.2817 -0.26158,-0.6439 -0.0604,-0.38231 0.0402,-0.80486 0.0604,-0.28171 0.20122,-0.74452 0.14085,-0.48292 0.2817,-1.02621 0.16098,-0.56341 0.2817,-1.10669 0.14086,-0.56341 0.18111,-1.0061 0.0402,-0.4628 -0.0402,-0.7445 -0.0805,-0.30183 -0.34207,-0.30183 -0.32195,0 -0.66402,0.22134 -0.34207,0.20122 -0.70426,0.56341 -0.34207,0.3622 -0.70427,0.84512 -0.34207,0.4628 -0.68414,0.96584 -0.1811,0.68414 -0.30183,1.20731 -0.12072,0.50305 -0.22134,0.92561 -0.0805,0.40243 -0.16097,0.72438 -0.0805,0.30183 -0.14085,0.58353 -0.0604,0.20122 -0.36219,0.40244 -0.30183,0.18109 -0.6439,0.30183 -0.34207,0.12073 -0.58354,0.12073 -0.26158,0 -0.22133,-0.1811 0.0201,-0.12073 0.14085,-0.54329 0.10061,-0.42256 0.26158,-0.98597 0.14086,-0.58353 0.30183,-1.22743 0.16097,-0.6439 0.30182,-1.22742 0.10062,-0.46281 0.22135,-1.02622 0.1006,-0.48292 0.24145,-1.12681 0.16098,-0.6439 0.3622,-1.40853 0.14085,-0.12073 0.2817,-0.1811 0.16098,-0.0805 0.32196,-0.12073 0.16096,-0.0603 0.34207,-0.0805 0.16096,0 0.32194,0.0201 0.14085,0.0201 0.28171,0.0805 0.16098,0.0402 0.2817,0.14085 -0.0603,0.14086 -0.14085,0.40244 -0.0805,0.24146 -0.16098,0.52317 -0.0805,0.32194 -0.20121,0.66401 0.26158,-0.36219 0.58353,-0.72438 0.34207,-0.38231 0.72438,-0.68414 0.40244,-0.30182 0.84512,-0.48293 0.44268,-0.20121 0.90548,-0.20121 0.38232,0 0.68414,0.22134 0.30183,0.22134 0.46281,0.62377 0.18109,0.38232 0.20121,0.92561 0.0402,0.54329 -0.14085,1.18719 l -0.22134,0.88535 q -0.10061,0.42256 -0.26158,1.00609 -0.14086,0.56341 -0.3622,1.24755 -0.12073,0.44268 -0.10061,0.76463 0.0402,0.32195 0.40244,0.32195 0.36219,0 0.90548,-0.44268 0.56341,-0.44268 1.12682,-1.06645 0.56341,-0.62378 1.06646,-1.26768 0.50304,-0.66402 0.76462,-1.06645 0.1811,-0.26159 0.34207,-0.34207 0.16098,-0.0805 0.24147,-0.0201 0.1006,0.0604 0.1006,0.28171 0,0.20121 -0.16096,0.52317 -0.14086,0.2817 -0.44269,0.7445 -0.2817,0.4628 -0.68414,0.98597 -0.40243,0.52316 -0.86524,1.06645 -0.4628,0.52317 -0.96584,0.96585 -0.50305,0.42256 -1.00609,0.68414 -0.48292,0.28171 -0.9256,0.28171 z"
         style="fill:#16a34a;stroke-width:0.428635"
         id="path1204" />
      <path
         d="m 179.90424,138.81485 q 0.0805,-0.12073 0.20122,-0.14086 0.14085,-0.0402 0.22134,0.0201 0.0805,0.0604 0.0805,0.20122 0.0201,0.14085 -0.1006,0.38231 -0.40244,0.76463 -1.06646,1.64999 -0.6439,0.88536 -1.36828,1.67011 -0.72439,0.76463 -1.40853,1.26767 -0.68414,0.50305 -1.14693,0.50305 -0.66403,0 -1.10671,-0.26159 -0.44268,-0.26158 -0.70426,-0.64389 -0.24146,-0.38232 -0.34207,-0.825 -0.10061,-0.4628 -0.0604,-0.84511 0.0201,-0.32195 0.14085,-1.14695 0.12073,-0.84511 0.32196,-1.93169 0.20121,-1.10669 0.44267,-2.35425 0.26158,-1.26767 0.54329,-2.43473 -0.34207,0.0402 -0.68414,0.0805 -0.34207,0.0402 -0.62378,0.0402 -0.6439,0 -1.2073,-0.14085 -0.58353,-0.16097 -0.86524,-0.30183 -0.16098,-0.0805 -0.14085,-0.22134 0.0201,-0.16098 0.12072,-0.30183 0.10062,-0.16097 0.26159,-0.26158 0.14085,-0.12073 0.26159,-0.12073 0.38231,0.0402 0.82499,0.0805 0.44268,0.0201 0.96584,0 0.38232,-0.0201 0.72439,-0.0603 0.36219,-0.0402 0.70426,-0.10062 0.26159,-0.96584 0.50304,-1.67011 0.26159,-0.72437 0.46281,-1.00608 0.0603,-0.10061 0.26158,-0.16098 0.22134,-0.0805 0.4628,-0.10061 0.24147,-0.0402 0.46281,0 0.22133,0.0201 0.32194,0.14085 0.10061,0.16098 0.0805,0.825 -0.0201,0.66402 -0.22134,1.69023 0.84512,0 1.48902,0.10061 0.66401,0.0805 1.12682,0.20122 0.4628,0.1006 0.7445,0.22134 0.28171,0.1006 0.42256,0.14085 0.14085,0.0402 0.14085,0.20122 0.0201,0.16097 -0.0603,0.34207 -0.0604,0.16098 -0.22134,0.2817 -0.16098,0.12073 -0.3622,0.0805 -0.20121,-0.0201 -0.46279,-0.0805 -0.24147,-0.0603 -0.60366,-0.10061 -0.34207,-0.0402 -0.825,-0.0805 -0.48292,-0.0402 -1.12682,-0.0402 -0.12073,0 -0.2817,0.0201 -0.14086,0 -0.30182,0 -0.0805,0.32195 -0.16098,0.6439 -0.0603,0.30183 -0.18109,0.6439 -0.26159,0.80486 -0.60366,1.7506 -0.30183,0.82499 -0.72438,1.89144 -0.42256,1.06645 -0.94573,2.27377 -0.12073,0.86523 0.0201,1.32803 0.16098,0.44268 0.38232,0.6439 0.26158,0.22134 0.64389,0.24146 0.30183,0.0402 0.72439,-0.20122 0.44268,-0.26158 0.90548,-0.68414 0.4628,-0.42255 0.9256,-0.9256 0.48293,-0.50305 0.88536,-0.98597 0.40244,-0.48292 0.70427,-0.86523 0.30182,-0.40244 0.42255,-0.56341 z"
         style="fill:#16a34a;stroke-width:0.428635"
         id="path1206" />
    </g>
  </g>
</svg>
