<?xml version="1.0" encoding="UTF-8" standalone="no"?>
<!-- Created with Inkscape (http://www.inkscape.org/) -->

<svg
   width="586.84583mm"
   height="89.693726mm"
   viewBox="0 0 586.84583 89.693725"
   version="1.1"
   id="svg5"
   inkscape:version="1.2 (dc2aedaf03, 2022-05-15)"
   sodipodi:docname="Page 2.svg"
   inkscape:export-filename="assets/dark/assets.svg"
   inkscape:export-xdpi="300"
   inkscape:export-ydpi="300"
   xmlns:inkscape="http://www.inkscape.org/namespaces/inkscape"
   xmlns:sodipodi="http://sodipodi.sourceforge.net/DTD/sodipodi-0.dtd"
   xmlns="http://www.w3.org/2000/svg"
   xmlns:svg="http://www.w3.org/2000/svg">
  <sodipodi:namedview
     id="namedview7"
     pagecolor="#000000"
     bordercolor="#999999"
     borderopacity="1"
     inkscape:showpageshadow="0"
     inkscape:pageopacity="1"
     inkscape:pagecheckerboard="0"
     inkscape:deskcolor="#d1d1d1"
     inkscape:document-units="mm"
     showgrid="false"
     inkscape:zoom="0.60234445"
     inkscape:cx="983.65644"
     inkscape:cy="4.1504491"
     inkscape:window-width="1920"
     inkscape:window-height="1018"
     inkscape:window-x="0"
     inkscape:window-y="30"
     inkscape:window-maximized="1"
     inkscape:current-layer="layer1" />
  <defs
     id="defs2" />
  <g
     inkscape:label="Layer 1"
     inkscape:groupmode="layer"
     id="layer1"
     transform="translate(219.78472,-1117.5009)">
    <g
       id="g421"
       transform="translate(-20.105228,429.59326)">
      <path
         d="m -70.800932,705.83499 q -0.944456,3.77787 -2.140774,7.24084 -1.133355,3.40009 -2.392635,6.42236 -1.196318,2.95932 -2.455598,5.41489 -1.196318,2.45563 -2.140774,4.28157 -0.629643,4.53342 0,7.30383 0.629637,2.77041 2.455598,2.77041 1.511137,0 2.959304,-1.38523 1.448174,-1.38518 2.581529,-3.40004 1.13335,-2.01486 1.888918,-4.28157 0.818537,-2.32964 1.00743,-4.15558 -1.196318,-0.31497 -2.014854,-1.0704 -0.818531,-0.81854 -0.818531,-2.14078 0,-0.88148 0.5037,-1.63709 0.5037,-0.81854 1.196318,-1.38517 0.692605,-0.56657 1.511136,-0.88154 0.818531,-0.31496 1.511136,-0.31496 1.070387,0 1.825955,1.38517 0.755574,1.32225 1.00743,3.4001 2.518561,-0.0627 5.288977,-0.75561 2.770417,-0.69256 5.226015,-1.76295 0.692606,-0.31497 1.133349,-0.18886 0.440768,0.12611 0.566693,0.50382 0.188918,0.37772 0,0.88154 -0.188918,0.44046 -0.755568,0.69256 -1.448174,0.81854 -3.022273,1.51116 -1.511142,0.62962 -3.022278,1.07039 -1.511137,0.44107 -2.896342,0.69262 -1.385211,0.2516 -2.51856,0.2516 -0.25185,2.51856 -1.574105,5.47789 -1.322243,2.89634 -3.211167,5.4149 -1.888917,2.45557 -4.21859,4.09265 -2.266704,1.63709 -4.470446,1.63709 -0.692606,0 -1.825955,-0.18886 -1.133355,-0.18886 -2.203742,-1.32224 -1.070387,-1.13339 -1.825955,-3.58896 -0.755568,-2.51856 -0.629643,-7.11491 0.06293,-3.08525 0.692606,-6.54828 0.629637,-3.46303 1.511136,-6.92606 0.881499,-3.46303 1.951886,-6.6742 1.133349,-3.27412 2.140779,-5.85561 1.007425,-2.64448 1.825955,-4.40749 0.881493,-1.76301 1.322243,-2.26671 0.566693,-0.69262 1.322249,-1.0074 0.755568,-0.37772 1.448167,-0.50383 0.755569,-0.18885 1.385212,-0.1261 0.629637,0.0628 0.881493,0.18885 0.377775,0.25161 0.188918,2.77041 -0.125925,2.51856 -1.196318,6.48529 z"
         style="font-size:10.5833px;line-height:1.25;font-family:Satisfy;-inkscape-font-specification:Satisfy;fill:#ffffff;stroke-width:1.61188"
         id="path3095" />
      <path
         d="m -50.652436,742.92084 q -2.392636,0 -3.903772,-0.75561 -1.511136,-0.75555 -2.392636,-1.82594 -0.81853,-1.13333 -1.196317,-2.39264 -0.314843,-1.32224 -0.314843,-2.39263 0,-1.88894 0.314843,-3.96673 0.314843,-2.14079 0.755568,-3.9038 0.440768,-1.82594 0.755568,-3.08519 0.377775,-1.25931 0.5037,-1.57409 0.566693,-1.82601 1.448174,-3.14825 0.944461,-1.38517 2.581529,-1.88894 0.629637,-0.1261 1.322242,-0.2516 0.566693,-0.0627 1.133356,-0.0627 0.629637,0 1.133349,0.18886 -1.70003,4.34456 -2.707454,7.2409 -0.944462,2.89633 -1.448174,4.72227 -0.566693,2.07786 -0.6926,3.33711 -0.314842,2.8334 0.5037,4.28157 0.818531,1.44817 3.337092,1.44817 1.637067,0 3.148203,-1.19632 1.511136,-1.25931 2.770417,-3.21118 -0.188918,-1.0074 -0.188918,-2.07779 0,-2.01486 0.314843,-3.9038 0.377775,-1.95187 0.818536,-3.58895 0.5037,-1.70002 1.007425,-3.02226 0.566692,-1.32225 0.944461,-2.0778 0.6926,-1.51116 1.259281,-1.826 0.566692,-0.37771 1.825954,-0.44046 0.5037,-0.0628 0.818531,0 0.377775,0 0.629643,0.0627 0.755568,0.18885 0.755568,0.75561 0,1.0074 -0.125925,3.02226 -0.125925,2.01486 -0.755568,4.15564 -0.440768,1.76295 -0.881493,3.02226 -0.377775,1.19632 -0.755568,2.0778 -0.377775,0.81854 -0.755568,1.38523 -0.377775,0.50382 -0.692606,0.94447 0.125925,1.88888 0.314843,3.02226 0.188918,1.13333 0.440768,1.76295 0.314843,0.56657 0.692606,0.81854 0.440767,0.18886 0.944461,0.18886 0.881493,0 2.077811,-0.81854 1.196318,-0.88148 2.455598,-2.14079 1.322243,-1.32224 2.581523,-2.83334 1.322249,-1.57415 2.392636,-2.95933 1.070386,-1.38523 1.825954,-2.39263 0.755569,-1.0704 0.944462,-1.32225 0.440768,-0.56657 0.818531,-0.69261 0.440768,-0.12611 0.692605,0.1261 0.25185,0.18886 0.25185,0.69262 0.06293,0.44107 -0.25185,1.0074 -1.25928,2.39264 -3.148203,5.10011 -1.825955,2.64449 -3.966734,4.9112 -2.077811,2.26671 -4.218591,3.77781 -2.140773,1.51116 -4.029697,1.51116 -1.700029,0 -2.707454,-1.13338 -0.944455,-1.19626 -1.637061,-3.40004 -1.448174,2.26671 -3.40006,3.52602 -1.951886,1.19632 -4.344515,1.19632 z"
         style="font-size:10.5833px;line-height:1.25;font-family:Satisfy;-inkscape-font-specification:Satisfy;fill:#ffffff;stroke-width:1.61188"
         id="path3097" />
      <path
         d="m -11.677699,718.74264 q 0.818531,-0.62963 1.574099,-0.94447 0.8185364,-0.37772 1.4481735,-0.50382 0.6926057,-0.18886 1.3852113,-0.12611 1.7000299,0.12611 2.0778109,1.07039 0.4407679,0.94441 0.125925,3.02226 -0.1889179,1.07039 -0.7555682,2.70742 -0.5666928,1.63708 -1.3222488,4.02972 -0.7555681,2.32964 -1.6370612,5.35196 -0.8185368,3.02226 -1.5741045,6.80007 -0.755569,3.08526 -1.637062,7.11498 -0.755568,3.52596 -1.825961,8.50015 -1.007424,4.97413 -2.203735,11.39648 -0.314843,1.5741 -1.385212,1.82595 -1.007424,0.2516 -2.140779,-0.25161 -0.440768,-0.25161 -0.818531,-0.56657 -0.314843,-0.31497 -0.692606,-0.75555 -0.377774,-0.37772 -0.629637,-1.07039 1.448174,-5.28898 2.518561,-9.63348 1.133349,-4.34456 2.014848,-7.55568 0.944462,-3.71488 1.762993,-6.67421 0.314843,-1.32224 0.566692,-2.58155 0.314843,-1.32224 0.629644,-2.58149 -0.818531,1.32224 -1.762993,2.51856 -0.944461,1.19632 -2.077817,2.07779 -1.133349,0.88148 -2.455592,1.32224 -1.259286,0.50383 -2.644491,0.31497 -3.40006,-0.44107 -4.848234,-2.51856 -1.385205,-2.07786 -1.196311,-5.4149 0.06299,-1.32224 0.377775,-2.89639 0.314843,-1.5741 0.692605,-3.02227 0.377775,-1.44816 0.692606,-2.58149 0.377775,-1.19632 0.566693,-1.70008 0.755568,-2.39257 1.070386,-4.09265 0.377775,-1.70002 -0.503699,-2.83334 0.881499,-0.56657 1.637067,-0.75561 0.818531,-0.25161 1.448174,-0.37772 0.692599,-0.0627 1.385205,0 1.70003,0.25161 1.951886,1.25931 0.314843,1.0074 -0.188918,3.02226 -0.25185,1.0704 -0.818531,2.77041 -0.566693,1.63709 -1.196317,3.40004 -0.629638,1.76301 -1.13335,3.27417 -0.5037,1.44817 -0.566692,2.07779 -0.566693,2.83341 -0.06293,4.4075 0.5037,1.5111 2.203742,1.5111 0.818531,0 1.825955,-0.69256 1.007424,-0.75561 2.014849,-1.95193 1.070392,-1.19631 2.077817,-2.70741 1.007424,-1.5741 1.825954,-3.14819 0.8815,-1.57415 1.511137,-3.08525 0.692605,-1.51116 1.007424,-2.70748 0.440768,-2.32964 0.566693,-3.65189 0.125925,-1.32224 -0.881499,-2.39263 z"
         style="font-size:10.5833px;line-height:1.25;font-family:Satisfy;-inkscape-font-specification:Satisfy;fill:#ffffff;stroke-width:1.61188"
         id="path3099" />
      <path
         d="m 27.297038,739.01704 q 0,-1.32224 0.25185,-3.02226 0.314843,-1.70001 0.755568,-3.46302 0.440768,-1.82595 0.881493,-3.52603 0.440768,-1.70001 0.755569,-3.02226 0.377774,-1.63702 -0.06299,-2.51856 -0.440768,-0.88147 -1.511137,-0.88147 -0.5037,0 -2.014848,0.88147 -1.448174,0.88154 -3.211166,3.08526 -1.70003,2.14078 -3.40006,5.85566 -1.637061,3.65189 -2.581523,9.31869 -1.196318,0.62963 -2.266704,0.81848 -0.566693,0.12611 -1.007425,0.18886 -1.25928,0.0628 -1.637067,-0.44107 -0.377775,-0.44046 0.125925,-2.26671 0.25185,-0.88148 0.881493,-2.83334 0.692606,-1.95193 1.322243,-4.21858 0.629643,-2.32971 1.070393,-4.59642 0.5037,-2.32964 0.5037,-4.02966 0,-1.19631 -0.440768,-1.63708 -0.377775,-0.44107 -1.133356,-0.44107 -0.566692,0 -1.888917,0.62962 -1.322243,0.62969 -2.9593099,2.45563 -1.6370674,1.82594 -3.2741287,5.10005 -1.5741048,3.21118 -2.707454,8.37423 v -0.12611 q -0.125925,0.50382 -0.25185,1.00746 -0.125925,0.44046 -0.1889179,0.94447 -0.062993,0.50382 -0.1889179,0.9444 l -3.1481976,1.38524 q -0.3148429,0.12611 -0.81853672,0.18886 -0.44076788,0.0627 -0.88149308,-0.18886 -0.377775,-0.18886 -0.5666929,-0.88148 -0.1889179,-0.69261 0.125925,-2.07785 l 3.9667343,-16.4336 q 0.1889179,-0.81855 0.3148429,-1.5741 0.1259249,-0.69262 0.1259249,-1.32224 0.062993,-0.69262 -0.062993,-1.13332 1.0703867,-0.50383 1.8889173,-0.75562 0.8185306,-0.2516 1.3222427,-0.37771 0.6296432,-0.18886 1.0703928,-0.18886 2.0148484,0 1.3222427,3.46297 -0.2518499,1.00746 -0.7555681,2.95933 1.1963178,-1.5111 2.5185605,-2.83334 1.3852117,-1.38524 2.7704167,-2.45563 1.385211,-1.07039 2.770416,-1.70002 1.448174,-0.62962 2.833386,-0.62962 1.070386,0 1.762992,0.62962 0.755568,0.62963 1.133355,1.70002 0.440768,1.0074 0.5037,2.45563 0.06293,1.38517 -0.125925,2.89633 1.007424,-1.32224 2.203742,-2.64448 1.25928,-1.38524 2.581523,-2.45563 1.385211,-1.07039 2.833385,-1.76301 1.448174,-0.69256 2.896342,-0.69256 1.70003,0 2.581529,1.0074 0.944461,1.0074 1.25928,2.58155 0.377775,1.5741 0.188918,3.40004 -0.125925,1.82594 -0.5037,3.52596 l -2.140779,8.50015 q -0.692606,3.14825 1.322242,3.14825 1.574105,0 3.463022,-1.51117 1.888924,-1.51116 3.651916,-3.58895 1.825955,-2.07779 3.40006,-4.28157 1.574099,-2.20372 2.644485,-3.52596 0.377775,-0.44107 0.755569,-0.50382 0.440767,-0.0627 0.692605,0.18886 0.314843,0.18885 0.314843,0.69261 0.06299,0.50382 -0.314843,1.25931 -1.25928,2.20372 -3.085235,4.9112 -1.825961,2.64449 -4.029697,4.97413 -2.140779,2.32964 -4.596377,3.90379 -2.455598,1.5741 -5.10009,1.5741 -0.881493,0 -1.762992,-0.18886 -0.818531,-0.18886 -1.574099,-0.69262 -0.692605,-0.50382 -1.133355,-1.32224 -0.440768,-0.88148 -0.440768,-2.20372 z"
         style="font-size:10.5833px;line-height:1.25;font-family:Satisfy;-inkscape-font-specification:Satisfy;fill:#ffffff;stroke-width:1.61188"
         id="path3101" />
      <path
         d="m 72.757064,728.81688 q -1.888917,2.77041 -4.281553,5.41489 -2.392635,2.58156 -5.100089,4.65935 -2.644486,2.01486 -5.477871,3.27411 -2.770416,1.25931 -5.414908,1.25931 -1.385205,0 -3.022273,-0.69262 -1.574098,-0.62962 -2.896341,-2.01486 -1.322249,-1.38517 -2.14078,-3.58895 -0.755568,-2.20372 -0.440767,-5.3519 0.25185,-2.58156 1.574104,-5.41496 1.385206,-2.89634 3.337092,-5.28897 2.014848,-2.39264 4.470446,-3.96673 2.51856,-1.57409 5.037121,-1.57409 2.392635,0 3.463022,1.19631 1.070393,1.19632 0.944462,2.95933 -0.188918,1.95187 -1.133349,3.58896 -0.8815,1.63702 -2.14078,2.95926 -1.25928,1.32225 -2.707454,2.39264 -1.385211,1.07039 -2.644491,1.95193 -1.385206,0.9444 -2.644486,1.82594 -1.25928,0.81854 -2.203742,1.5111 0.06299,1.57415 0.566693,2.64449 0.5037,1.07039 1.25928,1.76301 0.755568,0.62962 1.70003,0.94446 1.007424,0.25161 2.014849,0.25161 2.140779,0 4.470446,-1.32224 2.329673,-1.38518 4.533409,-3.27411 2.26671,-1.95187 4.155628,-4.02972 1.951886,-2.0778 3.211166,-3.58896 0.440768,-0.50382 0.881499,-0.56657 0.5037,-0.12611 0.755568,0.12611 0.314843,0.18886 0.314843,0.75555 0,0.50382 -0.440768,1.19632 z m -16.118793,-9.69647 q -0.755568,0 -1.825955,0.75555 -1.007424,0.75561 -2.014848,2.20378 -1.007425,1.38517 -1.888924,3.46303 -0.881493,2.0148 -1.322242,4.65928 0.755568,-0.56657 1.637061,-1.13332 0.881499,-0.62963 1.762998,-1.32225 2.707448,-2.07779 3.777841,-3.65194 1.070387,-1.57409 1.196318,-2.70742 0.125925,-1.19632 -0.25185,-1.70002 -0.377775,-0.56657 -1.070393,-0.56657 z"
         style="font-size:10.5833px;line-height:1.25;font-family:Satisfy;-inkscape-font-specification:Satisfy;fill:#ffffff;stroke-width:1.61188"
         id="path3103" />
      <path
         d="m 100.52421,729.38357 q -0.881499,1.25925 -2.266704,3.14819 -1.385212,1.82594 -2.896348,3.71487 -1.448174,1.82595 -2.896341,3.40004 -1.385212,1.51116 -2.329673,2.14078 -0.629637,0.37772 -1.448174,0.62963 -0.818531,0.25161 -1.700024,0.31496 -0.818537,0.0628 -1.574105,-0.1261 -0.755568,-0.12611 -1.322243,-0.50383 -0.566692,-0.44107 -0.944461,-1.25931 -0.314843,-0.69261 -0.629637,-1.82594 -0.25185,-1.13338 -0.188918,-2.8334 -1.511137,2.51856 -3.337097,3.90379 -1.825955,1.32225 -3.463023,1.95187 -1.888917,0.69262 -3.77784,0.81854 -0.881494,0 -1.888918,-0.62962 -1.007424,-0.56657 -1.70003,-1.82594 -0.692605,-1.32231 -0.881499,-3.33711 -0.188918,-2.07785 0.5037,-4.91119 0.881499,-3.84081 2.770417,-6.98905 1.951886,-3.14819 4.21859,-5.3519 2.266704,-2.26672 4.470446,-3.4001 2.203742,-1.13333 3.651916,-1.0074 1.70003,0.31496 2.770417,1.0074 0.881499,0.62968 1.133355,1.88893 0.314843,1.19632 -1.007424,3.21118 0.881493,-0.18885 1.448174,-0.2516 0.629637,-0.0627 0.944455,-0.0627 0.377775,0 0.5037,0.0627 0.06299,0.1261 0.06299,0.56657 0,0.37771 -0.188918,1.44817 -0.188918,1.07039 -0.566693,2.89633 -0.377775,1.82594 -1.007424,4.72228 -0.125925,0.56657 -0.25185,1.07039 -0.06299,0.44107 -0.188918,0.94447 -0.06293,0.44107 -0.188918,1.07039 -0.125925,0.62963 -0.314843,1.5741 -0.06299,0.56657 -0.06299,1.25931 0.06299,0.62962 0.25185,1.19631 0.188918,0.56657 0.566693,0.94441 0.440768,0.31497 1.196318,0.31497 0.629637,0 1.637061,-0.75555 1.007424,-0.81855 2.14078,-2.01487 1.133349,-1.25931 2.329667,-2.70747 1.25928,-1.5111 2.329673,-2.89634 1.070386,-1.38517 1.888917,-2.45557 0.881499,-1.07039 1.25928,-1.57409 0.503704,-0.56657 1.007424,-0.62969 0.5037,-0.1261 0.75557,0.25161 0.25185,0.37772 0.063,1.13339 -0.12592,0.75555 -0.8815,1.76301 z m -18.44846,2.77041 q 0.314843,-1.25931 0.755568,-2.95933 0.440768,-1.70002 0.755568,-3.27411 0.314843,-1.57409 0.440768,-2.58155 0.188918,-1.07039 -0.06299,-1.0074 -0.314843,0.0628 -0.692599,0.18886 -0.314843,0.1261 -0.818537,0.18885 -0.5037,0.0628 -1.007424,0.18886 0.5037,-1.0074 0.566693,-1.63703 0.125925,-0.69261 0.06293,-1.07039 -0.06293,-0.44107 -0.25185,-0.69262 -0.692606,-0.56657 -2.455598,0.94447 -1.70003,1.44817 -3.966735,5.4149 -0.944461,1.63708 -1.511136,3.52602 -0.566693,1.82594 -0.818537,3.46297 -0.188918,1.63708 -0.06293,2.89639 0.125925,1.19632 0.5037,1.5741 0.692606,0.69261 1.574105,0.69261 0.881493,-0.0628 1.762993,-0.50382 0.944461,-0.50382 1.825954,-1.25925 0.944462,-0.75555 1.637068,-1.57409 0.755568,-0.81854 1.196311,-1.51116 0.5037,-0.69262 0.566693,-1.0074 z"
         style="font-size:10.5833px;line-height:1.25;font-family:Satisfy;-inkscape-font-specification:Satisfy;fill:#ffffff;stroke-width:1.61188"
         id="path3105" />
      <path
         d="m 107.0095,739.77259 q 1.95188,0 4.28155,-1.5111 2.39264,-1.57409 4.59638,-3.65194 2.2667,-2.07779 4.09266,-4.21858 1.88892,-2.20372 2.83338,-3.52596 0.5667,-0.81854 1.07039,-0.94447 0.5037,-0.18886 0.75557,0.12611 0.25185,0.31496 0.18892,1.0074 -0.063,0.62962 -0.5667,1.44817 -0.44076,0.75561 -1.51113,2.20378 -1.00743,1.38517 -2.4556,3.08519 -1.38521,1.63708 -3.21116,3.40009 -1.763,1.70002 -3.71488,3.14819 -1.95189,1.38524 -4.0297,2.26671 -2.07781,0.94447 -4.09266,0.94447 -2.77042,0 -4.65934,-1.07039 -1.825956,-1.00747 -2.959311,-2.64449 -1.070387,-1.63709 -1.511137,-3.58895 -0.440768,-2.01486 -0.440768,-3.96673 0,-1.95193 0.8815,-4.84827 0.881493,-2.89633 2.581523,-5.54082 1.762993,-2.70747 4.407483,-4.59635 2.64449,-1.95193 6.23344,-1.95193 2.01485,0 3.40006,1.38524 1.44817,1.38523 1.3852,3.77781 0,1.13338 -0.37777,2.26671 -0.37778,1.07039 -1.00742,1.95193 -0.62965,0.81854 -1.51114,1.32224 -0.81854,0.50382 -1.82596,0.50382 -0.81853,0 -1.25928,-0.56657 -0.37778,-0.62962 -0.5037,-1.38517 -0.0629,-0.81855 0,-1.5741 0.12592,-0.75561 0.25185,-1.00746 0.31484,-0.44046 0.6926,-0.62962 0.37778,-0.18886 0.8815,-0.44108 0.37778,-0.18885 0.5667,-0.56657 0.25185,-0.37771 0.25185,-0.81848 0,-0.44107 -0.25185,-0.75561 -0.25185,-0.31496 -0.81854,-0.31496 -0.56669,0 -2.07781,0.94446 -1.44818,0.88148 -3.02227,2.70742 -1.51114,1.76301 -2.70746,4.47043 -1.19632,2.70748 -1.25928,6.29643 -0.063,2.07779 0.56669,3.40004 0.62965,1.32224 1.57411,2.07785 0.94446,0.75555 2.07781,1.07039 1.13335,0.31497 2.20374,0.31497 z"
         style="font-size:10.5833px;line-height:1.25;font-family:Satisfy;-inkscape-font-specification:Satisfy;fill:#ffffff;stroke-width:1.61188"
         id="path3107" />
      <path
         d="m 117.3356,741.59854 q -0.44076,0.69261 -0.94445,0.88153 -0.5667,0.25161 -0.94446,0.0628 -0.44077,-0.12611 -0.5667,-0.62962 -0.12592,-0.50382 0.25185,-1.25925 0.18892,-0.37772 0.8815,-1.70008 0.62965,-1.32224 1.5741,-3.14819 0.8815,-1.88893 1.95189,-4.02966 1.07039,-2.20378 2.01485,-4.15564 1.00742,-1.95187 1.82596,-3.46303 0.81853,-1.57409 1.19631,-2.26671 -0.6926,-0.62963 -0.94446,-0.88148 -0.25185,-0.31496 -0.37777,-1.25931 -0.12593,-0.81854 0.37777,-2.14078 0.5037,-1.32225 1.32224,-2.51856 0.81854,-1.25925 1.82596,-2.14079 1.00742,-0.88147 1.95189,-0.88147 1.76299,0 2.45559,1.13338 0.75557,1.13333 0.8815,2.32964 0.12593,0.81855 -0.12592,2.0778 -0.25185,1.25931 -0.94446,2.26671 0.18891,0.12611 0.5037,0.31496 0.31484,0.12611 1.00742,0.12611 1.00742,0 1.38521,-0.12611 0.44077,-0.12611 1.32224,-0.12611 1.0704,0 1.763,0.56658 0.6926,0.50382 1.13335,1.32224 0.44077,0.75555 0.62964,1.70002 0.25185,0.88147 0.31485,1.63702 0.18892,1.57415 -0.81853,3.27417 -1.00743,1.70002 -2.4556,3.71488 -0.8815,1.25925 -1.76299,2.83334 -0.8815,1.57416 -0.75558,2.83341 0.12593,0.81854 0.44077,1.32224 0.31484,0.50382 1.76299,0.50382 1.0704,0 2.32968,-0.75555 1.32224,-0.81854 2.64448,-2.01486 1.38521,-1.25925 2.70746,-2.70742 1.32224,-1.51116 2.45559,-2.89639 1.13336,-1.44817 1.88893,-2.5815 0.81853,-1.13338 1.19631,-1.63708 0.31485,-0.50382 0.81854,-0.69262 0.5037,-0.18886 0.88149,0 0.37777,0.18886 0.44077,0.75561 0.12592,0.56657 -0.44077,1.5111 -0.37778,0.62969 -1.32224,2.01486 -0.8815,1.38524 -2.20375,3.08525 -1.25928,1.70002 -2.83338,3.52596 -1.5741,1.76302 -3.33709,3.27418 -1.70003,1.44816 -3.46302,2.39263 -1.70003,0.94441 -3.27413,0.94441 -1.63706,0 -2.70746,-0.62963 -1.07038,-0.62962 -1.76299,-1.5111 -0.62964,-0.94446 -0.94446,-2.01486 -0.25185,-1.13338 -0.18892,-2.07785 0.0629,-0.75555 0.37778,-1.57409 0.37777,-0.88148 0.81853,-1.76295 0.5037,-0.94447 1.00743,-1.82601 0.56669,-0.94446 1.00742,-1.82594 1.07039,-1.82594 1.70002,-3.08525 0.69261,-1.32224 0.69261,-2.20372 0,-0.56657 -0.25185,-1.0074 -0.25185,-0.44107 -0.81853,-0.44107 -0.37778,0 -0.56669,0.0627 -0.12593,0 -0.31485,0 -0.12592,0 -0.44076,0.0628 -0.25185,0 -0.81854,0 -0.81853,0 -1.38521,-0.25161 -0.56669,-0.25161 -1.07039,-0.37771 -0.25185,0.44046 -1.13335,1.88887 -0.8815,1.44823 -2.07781,3.4001 -1.13335,1.95186 -2.4556,4.09265 -1.25928,2.14079 -2.39263,4.02972 -1.13336,1.82594 -1.88893,3.14819 -0.81853,1.25925 -1.00742,1.5111 z"
         style="font-size:10.5833px;line-height:1.25;font-family:Satisfy;-inkscape-font-specification:Satisfy;fill:#ffffff;stroke-width:1.61188"
         id="path3109" />
      <path
         d="m 162.48082,718.74264 q 0.81853,-0.62963 1.5741,-0.94447 0.81853,-0.37772 1.44817,-0.50382 0.6926,-0.18886 1.38521,-0.12611 1.70002,0.12611 2.07781,1.07039 0.44077,0.94441 0.12593,3.02226 -0.18892,1.07039 -0.75557,2.70742 -0.56669,1.63708 -1.32224,4.02972 -0.75557,2.32964 -1.63707,5.35196 -0.81853,3.02226 -1.5741,6.80007 -0.75557,3.08526 -1.63706,7.11498 -0.75557,3.52596 -1.82596,8.50015 -1.00743,4.97413 -2.20375,11.39648 -0.31484,1.5741 -1.3852,1.82595 -1.00742,0.2516 -2.14078,-0.25161 -0.44077,-0.25161 -0.81853,-0.56657 -0.31484,-0.31497 -0.69261,-0.75555 -0.37777,-0.37772 -0.62963,-1.07039 1.44816,-5.28898 2.51856,-9.63348 1.13335,-4.34456 2.01485,-7.55568 0.94446,-3.71488 1.76299,-6.67421 0.31484,-1.32224 0.56669,-2.58155 0.31484,-1.32224 0.62964,-2.58149 -0.81853,1.32224 -1.76299,2.51856 -0.94446,1.19632 -2.07782,2.07779 -1.13334,0.88148 -2.45559,1.32224 -1.25928,0.50383 -2.64449,0.31497 -3.40006,-0.44107 -4.84823,-2.51856 -1.38521,-2.07786 -1.19632,-5.4149 0.063,-1.32224 0.37778,-2.89639 0.31484,-1.5741 0.6926,-3.02227 0.37778,-1.44816 0.6926,-2.58149 0.37778,-1.19632 0.56669,-1.70008 0.75557,-2.39257 1.07039,-4.09265 0.37777,-1.70002 -0.5037,-2.83334 0.8815,-0.56657 1.63707,-0.75561 0.81853,-0.25161 1.44817,-0.37772 0.6926,-0.0627 1.38521,0 1.70003,0.25161 1.95188,1.25931 0.31485,1.0074 -0.18892,3.02226 -0.25185,1.0704 -0.81853,2.77041 -0.56669,1.63709 -1.19631,3.40004 -0.62965,1.76301 -1.13336,3.27417 -0.5037,1.44817 -0.56669,2.07779 -0.5667,2.83341 -0.0629,4.4075 0.5037,1.5111 2.20374,1.5111 0.81853,0 1.82595,-0.69256 1.00743,-0.75561 2.01485,-1.95193 1.07039,-1.19631 2.07782,-2.70741 1.00742,-1.5741 1.82595,-3.14819 0.8815,-1.57415 1.51114,-3.08525 0.6926,-1.51116 1.00742,-2.70748 0.44077,-2.32964 0.5667,-3.65189 0.12592,-1.32224 -0.8815,-2.39263 z"
         style="font-size:10.5833px;line-height:1.25;font-family:Satisfy;-inkscape-font-specification:Satisfy;fill:#ffffff;stroke-width:1.61188"
         id="path3111" />
      <path
         d="m 167.5809,768.799 q -0.44077,-0.18885 -0.88149,-0.56657 -0.37778,-0.31496 -0.75558,-0.81854 -0.37777,-0.44107 -0.62963,-1.13339 1.76299,-6.73714 3.02227,-11.71126 1.19632,-4.97419 2.07781,-8.3113 0.94446,-3.90373 1.63707,-6.54822 0.62964,-2.51856 1.25928,-5.03712 0.5037,-2.20378 1.07038,-4.72234 0.62965,-2.51856 1.13336,-4.72228 0.62964,-2.45562 0.75557,-3.90379 0.12592,-1.5111 -0.94447,-2.58149 0.75557,-0.62963 1.51114,-0.94447 0.81854,-0.37772 1.44817,-0.50382 0.69261,-0.18886 1.38522,-0.12611 1.70003,0.12611 2.07781,1.07039 0.44077,0.94441 0.12592,3.02226 -0.063,0.31497 -0.12592,0.56657 0,0.18886 0,0.44047 0.8815,-1.0074 1.95188,-1.95187 1.07039,-0.94447 2.14078,-1.70002 1.13335,-0.75561 2.26671,-1.19632 1.19631,-0.50382 2.2667,-0.50382 1.44818,0 2.32967,0.75555 0.94446,0.69262 1.44817,1.88894 0.5037,1.19631 0.62965,2.70741 0.12592,1.44817 0.0629,2.89634 -0.0629,1.57409 -0.5667,3.3371 -0.44076,1.76301 -1.25928,3.58896 -0.81853,1.82594 -1.88892,3.58895 -1.07039,1.76301 -2.2667,3.27411 0.25185,0.0628 0.31484,0.12611 0.0629,0 0.0629,0.0628 0,0 0.063,0.0627 0.12593,0 0.44077,0 1.44818,0 2.95931,-0.75561 1.51114,-0.75555 2.95931,-1.88894 1.44818,-1.19632 2.77042,-2.58149 1.38521,-1.38524 2.4556,-2.64449 1.13335,-1.32224 1.88892,-2.3297 0.75557,-1.07039 1.13335,-1.5111 0.5037,-0.62963 0.94446,-0.81854 0.44077,-0.25161 0.69261,-0.0628 0.25185,0.18885 0.25185,0.75561 0,0.50382 -0.37778,1.32224 -0.25185,0.56657 -1.07038,1.82594 -0.81854,1.25931 -2.01485,2.83341 -1.19632,1.57409 -2.77042,3.27411 -1.51114,1.70001 -3.21117,3.08525 -1.70003,1.38517 -3.52598,2.26671 -1.76299,0.94447 -3.46302,0.94447 -0.81854,0 -1.32225,-0.0627 -0.5037,-0.0628 -0.88149,-0.25161 -0.31485,-0.1261 -0.62965,-0.31496 -0.31484,-0.12611 -0.75557,-0.31497 -1.13335,0.88148 -2.32966,1.32225 -1.19632,0.50382 -2.32967,0.50382 -1.07039,0 -1.88892,-0.37772 -0.75557,-0.31496 -1.25928,-0.94446 -0.5037,-0.56657 -0.81853,-1.25931 -0.31485,-0.75555 -0.5037,-1.44817 -0.063,0.2516 -0.12593,0.44107 0,0.18886 -0.0629,0.50382 -0.75557,3.02226 -1.57411,6.98899 -0.6926,3.4001 -1.70002,8.2483 -0.94446,4.9112 -2.01485,11.14463 -0.37777,1.70002 -1.32225,1.95193 -1.00742,0.25161 -2.2667,-0.25221 z m 11.52242,-39.03765 q -0.31485,1.07039 -0.6926,2.51856 -0.31485,1.38517 -0.75557,3.3371 0.5037,-0.37772 1.13335,-0.56657 0.62964,-0.18886 1.25928,-0.18886 0.6926,0 1.76299,0.75561 1.07039,0.69256 2.58153,1.5111 0.94446,-1.13332 1.95188,-2.51856 1.07039,-1.44817 1.88892,-2.95933 0.8815,-1.5111 1.44818,-3.08519 0.62964,-1.57409 0.6926,-3.02226 0.12593,-1.88894 -0.44077,-2.95933 -0.56669,-1.07039 -1.88892,-1.07039 -1.95188,0 -4.28155,2.32964 -2.26671,2.26671 -4.65934,5.91866 z"
         style="font-size:10.5833px;line-height:1.25;font-family:Satisfy;-inkscape-font-specification:Satisfy;fill:#ffffff;stroke-width:1.61188"
         id="path3113" />
      <path
         d="m 224.43742,725.98347 q 0.25185,-0.37771 0.62964,-0.44046 0.44077,-0.12611 0.69261,0.0628 0.25185,0.18886 0.25185,0.62962 0.063,0.44108 -0.31485,1.19632 -1.25928,2.39264 -3.33709,5.16305 -2.01485,2.77041 -4.28156,5.22604 -2.2667,2.39263 -4.40748,3.96673 -2.14077,1.57409 -3.58895,1.57409 -2.07781,0 -3.46302,-0.81854 -1.38521,-0.81849 -2.20374,-2.0148 -0.75557,-1.19632 -1.07039,-2.58156 -0.31484,-1.44817 -0.18892,-2.64448 0.063,-1.0074 0.44077,-3.58896 0.37778,-2.64448 1.00742,-6.04452 0.62965,-3.46303 1.38522,-7.36682 0.81853,-3.96673 1.70003,-7.61862 -1.0704,0.12611 -2.14078,0.25161 -1.07039,0.12611 -1.95189,0.12611 -2.01485,0 -3.77784,-0.44107 -1.82596,-0.50383 -2.70745,-0.94447 -0.5037,-0.25161 -0.44077,-0.69262 0.0629,-0.50382 0.37777,-0.94447 0.31485,-0.50382 0.81853,-0.81848 0.44077,-0.37771 0.81853,-0.37771 1.19632,0.1261 2.58153,0.2516 1.38521,0.0628 3.02228,0 1.19631,-0.0627 2.2667,-0.18885 1.13336,-0.12611 2.20374,-0.31497 0.81853,-3.02226 1.5741,-5.22598 0.81853,-2.26671 1.44817,-3.14818 0.18892,-0.31497 0.81854,-0.50382 0.6926,-0.25161 1.44817,-0.31497 0.75557,-0.12611 1.44817,0 0.69261,0.0628 1.00743,0.44047 0.31484,0.50382 0.25185,2.58155 -0.0629,2.07779 -0.69261,5.28897 2.64449,0 4.65934,0.31496 2.07781,0.25161 3.52599,0.62963 1.44817,0.31496 2.32967,0.69262 0.88149,0.31496 1.32224,0.44046 0.44077,0.12611 0.44077,0.62969 0.0629,0.50382 -0.18892,1.07039 -0.18892,0.50382 -0.6926,0.88147 -0.5037,0.37772 -1.13335,0.25161 -0.62965,-0.0628 -1.44818,-0.25161 -0.75557,-0.18885 -1.88892,-0.31496 -1.07039,-0.12611 -2.58152,-0.25161 -1.51114,-0.12611 -3.52599,-0.12611 -0.37777,0 -0.8815,0.0627 -0.44077,0 -0.94446,0 -0.25185,1.0074 -0.5037,2.0148 -0.18892,0.94447 -0.56669,2.01486 -0.81853,2.51856 -1.88893,5.47789 -0.94446,2.58156 -2.2667,5.9186 -1.32224,3.3371 -2.95931,7.11497 -0.37777,2.70742 0.063,4.15559 0.5037,1.38523 1.19632,2.01486 0.81854,0.69262 2.01485,0.75561 0.94446,0.12611 2.26671,-0.62969 1.38521,-0.81854 2.83338,-2.14078 1.44817,-1.32224 2.89635,-2.89634 1.51113,-1.57409 2.77041,-3.08525 1.25928,-1.5111 2.20375,-2.70742 0.94445,-1.25931 1.32224,-1.76301 z"
         style="font-size:10.5833px;line-height:1.25;font-family:Satisfy;-inkscape-font-specification:Satisfy;fill:#ffffff;stroke-width:1.61188"
         id="path3115" />
      <path
         d="m 239.29695,731.90213 q -0.62964,2.39264 -1.70003,4.47043 -1.07039,2.07779 -2.58153,3.58895 -1.44817,1.5111 -3.33709,2.32964 -1.82596,0.88154 -4.0297,0.88154 -2.58152,0 -4.09266,-1.13339 -1.44817,-1.07039 -2.20374,-2.70741 -0.69261,-1.63709 -0.81853,-3.58896 -0.18892,-1.95192 -0.18892,-3.65194 0,-1.19632 0.31484,-2.64449 0.25185,-1.44817 0.75557,-2.95933 0.5037,-1.5111 1.25928,-3.02226 0.81854,-1.5111 1.88893,-2.77041 0.37777,-1.07039 1.13335,-1.88893 0.81853,-0.81855 1.82596,-1.32225 1.07038,-0.56657 2.2667,-0.81854 1.19632,-0.31496 2.32967,-0.31496 0.18892,0 0.31484,0.0627 0.18886,0.0628 0.37778,0.1261 0.81853,0.0627 2.01484,0.62969 1.25928,0.56657 2.39264,1.70002 1.19632,1.13332 2.01485,2.89633 0.81853,1.70002 0.81853,4.15565 0,0.50382 -0.0629,1.25925 -0.0629,0.69262 -0.12593,1.19632 1.44817,-0.56657 3.02227,-1.38518 1.5741,-0.81854 3.02228,-1.70008 1.51113,-0.9444 2.77041,-1.88887 1.25928,-0.94447 2.01485,-1.70008 0.62964,-0.56657 1.07039,-0.62962 0.44077,-0.0627 0.62964,0.2516 0.18892,0.31497 0.0629,0.88154 -0.12592,0.56657 -0.6926,1.25925 -0.31484,0.37771 -1.63706,1.51116 -1.25928,1.13332 -3.02228,2.45557 -1.76299,1.32224 -3.84081,2.58155 -2.07781,1.25925 -3.96673,1.88893 z m -10.64092,-9.57054 q -0.18892,0.56657 -0.18892,1.19632 0,1.0074 0.12592,2.14078 0.12593,1.07033 0.62965,1.95187 0.5037,0.88147 1.57409,1.5111 1.13336,0.56657 3.08525,0.56657 0.31484,0 0.62963,0 0.31485,-0.0627 0.62965,-0.12611 0.18885,-0.81854 0.31484,-1.44817 0.18892,-0.69261 0.18892,-1.19631 0.12592,-1.19632 0,-2.45557 -0.12593,-1.25931 -0.5037,-2.26671 -0.31485,-1.07039 -0.8815,-1.70008 -0.5037,-0.69256 -1.25928,-0.69256 -1.19632,0 -2.32967,0.69256 -1.07039,0.62969 -2.01485,1.826 z m -4.0297,11.08164 q 0,1.13339 0.12592,2.26671 0.12593,1.07039 0.5037,1.95187 0.37778,0.81854 1.00743,1.38523 0.62963,0.50383 1.63706,0.50383 1.13335,0 2.07782,-0.50383 0.94446,-0.56657 1.70003,-1.38523 0.75556,-0.88148 1.32224,-1.95187 0.62964,-1.13332 1.07038,-2.32964 -0.44076,0.0628 -0.88149,0.12611 -0.37777,0 -0.8815,0 -2.39263,0 -4.15563,-1.38524 -1.70002,-1.44817 -2.64448,-3.65188 -0.37778,1.32224 -0.62964,2.58149 -0.25185,1.25931 -0.25185,2.39263 z"
         style="font-size:10.5833px;line-height:1.25;font-family:Satisfy;-inkscape-font-specification:Satisfy;fill:#ffffff;stroke-width:1.61188"
         id="path3117" />
      <path
         d="m 271.09377,738.32443 q 0.5037,0.18885 0.62964,0.69261 0.18886,0.44108 -0.25185,1.63709 -0.37778,1.13332 -0.81854,1.44817 -0.44077,0.31496 -0.88149,0.44046 -0.18892,0.0627 -1.70003,-0.0628 -1.51114,-0.12611 -3.71488,-0.31496 -2.14078,-0.12611 -4.7223,-0.25161 -2.51856,-0.0628 -4.78527,0 -4.21859,0.12611 -7.74457,0.25161 -3.46302,0.1261 -6.29641,0.44107 -1.32224,0.12611 -1.63706,-0.50382 -0.31484,-0.56657 -0.18892,-1.32225 0.18892,-0.81854 0.62964,-1.826 0.37777,-1.0074 1.32225,-1.13332 3.02227,-0.31497 5.79269,-0.44108 2.77041,-0.1261 4.97416,-0.18885 2.51856,-0.0627 4.84823,0 2.89634,-0.12611 5.4149,0 2.58153,0.1261 4.53342,0.37771 1.95188,0.25161 3.14819,0.50382 1.19632,0.18886 1.44818,0.25161 z"
         style="font-size:10.5833px;line-height:1.25;font-family:Satisfy;-inkscape-font-specification:Satisfy;fill:#ffffff;stroke-width:1.61188"
         id="path3119" />
    </g>
  </g>
</svg>
