<?xml version="1.0" encoding="UTF-8" standalone="no"?>
<!-- Created with Inkscape (http://www.inkscape.org/) -->

<svg
   width="586.84583mm"
   height="89.693771mm"
   viewBox="0 0 586.84583 89.693771"
   version="1.1"
   id="svg5"
   inkscape:version="1.2 (dc2aedaf03, 2022-05-15)"
   sodipodi:docname="buymeacrypto_ book.svg"
   inkscape:export-filename="assets/dark/assets.svg"
   inkscape:export-xdpi="300"
   inkscape:export-ydpi="300"
   xmlns:inkscape="http://www.inkscape.org/namespaces/inkscape"
   xmlns:sodipodi="http://sodipodi.sourceforge.net/DTD/sodipodi-0.dtd"
   xmlns="http://www.w3.org/2000/svg"
   xmlns:svg="http://www.w3.org/2000/svg">
  <sodipodi:namedview
     id="namedview7"
     pagecolor="#000000"
     bordercolor="#999999"
     borderopacity="1"
     inkscape:showpageshadow="0"
     inkscape:pageopacity="1"
     inkscape:pagecheckerboard="0"
     inkscape:deskcolor="#d1d1d1"
     inkscape:document-units="mm"
     showgrid="false"
     inkscape:zoom="0.60234445"
     inkscape:cx="983.65644"
     inkscape:cy="334.5262"
     inkscape:window-width="1920"
     inkscape:window-height="1018"
     inkscape:window-x="0"
     inkscape:window-y="30"
     inkscape:window-maximized="1"
     inkscape:current-layer="layer1" />
  <defs
     id="defs2" />
  <g
     inkscape:label="Layer 1"
     inkscape:groupmode="layer"
     id="layer1"
     transform="translate(218.39352,-920.04741)">
    <g
       aria-label="buymeacrypto book"
       id="text236-35"
       style="font-size:25.4px;line-height:1.25;stroke-width:0.528;stroke-dasharray:none"
       inkscape:label="book"
       inkscape:export-filename="buymeacrypto_ book.svg"
       inkscape:export-xdpi="300"
       inkscape:export-ydpi="300"
       transform="matrix(2.6345367,0,0,2.538402,-201.59692,499.15705)">
      <path
         d="m 19.966399,172.87151 q -0.37207,1.48828 -0.843359,2.85254 -0.446484,1.33945 -0.942578,2.53008 -0.471289,1.16582 -0.967383,2.1332 -0.471289,0.96738 -0.843359,1.68672 -0.248047,1.78594 0,2.87734 0.248047,1.09141 0.967383,1.09141 0.595312,0 1.16582,-0.54571 0.570508,-0.5457 1.016992,-1.33945 0.446484,-0.79375 0.744141,-1.68672 0.322461,-0.91777 0.396875,-1.63711 -0.471289,-0.12402 -0.79375,-0.42168 -0.322461,-0.32246 -0.322461,-0.84336 0,-0.34726 0.198437,-0.64492 0.198438,-0.32246 0.471289,-0.5457 0.272852,-0.22324 0.595313,-0.34727 0.322461,-0.12402 0.595312,-0.12402 0.42168,0 0.719336,0.5457 0.297657,0.5209 0.396875,1.33946 0.992188,-0.0248 2.083594,-0.29766 1.091406,-0.27285 2.058789,-0.69453 0.272852,-0.12402 0.446484,-0.0744 0.173633,0.0496 0.223243,0.19843 0.07441,0.14883 0,0.34727 -0.07441,0.17363 -0.297657,0.27285 -0.570507,0.32246 -1.190625,0.59531 -0.595312,0.24805 -1.190625,0.42168 -0.595312,0.17363 -1.141015,0.27285 -0.545703,0.0992 -0.992188,0.0992 -0.09922,0.99219 -0.620117,2.15801 -0.520898,1.14102 -1.265039,2.1332 -0.744141,0.96739 -1.661914,1.61231 -0.892969,0.64492 -1.761133,0.64492 -0.272851,0 -0.719336,-0.0744 -0.446484,-0.0744 -0.868164,-0.5209 -0.421679,-0.44649 -0.719336,-1.41387 -0.297656,-0.99219 -0.248047,-2.80293 0.02481,-1.21543 0.272852,-2.57969 0.248047,-1.36425 0.595312,-2.72851 0.347266,-1.36426 0.768946,-2.6293 0.446484,-1.28984 0.843359,-2.30684 0.396875,-1.04179 0.719336,-1.73632 0.347266,-0.69453 0.520899,-0.89297 0.223242,-0.27285 0.520898,-0.39688 0.297656,-0.14883 0.570508,-0.19843 0.297656,-0.0744 0.545703,-0.0496 0.248047,0.0248 0.347265,0.0744 0.148829,0.0992 0.07441,1.09141 -0.04961,0.99218 -0.47129,2.55488 z"
         style="font-family:Satisfy;-inkscape-font-specification:Satisfy;fill:#ffffff;stroke-width:0.528;stroke-dasharray:none"
         id="path1209" />
      <path
         d="m 27.9039,187.48147 q -0.942579,0 -1.537891,-0.29766 -0.595313,-0.29765 -0.942578,-0.71933 -0.322461,-0.44649 -0.471289,-0.94258 -0.124024,-0.5209 -0.124024,-0.94258 0,-0.74414 0.124024,-1.56269 0.124023,-0.84336 0.297656,-1.53789 0.173633,-0.71934 0.297656,-1.21543 0.148828,-0.4961 0.198438,-0.62012 0.223242,-0.71934 0.570508,-1.24024 0.37207,-0.5457 1.016992,-0.74414 0.248047,-0.0496 0.520898,-0.0992 0.223242,-0.0248 0.446485,-0.0248 0.248046,0 0.446484,0.0744 -0.669727,1.71153 -1.066602,2.85254 -0.37207,1.14102 -0.570507,1.86035 -0.223243,0.81856 -0.272852,1.31465 -0.124023,1.11621 0.198437,1.68672 0.322461,0.57051 1.314649,0.57051 0.644922,0 1.240234,-0.47129 0.595313,-0.49609 1.091406,-1.26504 -0.07441,-0.39687 -0.07441,-0.81855 0,-0.79375 0.124024,-1.53789 0.148828,-0.76895 0.322461,-1.41387 0.198437,-0.66973 0.396875,-1.19063 0.223242,-0.52089 0.37207,-0.81855 0.272852,-0.59531 0.496094,-0.71934 0.223242,-0.14882 0.719336,-0.17363 0.198437,-0.0248 0.322461,0 0.148828,0 0.248047,0.0248 0.297656,0.0744 0.297656,0.29765 0,0.39688 -0.04961,1.19063 -0.04961,0.79375 -0.297656,1.63711 -0.173633,0.69453 -0.347265,1.19062 -0.148829,0.47129 -0.297657,0.81856 -0.148828,0.32246 -0.297656,0.5457 -0.148828,0.19844 -0.272851,0.37207 0.04961,0.74414 0.124023,1.19062 0.07441,0.44649 0.173633,0.69454 0.124023,0.22324 0.272851,0.32246 0.173633,0.0744 0.372071,0.0744 0.347265,0 0.818554,-0.32246 0.471289,-0.34727 0.967383,-0.84336 0.520899,-0.5209 1.016992,-1.11621 0.520899,-0.62012 0.942578,-1.16582 0.42168,-0.5457 0.719336,-0.94258 0.297657,-0.42168 0.372071,-0.5209 0.173632,-0.22324 0.322461,-0.27285 0.173632,-0.0496 0.272851,0.0496 0.09922,0.0744 0.09922,0.27285 0.02481,0.17363 -0.09922,0.39688 -0.496094,0.94257 -1.240234,2.00918 -0.719336,1.04179 -1.562696,1.93476 -0.818554,0.89297 -1.661914,1.48828 -0.843359,0.59532 -1.5875,0.59532 -0.669726,0 -1.066601,-0.44649 -0.37207,-0.47129 -0.644922,-1.33945 -0.570508,0.89297 -1.339453,1.38906 -0.768945,0.47129 -1.711523,0.47129 z"
         style="font-family:Satisfy;-inkscape-font-specification:Satisfy;fill:#ffffff;stroke-width:0.528;stroke-dasharray:none"
         id="path1211" />
      <path
         d="m 43.258001,177.95647 q 0.322461,-0.24805 0.620117,-0.37207 0.322461,-0.14883 0.570508,-0.19844 0.272852,-0.0744 0.545703,-0.0496 0.669727,0.0496 0.818555,0.42168 0.173633,0.37207 0.04961,1.19063 -0.07441,0.42168 -0.297656,1.0666 -0.223242,0.64492 -0.520898,1.5875 -0.297657,0.91777 -0.644922,2.1084 -0.322461,1.19062 -0.620118,2.6789 -0.297656,1.21543 -0.644921,2.80293 -0.297657,1.38907 -0.719336,3.34864 -0.396875,1.95957 -0.868164,4.48964 -0.124024,0.62012 -0.545703,0.71934 -0.396875,0.0992 -0.84336,-0.0992 -0.173633,-0.0992 -0.322461,-0.22324 -0.124023,-0.12402 -0.272851,-0.29766 -0.148828,-0.14883 -0.248047,-0.42168 0.570508,-2.08359 0.992187,-3.79511 0.446485,-1.71153 0.79375,-2.97657 0.372071,-1.46347 0.694531,-2.62929 0.124024,-0.5209 0.223243,-1.017 0.124023,-0.52089 0.248047,-1.01699 -0.322461,0.5209 -0.694532,0.99219 -0.37207,0.47129 -0.818554,0.81855 -0.446485,0.34727 -0.967383,0.5209 -0.496094,0.19844 -1.041797,0.12403 -1.339453,-0.17364 -1.909961,-0.99219 -0.545703,-0.81856 -0.471289,-2.1332 0.02481,-0.5209 0.148828,-1.14102 0.124024,-0.62012 0.272852,-1.19062 0.148828,-0.57051 0.272851,-1.017 0.148828,-0.47129 0.223242,-0.66972 0.297657,-0.94258 0.42168,-1.61231 0.148828,-0.66972 -0.198437,-1.11621 0.347265,-0.22324 0.644921,-0.29766 0.322461,-0.0992 0.570508,-0.14882 0.272852,-0.0248 0.545703,0 0.669727,0.0992 0.768946,0.49609 0.124023,0.39688 -0.07441,1.19063 -0.09922,0.42168 -0.322461,1.0914 -0.223242,0.64492 -0.471289,1.33945 -0.248047,0.69454 -0.446485,1.28985 -0.198437,0.57051 -0.223242,0.81855 -0.223242,1.11621 -0.02481,1.73633 0.198438,0.59531 0.868164,0.59531 0.322461,0 0.719336,-0.27285 0.396875,-0.29765 0.79375,-0.76894 0.42168,-0.47129 0.818555,-1.0666 0.396875,-0.62012 0.719336,-1.24024 0.347266,-0.62012 0.595312,-1.21543 0.272852,-0.59531 0.396875,-1.0666 0.173633,-0.91777 0.223243,-1.43867 0.04961,-0.5209 -0.347266,-0.94258 z"
         style="font-family:Satisfy;-inkscape-font-specification:Satisfy;fill:#ffffff;stroke-width:0.528;stroke-dasharray:none"
         id="path1213" />
      <path
         d="m 58.612101,185.94358 q 0,-0.5209 0.09922,-1.19063 0.124023,-0.66972 0.297656,-1.36425 0.173633,-0.71934 0.347266,-1.38907 0.173632,-0.66972 0.297656,-1.19062 0.148828,-0.64492 -0.02481,-0.99219 -0.173633,-0.34726 -0.595312,-0.34726 -0.198438,0 -0.79375,0.34726 -0.570508,0.34727 -1.265039,1.21543 -0.669727,0.84336 -1.339453,2.30684 -0.644922,1.43867 -1.016993,3.67109 -0.471289,0.24805 -0.892968,0.32246 -0.223243,0.0496 -0.396875,0.0744 -0.496094,0.0248 -0.644922,-0.17364 -0.148828,-0.17363 0.04961,-0.89297 0.09922,-0.34726 0.347266,-1.11621 0.272851,-0.76894 0.520898,-1.66191 0.248047,-0.91777 0.42168,-1.81074 0.198437,-0.91778 0.198437,-1.5875 0,-0.47129 -0.173632,-0.64492 -0.148829,-0.17364 -0.446485,-0.17364 -0.223242,0 -0.74414,0.24805 -0.520899,0.24805 -1.165821,0.96738 -0.644922,0.71934 -1.289843,2.00918 -0.620118,1.26504 -1.066602,3.29903 v -0.0496 q -0.04961,0.19843 -0.09922,0.39687 -0.04961,0.17363 -0.07441,0.37207 -0.0248,0.19844 -0.07441,0.37207 l -1.240234,0.5457 q -0.124024,0.0496 -0.322461,0.0744 -0.173633,0.0248 -0.347266,-0.0744 -0.148828,-0.0744 -0.223242,-0.34726 -0.07441,-0.27285 0.04961,-0.81856 l 1.562696,-6.47402 q 0.07441,-0.32246 0.124023,-0.62012 0.04961,-0.27285 0.04961,-0.52089 0.0248,-0.27286 -0.0248,-0.44649 0.42168,-0.19844 0.74414,-0.29766 0.322461,-0.0992 0.520899,-0.14882 0.248047,-0.0744 0.42168,-0.0744 0.79375,0 0.520898,1.36426 -0.09922,0.39688 -0.297656,1.16582 0.471289,-0.59531 0.992187,-1.11621 0.545703,-0.5457 1.091406,-0.96738 0.545704,-0.42168 1.091407,-0.66973 0.570508,-0.24805 1.116211,-0.24805 0.421679,0 0.694531,0.24805 0.297656,0.24805 0.446484,0.66973 0.173633,0.39687 0.198438,0.96738 0.0248,0.5457 -0.04961,1.14102 0.396875,-0.5209 0.868164,-1.0418 0.496094,-0.5457 1.016993,-0.96738 0.545703,-0.42168 1.11621,-0.69454 0.570508,-0.27285 1.141016,-0.27285 0.669727,0 1.016992,0.39688 0.372071,0.39687 0.496094,1.01699 0.148828,0.62012 0.07441,1.33945 -0.04961,0.71934 -0.198437,1.38907 l -0.84336,3.34863 q -0.272851,1.24023 0.520899,1.24023 0.620117,0 1.364257,-0.59531 0.744141,-0.59531 1.438672,-1.41387 0.719336,-0.81855 1.339453,-1.68672 0.620118,-0.86816 1.041797,-1.38906 0.148828,-0.17363 0.297657,-0.19844 0.173632,-0.0248 0.272851,0.0744 0.124023,0.0744 0.124023,0.27285 0.02481,0.19844 -0.124023,0.49609 -0.496094,0.86817 -1.21543,1.93477 -0.719336,1.0418 -1.5875,1.95957 -0.843359,0.91777 -1.810742,1.53789 -0.967383,0.62012 -2.009179,0.62012 -0.347266,0 -0.694532,-0.0744 -0.322461,-0.0744 -0.620117,-0.27285 -0.272851,-0.19844 -0.446484,-0.5209 -0.173633,-0.34726 -0.173633,-0.86816 z"
         style="font-family:Satisfy;-inkscape-font-specification:Satisfy;fill:#ffffff;stroke-width:0.528;stroke-dasharray:none"
         id="path1215" />
      <path
         d="m 76.521085,181.92522 q -0.74414,1.09141 -1.686718,2.1332 -0.942578,1.017 -2.00918,1.83555 -1.041797,0.79375 -2.158008,1.28984 -1.091406,0.4961 -2.133203,0.4961 -0.545703,0 -1.190625,-0.27285 -0.620117,-0.24805 -1.141015,-0.79375 -0.520899,-0.54571 -0.84336,-1.41387 -0.297656,-0.86817 -0.173633,-2.1084 0.09922,-1.01699 0.620118,-2.1332 0.545703,-1.14102 1.314648,-2.0836 0.79375,-0.94257 1.761133,-1.56269 0.992187,-0.62012 1.984375,-0.62012 0.942578,0 1.364258,0.47129 0.421679,0.47129 0.37207,1.16582 -0.07441,0.76895 -0.446485,1.41387 -0.347265,0.64492 -0.843359,1.16582 -0.496094,0.5209 -1.066601,0.94258 -0.545704,0.42168 -1.041797,0.76894 -0.545703,0.37207 -1.041797,0.71934 -0.496094,0.32246 -0.868164,0.59531 0.0248,0.62012 0.223242,1.0418 0.198437,0.42168 0.496094,0.69453 0.297656,0.24804 0.669726,0.37207 0.396875,0.0992 0.79375,0.0992 0.84336,0 1.761133,-0.5209 0.917773,-0.5457 1.785937,-1.28985 0.892969,-0.76894 1.63711,-1.5875 0.768945,-0.81855 1.265039,-1.41386 0.173633,-0.19844 0.347266,-0.22324 0.198437,-0.0496 0.297656,0.0496 0.124023,0.0744 0.124023,0.29766 0,0.19844 -0.173633,0.47129 z m -6.35,-3.81992 q -0.297656,0 -0.719335,0.29765 -0.396875,0.29766 -0.79375,0.86817 -0.396875,0.5457 -0.744141,1.36426 -0.347266,0.79375 -0.520898,1.83554 0.297656,-0.22324 0.644921,-0.44648 0.347266,-0.24805 0.694532,-0.5209 1.066601,-0.81855 1.488281,-1.43867 0.42168,-0.62012 0.471289,-1.0666 0.04961,-0.47129 -0.09922,-0.66973 -0.148828,-0.22324 -0.42168,-0.22324 z"
         style="font-family:Satisfy;-inkscape-font-specification:Satisfy;fill:#ffffff;stroke-width:0.528;stroke-dasharray:none"
         id="path1217" />
      <path
         d="m 87.459951,182.14846 q -0.347266,0.4961 -0.892969,1.24024 -0.545703,0.71933 -1.141015,1.46347 -0.570508,0.71934 -1.141016,1.33946 -0.545703,0.59531 -0.917773,0.84336 -0.248047,0.14882 -0.570508,0.24804 -0.322461,0.0992 -0.669727,0.12403 -0.322461,0.0248 -0.620117,-0.0496 -0.297656,-0.0496 -0.520898,-0.19844 -0.223243,-0.17363 -0.372071,-0.49609 -0.124023,-0.27286 -0.248046,-0.71934 -0.09922,-0.44649 -0.07441,-1.11621 -0.595312,0.99219 -1.314648,1.53789 -0.719336,0.5209 -1.364258,0.76894 -0.74414,0.27286 -1.488281,0.32247 -0.347266,0 -0.744141,-0.24805 -0.396875,-0.22324 -0.669726,-0.71934 -0.272852,-0.5209 -0.347266,-1.31465 -0.07441,-0.81855 0.198438,-1.93476 0.347265,-1.51309 1.091406,-2.75332 0.768945,-1.24024 1.661914,-2.1084 0.892969,-0.89297 1.761133,-1.33945 0.868164,-0.44649 1.438672,-0.39688 0.669726,0.12402 1.091406,0.39688 0.347265,0.24804 0.446484,0.74414 0.124024,0.47129 -0.396875,1.26504 0.347266,-0.0744 0.570508,-0.0992 0.248047,-0.0248 0.37207,-0.0248 0.148828,0 0.198438,0.0248 0.02481,0.0496 0.02481,0.22324 0,0.14883 -0.07442,0.57051 -0.07441,0.42168 -0.223242,1.14101 -0.148828,0.71934 -0.396875,1.86035 -0.04961,0.22325 -0.09922,0.42168 -0.02481,0.17364 -0.07442,0.37207 -0.0248,0.17364 -0.07441,0.42168 -0.04961,0.24805 -0.124023,0.62012 -0.02481,0.22324 -0.02481,0.4961 0.02481,0.24804 0.09922,0.47128 0.07441,0.22325 0.223242,0.37207 0.173633,0.12403 0.471289,0.12403 0.248047,0 0.644922,-0.29766 0.396875,-0.32246 0.84336,-0.79375 0.446484,-0.49609 0.917773,-1.0666 0.496094,-0.59531 0.917773,-1.14102 0.42168,-0.5457 0.744141,-0.96738 0.347266,-0.42168 0.496094,-0.62012 0.198437,-0.22324 0.396875,-0.24804 0.198437,-0.0496 0.297656,0.0992 0.09922,0.14882 0.02481,0.44648 -0.04961,0.29766 -0.347266,0.69453 z m -7.267773,1.09141 q 0.124023,-0.4961 0.297656,-1.16582 0.173633,-0.66973 0.297656,-1.28985 0.124024,-0.62011 0.173633,-1.01699 0.07441,-0.42168 -0.02481,-0.39687 -0.124023,0.0248 -0.272851,0.0744 -0.124024,0.0496 -0.322461,0.0744 -0.198438,0.0248 -0.396875,0.0744 0.198437,-0.39688 0.223242,-0.64492 0.04961,-0.27285 0.02481,-0.42168 -0.02481,-0.17364 -0.09922,-0.27285 -0.272852,-0.22325 -0.967383,0.37207 -0.669726,0.5705 -1.562695,2.1332 -0.37207,0.64492 -0.595313,1.38906 -0.223242,0.71934 -0.322461,1.36426 -0.07441,0.64492 -0.0248,1.14102 0.04961,0.47128 0.198437,0.62011 0.272852,0.27285 0.620117,0.27285 0.347266,-0.0248 0.694532,-0.19843 0.37207,-0.19844 0.719336,-0.4961 0.37207,-0.29765 0.644921,-0.62011 0.297657,-0.32247 0.47129,-0.59532 0.198437,-0.27285 0.223242,-0.39687 z"
         style="font-family:Satisfy;-inkscape-font-specification:Satisfy;fill:#ffffff;stroke-width:0.528;stroke-dasharray:none"
         id="path1219" />
      <path
         d="m 90.014832,186.24124 q 0.768946,0 1.686719,-0.59532 0.942578,-0.62011 1.810742,-1.43867 0.892969,-0.81855 1.612305,-1.66191 0.744141,-0.86817 1.116211,-1.38907 0.223242,-0.32246 0.42168,-0.37207 0.198437,-0.0744 0.297656,0.0496 0.09922,0.12403 0.07441,0.39688 -0.02481,0.24805 -0.223242,0.57051 -0.173633,0.29765 -0.595313,0.86816 -0.396875,0.5457 -0.967383,1.21543 -0.545703,0.64492 -1.265039,1.33945 -0.694531,0.66973 -1.463476,1.24024 -0.768945,0.5457 -1.5875,0.89297 -0.818555,0.37207 -1.612305,0.37207 -1.091406,0 -1.835547,-0.42168 -0.719336,-0.39688 -1.16582,-1.0418 -0.42168,-0.64492 -0.595312,-1.41387 -0.173633,-0.79375 -0.173633,-1.56269 0,-0.76895 0.347265,-1.90996 0.347266,-1.14102 1.016993,-2.18282 0.694531,-1.0666 1.736328,-1.81074 1.041797,-0.76894 2.455664,-0.76894 0.79375,0 1.339453,0.5457 0.570508,0.5457 0.545703,1.48828 0,0.44649 -0.148828,0.89297 -0.148828,0.42168 -0.396875,0.76895 -0.248047,0.32246 -0.595313,0.52089 -0.322461,0.19844 -0.719336,0.19844 -0.322461,0 -0.496093,-0.22324 -0.148829,-0.24805 -0.198438,-0.5457 -0.0248,-0.32247 0,-0.62012 0.04961,-0.29766 0.09922,-0.39688 0.124023,-0.17363 0.272851,-0.24804 0.148829,-0.0744 0.347266,-0.17364 0.148828,-0.0744 0.223242,-0.22324 0.09922,-0.14883 0.09922,-0.32246 0,-0.17363 -0.09922,-0.29766 -0.09922,-0.12402 -0.322461,-0.12402 -0.223242,0 -0.818554,0.37207 -0.570508,0.34727 -1.190625,1.0666 -0.595313,0.69453 -1.066602,1.76114 -0.471289,1.0666 -0.496094,2.48046 -0.0248,0.81856 0.223243,1.33946 0.248046,0.5209 0.620117,0.81855 0.37207,0.29766 0.818554,0.42168 0.446485,0.12403 0.868164,0.12403 z"
         style="font-family:Satisfy;-inkscape-font-specification:Satisfy;fill:#ffffff;stroke-width:0.528;stroke-dasharray:none"
         id="path1221" />
      <path
         d="m 94.082806,186.96057 q -0.173633,0.27285 -0.37207,0.34727 -0.223243,0.0992 -0.372071,0.0248 -0.173633,-0.0496 -0.223242,-0.24805 -0.04961,-0.19843 0.09922,-0.49609 0.07441,-0.14883 0.347265,-0.66973 0.248047,-0.52089 0.620118,-1.24023 0.347265,-0.74414 0.768945,-1.5875 0.42168,-0.86816 0.79375,-1.63711 0.396875,-0.76894 0.719336,-1.36426 0.322461,-0.62011 0.471289,-0.89297 -0.272852,-0.24804 -0.37207,-0.34726 -0.09922,-0.12402 -0.148829,-0.4961 -0.04961,-0.32246 0.148829,-0.84335 0.198437,-0.5209 0.520898,-0.99219 0.322461,-0.4961 0.719336,-0.84336 0.396875,-0.34727 0.768945,-0.34727 0.694531,0 0.967383,0.44649 0.297656,0.44648 0.347266,0.91777 0.04961,0.32246 -0.04961,0.81856 -0.09922,0.49609 -0.37207,0.89296 0.07441,0.0496 0.198437,0.12403 0.124024,0.0496 0.396879,0.0496 0.39687,0 0.5457,-0.0496 0.17363,-0.0496 0.5209,-0.0496 0.42168,0 0.69453,0.22324 0.27285,0.19844 0.44648,0.5209 0.17364,0.29766 0.24805,0.66973 0.0992,0.34726 0.12402,0.64492 0.0744,0.62011 -0.32246,1.28984 -0.39687,0.66973 -0.96738,1.46348 -0.34727,0.49609 -0.69453,1.11621 -0.34727,0.62012 -0.29766,1.11621 0.0496,0.32246 0.17363,0.5209 0.12403,0.19844 0.69454,0.19844 0.42168,0 0.91777,-0.29766 0.5209,-0.32246 1.0418,-0.79375 0.5457,-0.49609 1.0666,-1.0666 0.5209,-0.59531 0.96738,-1.14102 0.44648,-0.57051 0.74414,-1.01699 0.32246,-0.44648 0.47129,-0.64492 0.12402,-0.19844 0.32246,-0.27285 0.19844,-0.0744 0.34727,0 0.14882,0.0744 0.17363,0.29765 0.0496,0.22324 -0.17363,0.59532 -0.14883,0.24804 -0.5209,0.79375 -0.34727,0.5457 -0.86817,1.21542 -0.49609,0.66973 -1.11621,1.38907 -0.62011,0.69453 -1.31465,1.28984 -0.66972,0.57051 -1.36425,0.94258 -0.66973,0.37207 -1.28985,0.37207 -0.644918,0 -1.066597,-0.24805 -0.42168,-0.24804 -0.694532,-0.59531 -0.248046,-0.37207 -0.37207,-0.79375 -0.09922,-0.44648 -0.07441,-0.81855 0.02481,-0.29766 0.148828,-0.62012 0.148828,-0.34727 0.322461,-0.69453 0.198438,-0.37207 0.396875,-0.71934 0.223242,-0.37207 0.396875,-0.71933 0.42168,-0.71934 0.66973,-1.21543 0.27285,-0.5209 0.27285,-0.86817 0,-0.22324 -0.0992,-0.39687 -0.0992,-0.17364 -0.32246,-0.17364 -0.14882,0 -0.223244,0.0248 -0.04961,0 -0.124023,0 -0.04961,0 -0.173633,0.0248 -0.09922,0 -0.322461,0 -0.322461,0 -0.545703,-0.0992 -0.223242,-0.0992 -0.42168,-0.14882 -0.09922,0.17363 -0.446484,0.74414 -0.347266,0.5705 -0.818555,1.33945 -0.446484,0.76895 -0.967382,1.6123 -0.496094,0.84336 -0.942579,1.5875 -0.446484,0.71934 -0.74414,1.24024 -0.322461,0.49609 -0.396875,0.59531 z"
         style="font-family:Satisfy;-inkscape-font-specification:Satisfy;fill:#ffffff;stroke-width:0.528;stroke-dasharray:none"
         id="path1223" />
      <path
         d="m 111.86777,177.95647 q 0.32246,-0.24805 0.62011,-0.37207 0.32246,-0.14883 0.57051,-0.19844 0.27285,-0.0744 0.5457,-0.0496 0.66973,0.0496 0.81856,0.42168 0.17363,0.37207 0.0496,1.19063 -0.0744,0.42168 -0.29766,1.0666 -0.22324,0.64492 -0.5209,1.5875 -0.29765,0.91777 -0.64492,2.1084 -0.32246,1.19062 -0.62012,2.6789 -0.29765,1.21543 -0.64492,2.80293 -0.29765,1.38907 -0.71933,3.34864 -0.39688,1.95957 -0.86817,4.48964 -0.12402,0.62012 -0.5457,0.71934 -0.39688,0.0992 -0.84336,-0.0992 -0.17363,-0.0992 -0.32246,-0.22324 -0.12403,-0.12402 -0.27285,-0.29766 -0.14883,-0.14883 -0.24805,-0.42168 0.57051,-2.08359 0.99219,-3.79511 0.44648,-1.71153 0.79375,-2.97657 0.37207,-1.46347 0.69453,-2.62929 0.12402,-0.5209 0.22324,-1.017 0.12402,-0.52089 0.24805,-1.01699 -0.32246,0.5209 -0.69453,0.99219 -0.37207,0.47129 -0.81856,0.81855 -0.44648,0.34727 -0.96738,0.5209 -0.49609,0.19844 -1.0418,0.12403 -1.33945,-0.17364 -1.90996,-0.99219 -0.5457,-0.81856 -0.47129,-2.1332 0.0248,-0.5209 0.14883,-1.14102 0.12402,-0.62012 0.27285,-1.19062 0.14883,-0.57051 0.27285,-1.017 0.14883,-0.47129 0.22325,-0.66972 0.29765,-0.94258 0.42168,-1.61231 0.14882,-0.66972 -0.19844,-1.11621 0.34726,-0.22324 0.64492,-0.29766 0.32246,-0.0992 0.57051,-0.14882 0.27285,-0.0248 0.5457,0 0.66973,0.0992 0.76895,0.49609 0.12402,0.39688 -0.0744,1.19063 -0.0992,0.42168 -0.32246,1.0914 -0.22324,0.64492 -0.47129,1.33945 -0.24805,0.69454 -0.44648,1.28985 -0.19844,0.57051 -0.22324,0.81855 -0.22325,1.11621 -0.0248,1.73633 0.19844,0.59531 0.86816,0.59531 0.32247,0 0.71934,-0.27285 0.39688,-0.29765 0.79375,-0.76894 0.42168,-0.47129 0.81856,-1.0666 0.39687,-0.62012 0.71933,-1.24024 0.34727,-0.62012 0.59531,-1.21543 0.27286,-0.59531 0.39688,-1.0666 0.17363,-0.91777 0.22324,-1.43867 0.0496,-0.5209 -0.34726,-0.94258 z"
         style="font-family:Satisfy;-inkscape-font-specification:Satisfy;fill:#ffffff;stroke-width:0.528;stroke-dasharray:none"
         id="path1225" />
      <path
         d="m 113.87694,197.6762 q -0.17363,-0.0744 -0.34726,-0.22325 -0.14883,-0.12402 -0.29766,-0.32246 -0.14883,-0.17363 -0.24805,-0.44648 0.69454,-2.6541 1.19063,-4.61367 0.47129,-1.95957 0.81855,-3.27422 0.37207,-1.53789 0.64493,-2.57969 0.24804,-0.99219 0.49609,-1.98437 0.19844,-0.86817 0.42168,-1.86036 0.24805,-0.99218 0.44648,-1.86035 0.24805,-0.96738 0.29766,-1.53789 0.0496,-0.59531 -0.37207,-1.01699 0.29766,-0.24805 0.59531,-0.37207 0.32246,-0.14883 0.57051,-0.19844 0.27285,-0.0744 0.5457,-0.0496 0.66973,0.0496 0.81856,0.42168 0.17363,0.37207 0.0496,1.19063 -0.0248,0.12402 -0.0496,0.22324 0,0.0744 0,0.17363 0.34726,-0.39687 0.76894,-0.76894 0.42168,-0.37207 0.84336,-0.66973 0.44649,-0.29766 0.89297,-0.47129 0.47129,-0.19844 0.89297,-0.19844 0.57051,0 0.91777,0.29766 0.37207,0.27285 0.57051,0.74414 0.19844,0.47129 0.24805,1.0666 0.0496,0.57051 0.0248,1.14102 -0.0248,0.62012 -0.22324,1.31465 -0.17363,0.69453 -0.49609,1.41386 -0.32246,0.71934 -0.74414,1.41387 -0.42168,0.69453 -0.89297,1.28984 0.0992,0.0248 0.12402,0.0496 0.0248,0 0.0248,0.0248 0,0 0.0248,0.0248 0.0496,0 0.17363,0 0.57051,0 1.16582,-0.29765 0.59532,-0.29766 1.16582,-0.74414 0.57051,-0.47129 1.09141,-1.017 0.5457,-0.5457 0.96738,-1.04179 0.44649,-0.5209 0.74414,-0.91778 0.29766,-0.42168 0.44649,-0.59531 0.19844,-0.24805 0.37207,-0.32246 0.17363,-0.0992 0.27285,-0.0248 0.0992,0.0744 0.0992,0.29765 0,0.19844 -0.14883,0.5209 -0.0992,0.22324 -0.42168,0.71934 -0.32246,0.49609 -0.79375,1.11621 -0.47129,0.62011 -1.09141,1.28984 -0.59531,0.66973 -1.26503,1.21543 -0.66973,0.5457 -1.38907,0.89297 -0.69453,0.37207 -1.36425,0.37207 -0.32247,0 -0.5209,-0.0248 -0.19844,-0.0248 -0.34727,-0.0992 -0.12402,-0.0496 -0.24805,-0.12403 -0.12402,-0.0496 -0.29765,-0.12402 -0.44649,0.34727 -0.91778,0.5209 -0.47128,0.19844 -0.91777,0.19844 -0.42168,0 -0.74414,-0.14883 -0.29766,-0.12403 -0.49609,-0.37207 -0.19844,-0.22325 -0.32246,-0.4961 -0.12403,-0.29765 -0.19844,-0.5705 -0.0248,0.0992 -0.0496,0.17363 0,0.0744 -0.0248,0.19844 -0.29765,1.19062 -0.62011,2.75332 -0.27285,1.33945 -0.66973,3.24941 -0.37207,1.93477 -0.79375,4.39043 -0.14883,0.66973 -0.5209,0.76894 -0.39687,0.0992 -0.89297,-0.0992 z m 4.53926,-15.37891 q -0.12402,0.42168 -0.27285,0.99219 -0.12402,0.5457 -0.29766,1.31465 0.19844,-0.14883 0.44649,-0.22325 0.24804,-0.0744 0.49609,-0.0744 0.27285,0 0.69453,0.29766 0.42168,0.27285 1.01699,0.59531 0.37208,-0.44649 0.76895,-0.99219 0.42168,-0.57051 0.74414,-1.16582 0.34727,-0.59531 0.57051,-1.21543 0.24805,-0.62012 0.27285,-1.19062 0.0496,-0.74414 -0.17363,-1.16582 -0.22324,-0.42168 -0.74414,-0.42168 -0.76895,0 -1.68672,0.91777 -0.89297,0.89297 -1.83555,2.33164 z"
         style="font-family:Satisfy;-inkscape-font-specification:Satisfy;fill:#ffffff;stroke-width:0.528;stroke-dasharray:none"
         id="path1227" />
      <path
         d="m 136.27557,180.80901 q 0.0992,-0.14883 0.24805,-0.17363 0.17363,-0.0496 0.27285,0.0248 0.0992,0.0744 0.0992,0.24805 0.0248,0.17363 -0.12402,0.47129 -0.4961,0.94257 -1.31465,2.03398 -0.79375,1.09141 -1.68672,2.05879 -0.89297,0.94258 -1.73633,1.5627 -0.84336,0.62011 -1.41387,0.62011 -0.81855,0 -1.36425,-0.32246 -0.54571,-0.32246 -0.86817,-0.79375 -0.29765,-0.47129 -0.42168,-1.01699 -0.12402,-0.57051 -0.0744,-1.0418 0.0248,-0.39687 0.17363,-1.41386 0.14883,-1.0418 0.39688,-2.38125 0.24804,-1.36426 0.5457,-2.90215 0.32246,-1.5627 0.66973,-3.00137 -0.42168,0.0496 -0.84336,0.0992 -0.42168,0.0496 -0.76895,0.0496 -0.79375,0 -1.48828,-0.17363 -0.71934,-0.19844 -1.0666,-0.37208 -0.19844,-0.0992 -0.17363,-0.27285 0.0248,-0.19843 0.14882,-0.37207 0.12403,-0.19843 0.32247,-0.32246 0.17363,-0.14883 0.32246,-0.14883 0.47129,0.0496 1.01699,0.0992 0.5457,0.0248 1.19062,0 0.47129,-0.0248 0.89297,-0.0744 0.44649,-0.0496 0.86817,-0.12402 0.32246,-1.19063 0.62011,-2.05879 0.32246,-0.89297 0.57051,-1.24024 0.0744,-0.12402 0.32246,-0.19844 0.27285,-0.0992 0.57051,-0.12402 0.29766,-0.0496 0.57051,0 0.27285,0.0248 0.39687,0.17363 0.12403,0.19844 0.0992,1.017 -0.0248,0.81855 -0.27285,2.08359 1.0418,0 1.83555,0.12402 0.81855,0.0992 1.38906,0.24805 0.57051,0.12402 0.91777,0.27285 0.34727,0.12402 0.5209,0.17363 0.17363,0.0496 0.17363,0.24805 0.0248,0.19844 -0.0744,0.42168 -0.0744,0.19844 -0.27285,0.34727 -0.19844,0.14882 -0.44649,0.0992 -0.24804,-0.0248 -0.5705,-0.0992 -0.29766,-0.0744 -0.74414,-0.12403 -0.42168,-0.0496 -1.017,-0.0992 -0.59531,-0.0496 -1.38906,-0.0496 -0.14883,0 -0.34727,0.0248 -0.17363,0 -0.37207,0 -0.0992,0.39687 -0.19843,0.79375 -0.0744,0.37207 -0.22325,0.79375 -0.32246,0.99219 -0.74414,2.15801 -0.37207,1.01699 -0.89296,2.33164 -0.5209,1.31465 -1.16582,2.80293 -0.14883,1.0666 0.0248,1.63711 0.19844,0.5457 0.47129,0.79375 0.32246,0.27285 0.79375,0.29765 0.37207,0.0496 0.89297,-0.24804 0.5457,-0.32246 1.11621,-0.84336 0.57051,-0.5209 1.14101,-1.14102 0.59532,-0.62012 1.09141,-1.21543 0.49609,-0.59531 0.86816,-1.0666 0.37207,-0.49609 0.5209,-0.69453 z"
         style="font-family:Satisfy;-inkscape-font-specification:Satisfy;fill:#ffffff;stroke-width:0.528;stroke-dasharray:none"
         id="path1229" />
      <path
         d="m 142.12948,183.14065 q -0.24805,0.94258 -0.66973,1.76113 -0.42168,0.81856 -1.01699,1.41387 -0.57051,0.59531 -1.31465,0.91777 -0.71933,0.34727 -1.5875,0.34727 -1.01699,0 -1.6123,-0.44649 -0.57051,-0.42168 -0.86817,-1.0666 -0.27285,-0.64492 -0.32246,-1.41386 -0.0744,-0.76895 -0.0744,-1.43868 0,-0.47129 0.12402,-1.04179 0.0992,-0.57051 0.29766,-1.16582 0.19844,-0.59532 0.49609,-1.19063 0.32246,-0.59531 0.74414,-1.0914 0.14883,-0.42168 0.44649,-0.74415 0.32246,-0.32246 0.71933,-0.52089 0.42168,-0.22325 0.89297,-0.32246 0.47129,-0.12403 0.91778,-0.12403 0.0744,0 0.12402,0.0248 0.0744,0.0248 0.14883,0.0496 0.32246,0.0248 0.79375,0.24804 0.49609,0.22324 0.94258,0.66973 0.47129,0.44648 0.79375,1.14101 0.32246,0.66973 0.32246,1.63711 0,0.19844 -0.0248,0.4961 -0.0248,0.27285 -0.0496,0.47129 0.57051,-0.22325 1.19063,-0.54571 0.62012,-0.32246 1.19062,-0.66972 0.59532,-0.37207 1.09141,-0.74414 0.49609,-0.37207 0.79375,-0.66973 0.24805,-0.22324 0.42168,-0.24805 0.17363,-0.0248 0.24805,0.0992 0.0744,0.12403 0.0248,0.34727 -0.0496,0.22324 -0.27285,0.49609 -0.12402,0.14883 -0.64492,0.59531 -0.4961,0.44649 -1.19063,0.96739 -0.69453,0.5209 -1.51308,1.01699 -0.81856,0.49609 -1.5627,0.74414 z m -4.19199,-3.77031 q -0.0744,0.22324 -0.0744,0.47129 0,0.39687 0.0496,0.84336 0.0496,0.42168 0.24805,0.76894 0.19844,0.34727 0.62012,0.59531 0.44648,0.22325 1.21543,0.22325 0.12402,0 0.24804,0 0.12403,-0.0248 0.24805,-0.0496 0.0744,-0.32246 0.12402,-0.57051 0.0744,-0.27285 0.0744,-0.47129 0.0496,-0.47129 0,-0.96738 -0.0496,-0.4961 -0.19844,-0.89297 -0.12402,-0.42168 -0.34726,-0.66973 -0.19844,-0.27285 -0.4961,-0.27285 -0.47129,0 -0.91777,0.27285 -0.42168,0.24805 -0.79375,0.71934 z m -1.5875,4.36562 q 0,0.44649 0.0496,0.89297 0.0496,0.42168 0.19844,0.76895 0.14882,0.32246 0.39687,0.5457 0.24805,0.19844 0.64492,0.19844 0.44649,0 0.81856,-0.19844 0.37207,-0.22324 0.66972,-0.5457 0.29766,-0.34727 0.5209,-0.76895 0.24805,-0.44648 0.42168,-0.91777 -0.17363,0.0248 -0.34726,0.0496 -0.14883,0 -0.34727,0 -0.94258,0 -1.63711,-0.54571 -0.66973,-0.5705 -1.0418,-1.43867 -0.14882,0.5209 -0.24804,1.01699 -0.0992,0.4961 -0.0992,0.94258 z"
         style="font-family:Satisfy;-inkscape-font-specification:Satisfy;fill:#ffffff;stroke-width:0.528;stroke-dasharray:none"
         id="path1231" />
      <path
         d="m 157.58281,172.87151 q -0.37207,1.48828 -0.84336,2.85254 -0.44648,1.33945 -0.94258,2.53008 -0.47129,1.16582 -0.96738,2.1332 -0.47129,0.96738 -0.84336,1.68672 -0.24805,1.78594 0,2.87734 0.24805,1.09141 0.96738,1.09141 0.59531,0 1.16582,-0.54571 0.57051,-0.5457 1.01699,-1.33945 0.44649,-0.79375 0.74415,-1.68672 0.32246,-0.91777 0.39687,-1.63711 -0.47129,-0.12402 -0.79375,-0.42168 -0.32246,-0.32246 -0.32246,-0.84336 0,-0.34726 0.19844,-0.64492 0.19843,-0.32246 0.47129,-0.5457 0.27285,-0.22324 0.59531,-0.34727 0.32246,-0.12402 0.59531,-0.12402 0.42168,0 0.71934,0.5457 0.29765,0.5209 0.39687,1.33946 0.99219,-0.0248 2.0836,-0.29766 1.0914,-0.27285 2.05878,-0.69453 0.27286,-0.12402 0.44649,-0.0744 0.17363,0.0496 0.22324,0.19843 0.0744,0.14883 0,0.34727 -0.0744,0.17363 -0.29766,0.27285 -0.5705,0.32246 -1.19062,0.59531 -0.59531,0.24805 -1.19063,0.42168 -0.59531,0.17363 -1.14101,0.27285 -0.5457,0.0992 -0.99219,0.0992 -0.0992,0.99219 -0.62012,2.15801 -0.52089,1.14102 -1.26503,2.1332 -0.74415,0.96739 -1.66192,1.61231 -0.89297,0.64492 -1.76113,0.64492 -0.27285,0 -0.71934,-0.0744 -0.44648,-0.0744 -0.86816,-0.5209 -0.42168,-0.44649 -0.71934,-1.41387 -0.29765,-0.99219 -0.24804,-2.80293 0.0248,-1.21543 0.27285,-2.57969 0.24804,-1.36425 0.59531,-2.72851 0.34727,-1.36426 0.76895,-2.6293 0.44648,-1.28984 0.84335,-2.30684 0.39688,-1.04179 0.71934,-1.73632 0.34727,-0.69453 0.5209,-0.89297 0.22324,-0.27285 0.5209,-0.39688 0.29765,-0.14883 0.57051,-0.19843 0.29765,-0.0744 0.5457,-0.0496 0.24805,0.0248 0.34726,0.0744 0.14883,0.0992 0.0744,1.09141 -0.0496,0.99218 -0.47129,2.55488 z"
         style="fill:#6d28d9;stroke-width:0.528;stroke-dasharray:none"
         id="path1233" />
      <path
         d="m 169.78672,183.14065 q -0.24805,0.94258 -0.66973,1.76113 -0.42168,0.81856 -1.01699,1.41387 -0.57051,0.59531 -1.31465,0.91777 -0.71934,0.34727 -1.5875,0.34727 -1.01699,0 -1.61231,-0.44649 -0.5705,-0.42168 -0.86816,-1.0666 -0.27285,-0.64492 -0.32246,-1.41386 -0.0744,-0.76895 -0.0744,-1.43868 0,-0.47129 0.12403,-1.04179 0.0992,-0.57051 0.29765,-1.16582 0.19844,-0.59532 0.4961,-1.19063 0.32246,-0.59531 0.74414,-1.0914 0.14883,-0.42168 0.44648,-0.74415 0.32246,-0.32246 0.71934,-0.52089 0.42168,-0.22325 0.89297,-0.32246 0.47129,-0.12403 0.91777,-0.12403 0.0744,0 0.12402,0.0248 0.0744,0.0248 0.14883,0.0496 0.32246,0.0248 0.79375,0.24804 0.4961,0.22324 0.94258,0.66973 0.47129,0.44648 0.79375,1.14101 0.32246,0.66973 0.32246,1.63711 0,0.19844 -0.0248,0.4961 -0.0248,0.27285 -0.0496,0.47129 0.57051,-0.22325 1.19062,-0.54571 0.62012,-0.32246 1.19063,-0.66972 0.59531,-0.37207 1.0914,-0.74414 0.4961,-0.37207 0.79375,-0.66973 0.24805,-0.22324 0.42168,-0.24805 0.17364,-0.0248 0.24805,0.0992 0.0744,0.12403 0.0248,0.34727 -0.0496,0.22324 -0.27285,0.49609 -0.12402,0.14883 -0.64492,0.59531 -0.49609,0.44649 -1.19062,0.96739 -0.69454,0.5209 -1.51309,1.01699 -0.81855,0.49609 -1.56269,0.74414 z m -4.192,-3.77031 q -0.0744,0.22324 -0.0744,0.47129 0,0.39687 0.0496,0.84336 0.0496,0.42168 0.24805,0.76894 0.19843,0.34727 0.62011,0.59531 0.44649,0.22325 1.21543,0.22325 0.12403,0 0.24805,0 0.12402,-0.0248 0.24805,-0.0496 0.0744,-0.32246 0.12402,-0.57051 0.0744,-0.27285 0.0744,-0.47129 0.0496,-0.47129 0,-0.96738 -0.0496,-0.4961 -0.19843,-0.89297 -0.12403,-0.42168 -0.34727,-0.66973 -0.19844,-0.27285 -0.49609,-0.27285 -0.47129,0 -0.91778,0.27285 -0.42168,0.24805 -0.79375,0.71934 z m -1.5875,4.36562 q 0,0.44649 0.0496,0.89297 0.0496,0.42168 0.19844,0.76895 0.14883,0.32246 0.39687,0.5457 0.24805,0.19844 0.64493,0.19844 0.44648,0 0.81855,-0.19844 0.37207,-0.22324 0.66973,-0.5457 0.29765,-0.34727 0.5209,-0.76895 0.24804,-0.44648 0.42168,-0.91777 -0.17364,0.0248 -0.34727,0.0496 -0.14883,0 -0.34727,0 -0.94257,0 -1.6371,-0.54571 -0.66973,-0.5705 -1.0418,-1.43867 -0.14883,0.5209 -0.24805,1.01699 -0.0992,0.4961 -0.0992,0.94258 z"
         style="fill:#6d28d9;stroke-width:0.528;stroke-dasharray:none"
         id="path1235" />
      <path
         d="m 179.78299,183.14065 q -0.24805,0.94258 -0.66972,1.76113 -0.42168,0.81856 -1.017,1.41387 -0.5705,0.59531 -1.31465,0.91777 -0.71933,0.34727 -1.5875,0.34727 -1.01699,0 -1.6123,-0.44649 -0.57051,-0.42168 -0.86816,-1.0666 -0.27286,-0.64492 -0.32246,-1.41386 -0.0744,-0.76895 -0.0744,-1.43868 0,-0.47129 0.12402,-1.04179 0.0992,-0.57051 0.29766,-1.16582 0.19844,-0.59532 0.49609,-1.19063 0.32247,-0.59531 0.74415,-1.0914 0.14882,-0.42168 0.44648,-0.74415 0.32246,-0.32246 0.71934,-0.52089 0.42168,-0.22325 0.89296,-0.32246 0.47129,-0.12403 0.91778,-0.12403 0.0744,0 0.12402,0.0248 0.0744,0.0248 0.14883,0.0496 0.32246,0.0248 0.79375,0.24804 0.49609,0.22324 0.94258,0.66973 0.47129,0.44648 0.79375,1.14101 0.32246,0.66973 0.32246,1.63711 0,0.19844 -0.0248,0.4961 -0.0248,0.27285 -0.0496,0.47129 0.57051,-0.22325 1.19063,-0.54571 0.62012,-0.32246 1.19062,-0.66972 0.59532,-0.37207 1.09141,-0.74414 0.49609,-0.37207 0.79375,-0.66973 0.24805,-0.22324 0.42168,-0.24805 0.17363,-0.0248 0.24805,0.0992 0.0744,0.12403 0.0248,0.34727 -0.0496,0.22324 -0.27285,0.49609 -0.12402,0.14883 -0.64492,0.59531 -0.4961,0.44649 -1.19063,0.96739 -0.69453,0.5209 -1.51308,1.01699 -0.81856,0.49609 -1.5627,0.74414 z m -4.19199,-3.77031 q -0.0744,0.22324 -0.0744,0.47129 0,0.39687 0.0496,0.84336 0.0496,0.42168 0.24804,0.76894 0.19844,0.34727 0.62012,0.59531 0.44648,0.22325 1.21543,0.22325 0.12402,0 0.24805,0 0.12402,-0.0248 0.24804,-0.0496 0.0744,-0.32246 0.12403,-0.57051 0.0744,-0.27285 0.0744,-0.47129 0.0496,-0.47129 0,-0.96738 -0.0496,-0.4961 -0.19844,-0.89297 -0.12402,-0.42168 -0.34726,-0.66973 -0.19844,-0.27285 -0.4961,-0.27285 -0.47129,0 -0.91777,0.27285 -0.42168,0.24805 -0.79375,0.71934 z m -1.5875,4.36562 q 0,0.44649 0.0496,0.89297 0.0496,0.42168 0.19844,0.76895 0.14882,0.32246 0.39687,0.5457 0.24805,0.19844 0.64492,0.19844 0.44649,0 0.81856,-0.19844 0.37207,-0.22324 0.66972,-0.5457 0.29766,-0.34727 0.5209,-0.76895 0.24805,-0.44648 0.42168,-0.91777 -0.17363,0.0248 -0.34726,0.0496 -0.14883,0 -0.34727,0 -0.94258,0 -1.63711,-0.54571 -0.66972,-0.5705 -1.04179,-1.43867 -0.14883,0.5209 -0.24805,1.01699 -0.0992,0.4961 -0.0992,0.94258 z"
         style="fill:#6d28d9;stroke-width:0.528;stroke-dasharray:none"
         id="path1237" />
      <path
         d="m 195.1619,182.14846 q -0.57051,0.94258 -1.31465,1.95957 -0.71933,0.99219 -1.53789,1.83555 -0.81855,0.81855 -1.68672,1.36426 -0.86816,0.5457 -1.73632,0.5457 -0.86817,0 -1.26504,-0.59531 -0.37207,-0.57051 -0.34727,-1.28985 0,-0.32246 0.0496,-0.5705 0.0744,-0.24805 0.14883,-0.44649 0.0744,-0.19844 0.14883,-0.39687 0.0992,-0.22325 0.17363,-0.4961 0.0992,-0.32246 0,-0.5705 -0.0744,-0.27286 -0.19844,-0.47129 -0.22324,0.24804 -0.5209,0.44648 -0.27285,0.17363 -0.69453,0.17363 -0.29765,0 -0.5457,-0.27285 -0.24805,-0.29765 -0.24805,-0.71933 0,-0.34727 0.14883,-0.57051 0.17363,-0.22324 0.37207,-0.34727 0.22324,-0.12402 0.44648,-0.17363 0.22325,-0.0496 0.37207,-0.0496 0.0744,0 0.29766,0.0248 0.24805,0.0248 0.5209,0.0744 0.89297,-0.71934 1.26504,-1.28984 0.39687,-0.59532 0.0744,-1.06661 -0.19843,-0.32246 -0.49609,-0.32246 -0.29766,-0.0248 -0.62012,0.14883 -0.32246,0.14883 -0.64492,0.39688 -0.29766,0.24804 -0.5457,0.47128 -0.4961,0.4961 -1.11621,1.19063 -0.59532,0.66973 -0.99219,1.11621 -0.17363,0.74414 -0.34727,1.5627 -0.14883,0.71933 -0.34726,1.63711 -0.17364,0.89296 -0.37207,1.86035 -0.14883,0.0744 -0.32246,0.0992 -0.14883,0.0496 -0.27286,0.0744 -0.14882,0.0248 -0.29765,0.0248 -0.19844,0 -0.37207,-0.0248 -0.17363,0 -0.27285,-0.12402 -0.12403,-0.0992 -0.12403,-0.34727 -0.0248,-0.24805 0.12403,-0.69453 0.19843,-0.64492 0.49609,-1.71152 0.29766,-1.09141 0.62012,-2.38125 0.32246,-1.28985 0.64492,-2.67891 0.34726,-1.41387 0.64492,-2.67891 0.29766,-1.28984 0.49609,-2.30683 0.22325,-1.0418 0.32247,-1.63711 0.0744,-0.64492 0.14882,-1.24024 0.0496,-0.49609 0.0496,-0.96738 0.0248,-0.49609 -0.0496,-0.74414 0.12403,-0.12402 0.34727,-0.22324 0.22324,-0.0992 0.49609,-0.14883 0.27285,-0.0744 0.64492,-0.12402 0.42168,-0.0496 0.69454,-0.0248 0.29765,0.0248 0.42168,0.24805 0.14882,0.24805 0.0496,0.84336 -0.0744,0.57051 -0.34727,1.6123 -0.34727,1.33946 -0.71934,2.45567 -0.34726,1.0914 -0.69453,2.05879 -0.32246,0.96738 -0.64492,1.88515 -0.29766,0.89297 -0.5457,1.83555 0.49609,-0.71934 1.24023,-1.51309 0.74414,-0.81855 1.68672,-1.33945 0.99219,-0.5209 1.63711,-0.5209 0.79375,0 1.14102,0.5457 0.34726,0.5209 0.32246,1.24024 -0.0248,0.57051 -0.29766,1.0666 -0.24805,0.47129 -0.62012,0.89297 -0.37207,0.39687 -0.79375,0.69453 -0.42168,0.29766 -0.71933,0.49609 0.34726,0.19844 0.59531,0.54571 0.27285,0.32246 0.24805,0.81855 -0.0248,0.66973 -0.27286,1.19063 -0.22324,0.49609 -0.22324,0.91777 0.0248,0.32246 0.12403,0.47129 0.12402,0.14883 0.49609,0.14883 0.66973,0 1.38906,-0.57051 0.74414,-0.57051 1.38906,-1.31465 0.64493,-0.74414 1.19063,-1.46347 0.5457,-0.74415 0.84336,-1.09141 0.42168,-0.44649 0.69453,-0.22324 0.29766,0.19843 -0.0496,0.76894 z"
         style="fill:#6d28d9;stroke-width:0.528;stroke-dasharray:none"
         id="path1239" />
    </g>
  </g>
</svg>
