<?xml version="1.0" encoding="UTF-8" standalone="no"?>
<!-- Created with Inkscape (http://www.inkscape.org/) -->

<svg
   width="586.84583mm"
   height="89.693756mm"
   viewBox="0 0 586.84583 89.693756"
   version="1.1"
   id="svg5"
   inkscape:version="1.2 (dc2aedaf03, 2022-05-15)"
   sodipodi:docname="Page 1.svg"
   inkscape:export-filename="assets/dark/assets.svg"
   inkscape:export-xdpi="300"
   inkscape:export-ydpi="300"
   xmlns:inkscape="http://www.inkscape.org/namespaces/inkscape"
   xmlns:sodipodi="http://sodipodi.sourceforge.net/DTD/sodipodi-0.dtd"
   xmlns="http://www.w3.org/2000/svg"
   xmlns:svg="http://www.w3.org/2000/svg">
  <sodipodi:namedview
     id="namedview7"
     pagecolor="#000000"
     bordercolor="#999999"
     borderopacity="1"
     inkscape:showpageshadow="0"
     inkscape:pageopacity="1"
     inkscape:pagecheckerboard="0"
     inkscape:deskcolor="#d1d1d1"
     inkscape:document-units="mm"
     showgrid="false"
     inkscape:zoom="0.60234445"
     inkscape:cx="983.65644"
     inkscape:cy="68.897456"
     inkscape:window-width="1920"
     inkscape:window-height="1018"
     inkscape:window-x="0"
     inkscape:window-y="30"
     inkscape:window-maximized="1"
     inkscape:current-layer="layer1" />
  <defs
     id="defs2" />
  <g
     inkscape:label="Layer 1"
     inkscape:groupmode="layer"
     id="layer1"
     transform="translate(219.10731,-1215.0193)">
    <g
       id="g441"
       transform="translate(-20.105231,429.59323)">
      <path
         d="m -129.21979,802.9665 q -0.90828,3.6235 -2.05877,6.94503 -1.08994,3.26115 -2.30098,6.15994 -1.15049,2.8384 -2.36153,5.19367 -1.15049,2.35528 -2.05878,4.10663 -0.60552,4.34819 0,7.00542 0.60552,2.65723 2.36154,2.65723 1.45325,0 2.84595,-1.32861 1.39269,-1.32862 2.48263,-3.26115 1.08994,-1.93253 1.81657,-4.10662 0.78717,-2.23449 0.96883,-3.98585 -1.15049,-0.30195 -1.93767,-1.02665 -0.78718,-0.78509 -0.78718,-2.05332 0,-0.84548 0.48442,-1.57018 0.48442,-0.78509 1.15049,-1.32861 0.66608,-0.54353 1.45325,-0.84548 0.78718,-0.30196 1.45326,-0.30196 1.02938,0 1.75601,1.32861 0.72662,1.26823 0.96883,3.26115 2.42208,-0.0604 5.08638,-0.7247 2.66429,-0.66431 5.02583,-1.69097 0.66607,-0.30195 1.08993,-0.18116 0.42387,0.12078 0.54497,0.48313 0.18165,0.36235 0,0.84548 -0.18164,0.42275 -0.72662,0.66431 -1.3927,0.78509 -2.9065,1.4494 -1.45326,0.60391 -2.90651,1.02666 -1.45325,0.42274 -2.7854,0.6643 -1.33214,0.24157 -2.42208,0.24157 -0.24221,2.41567 -1.5138,5.25407 -1.2716,2.77801 -3.08816,5.19367 -1.81656,2.35527 -4.05699,3.92547 -2.17988,1.57018 -4.2992,1.57018 -0.66608,0 -1.75602,-0.18114 -1.08993,-0.18114 -2.11932,-1.2682 -1.02939,-1.08706 -1.75601,-3.44234 -0.72663,-2.41566 -0.60552,-6.82425 0.0606,-2.95918 0.66607,-6.28072 0.60552,-3.32154 1.45325,-6.64307 0.84773,-3.32154 1.87712,-6.40151 1.08994,-3.14036 2.05877,-5.61641 0.96883,-2.53645 1.75601,-4.22741 0.84773,-1.69096 1.2716,-2.1741 0.54496,-0.6643 1.27159,-0.96626 0.72663,-0.36235 1.3927,-0.48313 0.72663,-0.18117 1.33215,-0.12079 0.60552,0.0604 0.84773,0.18117 0.36331,0.24156 0.18164,2.65722 -0.1211,2.41567 -1.15049,6.22033 z"
         style="font-size:25.4px;line-height:1.25;font-family:Satisfy;-inkscape-font-specification:Satisfy;fill:#ffffff;stroke-width:1.28817"
         id="path1137" />
      <path
         d="m -109.84311,838.53714 q -2.30098,0 -3.75423,-0.72471 -1.45325,-0.72469 -2.30098,-1.75134 -0.78718,-1.08706 -1.15049,-2.29489 -0.30276,-1.26823 -0.30276,-2.29488 0,-1.81175 0.30276,-3.80467 0.30276,-2.05331 0.72663,-3.74427 0.42386,-1.75136 0.72662,-2.95919 0.36331,-1.20783 0.48442,-1.50979 0.54496,-1.75136 1.3927,-3.01958 0.90828,-1.32861 2.48263,-1.81175 0.60552,-0.12078 1.2716,-0.24156 0.54497,-0.0604 1.08994,-0.0604 0.60552,0 1.08993,0.18117 -1.6349,4.16701 -2.60374,6.94502 -0.90828,2.77802 -1.3927,4.52937 -0.54497,1.99292 -0.66607,3.20075 -0.30276,2.71762 0.48442,4.10663 0.78718,1.38901 3.20926,1.38901 1.57435,0 3.02761,-1.14744 1.45325,-1.20783 2.66429,-3.07997 -0.18165,-0.96627 -0.18165,-1.99292 0,-1.93253 0.30276,-3.74428 0.36332,-1.87214 0.78718,-3.44232 0.48442,-1.63057 0.96883,-2.89879 0.54497,-1.26823 0.90829,-1.99292 0.66607,-1.4494 1.211038,-1.75136 0.544972,-0.36235 1.756012,-0.42274 0.484418,-0.0604 0.787178,0 0.363312,0 0.605521,0.0604 0.726625,0.18117 0.726625,0.7247 0,0.96627 -0.121105,2.8988 -0.121106,1.93253 -0.726625,3.98584 -0.423866,1.69096 -0.847731,2.89879 -0.363312,1.14744 -0.726625,1.99293 -0.363312,0.78509 -0.726625,1.32861 -0.363315,0.48313 -0.666074,0.90587 0.121106,1.81175 0.302759,2.8988 0.181671,1.08705 0.423866,1.69096 0.302762,0.54353 0.666074,0.78509 0.423866,0.18116 0.908281,0.18116 0.847731,0 1.998221,-0.78508 1.15049,-0.84549 2.361533,-2.05332 1.271594,-1.26822 2.482637,-2.71762 1.271594,-1.50979 2.30098,-2.8384 1.029387,-1.32861 1.756012,-2.29488 0.726625,-1.02666 0.908281,-1.26822 0.423866,-0.54353 0.787178,-0.66431 0.423865,-0.12078 0.666075,0.12079 0.242211,0.18116 0.242211,0.6643 0.06054,0.42275 -0.242211,0.96627 -1.211044,2.29488 -3.027608,4.89171 -1.756012,2.53645 -3.814783,4.71055 -1.998221,2.17409 -4.056992,3.62348 -2.058772,1.44939 -3.875336,1.44939 -1.634909,0 -2.603747,-1.08703 -0.90828,-1.14745 -1.57435,-3.26115 -1.3927,2.17411 -3.26982,3.38193 -1.87711,1.14744 -4.17809,1.14744 z"
         style="font-size:25.4px;line-height:1.25;font-family:Satisfy;-inkscape-font-specification:Satisfy;fill:#ffffff;stroke-width:1.28817"
         id="path1139" />
      <path
         d="m -72.361343,815.34677 q 0.787176,-0.60391 1.513803,-0.90587 0.787178,-0.36235 1.392699,-0.48313 0.666072,-0.18117 1.332147,-0.12079 1.634906,0.12079 1.998218,1.02666 0.423866,0.90587 0.121106,2.89879 -0.181646,1.02666 -0.726627,2.59684 -0.544969,1.57018 -1.271594,3.86506 -0.726625,2.23449 -1.574355,5.13328 -0.787178,2.8988 -1.513803,6.52229 -0.726625,2.95919 -1.574356,6.82425 -0.726624,3.38192 -1.756011,8.15285 -0.968834,4.77093 -2.119325,10.93087 -0.302759,1.5098 -1.332146,1.75137 -0.968834,0.24152 -2.058771,-0.24152 -0.423866,-0.24152 -0.787178,-0.54352 -0.302762,-0.30197 -0.666074,-0.72471 -0.363313,-0.36235 -0.605522,-1.02665 1.392699,-5.07289 2.422086,-9.23992 1.089937,-4.16701 1.937668,-7.24698 0.908281,-3.56309 1.695459,-6.40151 0.30276,-1.26821 0.544969,-2.47605 0.302762,-1.26822 0.605521,-2.47605 -0.787178,1.26822 -1.695459,2.41567 -0.908281,1.14744 -1.998221,1.99291 -1.089937,0.84549 -2.361533,1.26822 -1.21104,0.48314 -2.543187,0.30195 -3.269817,-0.42273 -4.662514,-2.41564 -1.332148,-1.99293 -1.15049,-5.19368 0.06054,-1.26823 0.363313,-2.77802 0.302759,-1.50978 0.666072,-2.89879 0.363312,-1.38901 0.666074,-2.47605 0.363312,-1.14744 0.544969,-1.63058 0.726625,-2.29487 1.029387,-3.92545 0.363312,-1.63057 -0.484419,-2.71762 0.847731,-0.54352 1.574356,-0.7247 0.787178,-0.24157 1.392699,-0.36234 0.666072,-0.0604 1.332147,0 1.634906,0.24156 1.877115,1.20783 0.302762,0.96626 -0.181647,2.89879 -0.242211,1.02666 -0.787178,2.65723 -0.544968,1.57018 -1.15049,3.26114 -0.605521,1.69097 -1.089937,3.14037 -0.484418,1.389 -0.544969,1.99291 -0.544971,2.71763 -0.06056,4.22741 0.484416,1.4494 2.119324,1.4494 0.787178,0 1.756012,-0.66431 0.968834,-0.72469 1.937668,-1.87213 1.029387,-1.14744 1.998221,-2.59684 0.968834,-1.50979 1.756012,-3.01958 0.847728,-1.50979 1.45325,-2.95919 0.666074,-1.44939 0.968833,-2.59683 0.423866,-2.23449 0.544969,-3.50271 0.121106,-1.26822 -0.847728,-2.29488 z"
         style="font-size:25.4px;line-height:1.25;font-family:Satisfy;-inkscape-font-specification:Satisfy;fill:#ffffff;stroke-width:1.28817"
         id="path1141" />
      <path
         d="m -34.879582,834.79285 q 0,-1.26822 0.242212,-2.89879 0.302762,-1.63057 0.726627,-3.32154 0.423863,-1.75135 0.847728,-3.38192 0.423866,-1.63058 0.726625,-2.8988 0.363315,-1.57018 -0.06054,-2.41566 -0.423866,-0.84548 -1.453253,-0.84548 -0.484415,0 -1.937667,0.84548 -1.3927,0.84548 -3.088159,2.95919 -1.634906,2.05331 -3.269814,5.61641 -1.574356,3.50271 -2.482637,8.93795 -1.15049,0.60393 -2.179877,0.78509 -0.544968,0.12076 -0.968834,0.18114 -1.211043,0.0604 -1.574355,-0.42273 -0.363313,-0.42274 0.121105,-2.1741 0.242212,-0.84548 0.847729,-2.71762 0.666074,-1.87213 1.271596,-4.04623 0.605521,-2.23449 1.029384,-4.40858 0.484418,-2.23449 0.484418,-3.86506 0,-1.14744 -0.423865,-1.57018 -0.363312,-0.42275 -1.089937,-0.42275 -0.544969,0 -1.816565,0.60392 -1.271594,0.60392 -2.845949,2.35527 -1.574356,1.75136 -3.148711,4.89172 -1.513803,3.07997 -2.60374,8.03207 v -0.12078 q -0.121106,0.48313 -0.242212,0.96627 -0.121105,0.42273 -0.181646,0.90587 -0.06056,0.48314 -0.181647,0.90588 l -3.027607,1.3286 q -0.30276,0.12076 -0.787178,0.18114 -0.423863,0.0604 -0.847728,-0.18114 -0.363313,-0.18114 -0.544969,-0.84547 -0.181646,-0.6643 0.121106,-1.99293 l 3.814783,-15.76219 q 0.181646,-0.78509 0.302762,-1.50979 0.121106,-0.66431 0.121106,-1.26823 0.06057,-0.6643 -0.06056,-1.08704 1.029386,-0.48314 1.816564,-0.7247 0.787178,-0.24157 1.271594,-0.36235 0.605521,-0.18119 1.029387,-0.18119 1.937668,0 1.271596,3.32154 -0.242212,0.96626 -0.726628,2.8384 1.150491,-1.4494 2.422087,-2.71762 1.332146,-1.32862 2.664292,-2.35527 1.332147,-1.02666 2.664293,-1.63057 1.3927,-0.60392 2.724846,-0.60392 1.029387,0 1.695459,0.60392 0.726627,0.60391 1.08994,1.63057 0.423865,0.96626 0.484415,2.35527 0.06056,1.32861 -0.121105,2.77801 0.968834,-1.26822 2.119324,-2.53644 1.211043,-1.32862 2.482636,-2.35527 1.332147,-1.02666 2.724846,-1.69097 1.392699,-0.6643 2.785399,-0.6643 1.634906,0 2.482636,0.96626 0.908281,0.96627 1.211043,2.47605 0.363313,1.50979 0.181647,3.26115 -0.121106,1.75135 -0.484418,3.38193 l -2.058772,8.15285 q -0.666074,3.01958 1.271594,3.01958 1.513803,0 3.330367,-1.44939 1.816565,-1.4494 3.512024,-3.44232 1.756011,-1.99293 3.269814,-4.10663 1.513803,-2.1137 2.54319,-3.38193 0.363312,-0.42274 0.726625,-0.48313 0.423865,-0.0604 0.666074,0.18117 0.30276,0.18116 0.30276,0.6643 0.06054,0.48313 -0.30276,1.20784 -1.211043,2.1137 -2.967055,4.71054 -1.756012,2.53644 -3.875336,4.77093 -2.058771,2.23448 -4.420304,3.74428 -2.361534,1.5098 -4.904723,1.5098 -0.847731,0 -1.695459,-0.18114 -0.787178,-0.18114 -1.513803,-0.66431 -0.666074,-0.48314 -1.08994,-1.26822 -0.423862,-0.84547 -0.423862,-2.11371 z"
         style="font-size:25.4px;line-height:1.25;font-family:Satisfy;-inkscape-font-specification:Satisfy;fill:#ffffff;stroke-width:1.28817"
         id="path1143" />
      <path
         d="m 8.8390511,825.00942 q -1.8165646,2.65723 -4.1175451,5.19368 -2.3009804,2.47605 -4.90472033,4.46897 -2.54318947,1.93254 -5.26803527,3.14036 -2.6642928,1.20784 -5.2074824,1.20784 -1.332146,0 -2.906502,-0.66432 -1.513805,-0.6039 -2.785399,-1.93253 -1.271593,-1.32861 -2.058771,-3.44231 -0.726627,-2.11371 -0.423865,-5.13329 0.242211,-2.47605 1.513802,-5.19367 1.332147,-2.77801 3.209262,-5.07289 1.937668,-2.29488 4.2992013,-3.80467 2.4220861,-1.50979 4.8441699,-1.50979 2.3009804,0 3.3303673,1.14744 1.02938684,1.14744 0.90828107,2.83841 -0.18164645,1.87214 -1.08993727,3.44231 -0.8477307,1.57018 -2.0587714,2.83841 -1.211043,1.26822 -2.6037424,2.29488 -1.3321464,1.02665 -2.5431895,1.87214 -1.332146,0.90587 -2.543189,1.75135 -1.211041,0.78509 -2.119325,1.4494 0.06054,1.50979 0.544969,2.53644 0.484418,1.02666 1.211043,1.69097 0.726625,0.60391 1.634908,0.90587 0.9688345,0.24157 1.9376685,0.24157 2.0587713,0 4.2992012,-1.26822 2.2404276,-1.32862 4.35975174,-3.14036 2.17987706,-1.87214 3.99643926,-3.86506 1.8771175,-1.99293 3.0881582,-3.44232 0.4238653,-0.48314 0.8477307,-0.54353 0.4844182,-0.12078 0.7266248,0.12079 0.302762,0.18116 0.302762,0.7247 0,0.48313 -0.4238653,1.14743 z m -15.5013438,-9.3003 q -0.7266249,0 -1.7560117,0.7247 -0.968834,0.7247 -1.9376676,2.1137 -0.968834,1.32862 -1.816565,3.32154 -0.847728,1.93253 -1.271594,4.46898 0.726625,-0.54353 1.574356,-1.08705 0.847731,-0.60392 1.695459,-1.26823 2.6037422,-1.99291 3.6331267,-3.50271 1.0293868,-1.50978 1.1504902,-2.59683 0.1211057,-1.14744 -0.2422116,-1.63057 -0.3633124,-0.54353 -1.0293869,-0.54353 z"
         style="font-size:25.4px;line-height:1.25;font-family:Satisfy;-inkscape-font-specification:Satisfy;fill:#ffffff;stroke-width:1.28817"
         id="path1145" />
      <path
         d="m 35.542535,825.55295 q -0.847731,1.20783 -2.179877,3.01957 -1.332147,1.75136 -2.785399,3.56311 -1.392699,1.75135 -2.785396,3.26114 -1.332149,1.44941 -2.24043,2.0533 -0.605521,0.36236 -1.392699,0.60393 -0.787178,0.24152 -1.634906,0.30195 -0.787178,0.0604 -1.513803,-0.12076 -0.726627,-0.12076 -1.271596,-0.48312 -0.544968,-0.42276 -0.908281,-1.20784 -0.302762,-0.66431 -0.605521,-1.75135 -0.242212,-1.08705 -0.181647,-2.71762 -1.453252,2.41566 -3.209261,3.74428 -1.756012,1.26823 -3.330368,1.87213 -1.8165644,0.6643 -3.6331266,0.78509 -0.8477306,0 -1.8165646,-0.6039 -0.968834,-0.54355 -1.6349084,-1.75137 -0.666072,-1.26822 -0.8477282,-3.20075 -0.1816465,-1.99292 0.4844157,-4.71054 0.8477307,-3.68389 2.6642929,-6.70346 1.8771175,-3.01958 4.0569942,-5.13329 2.179875,-2.17409 4.299199,-3.26114 2.119324,-1.08705 3.512024,-0.96626 1.634908,0.30195 2.664293,0.96626 0.84773,0.60391 1.089939,1.81175 0.30276,1.14744 -0.968834,3.07997 0.847729,-0.18117 1.3927,-0.24157 0.605519,-0.0604 0.908281,-0.0604 0.363312,0 0.484416,0.0604 0.06057,0.12078 0.06057,0.54352 0,0.36235 -0.181647,1.38901 -0.181646,1.02665 -0.544968,2.77801 -0.363313,1.75135 -0.968834,4.52937 -0.121106,0.54352 -0.242212,1.02665 -0.06057,0.42274 -0.181646,0.90588 -0.06057,0.42274 -0.181647,1.02665 -0.121106,0.60392 -0.302759,1.50979 -0.06057,0.54353 -0.06057,1.20783 0.06057,0.60392 0.242212,1.14744 0.181646,0.54352 0.544969,0.90588 0.423865,0.30195 1.15049,0.30195 0.605521,0 1.574355,-0.7247 0.968834,-0.78509 2.058772,-1.93253 1.089937,-1.20783 2.240427,-2.59683 1.211043,-1.4494 2.24043,-2.77801 1.029387,-1.32862 1.816562,-2.35527 0.847731,-1.02666 1.211043,-1.50979 0.484419,-0.54353 0.968834,-0.60392 0.484419,-0.12078 0.726625,0.24157 0.242212,0.36235 0.06056,1.08705 -0.121105,0.7247 -0.847728,1.69096 z m -17.741774,2.65722 q 0.302762,-1.20783 0.726625,-2.8384 0.423865,-1.63057 0.726627,-3.14036 0.30276,-1.50979 0.423866,-2.47605 0.181646,-1.02666 -0.06057,-0.96627 -0.302762,0.0604 -0.666075,0.18117 -0.302759,0.12078 -0.787178,0.18116 -0.484415,0.0604 -0.968834,0.18117 0.484419,-0.96627 0.544972,-1.57019 0.121105,-0.6643 0.06054,-1.02665 -0.06054,-0.42274 -0.242211,-0.66431 -0.666072,-0.54352 -2.361531,0.90587 -1.634909,1.38901 -3.814786,5.19368 -0.908281,1.57018 -1.4532494,3.38193 -0.5449687,1.75135 -0.7871778,3.32153 -0.1816465,1.57018 -0.060565,2.77801 0.1211058,1.14744 0.4844182,1.50979 0.666072,0.66431 1.513803,0.66431 0.84773,-0.0604 1.695458,-0.48313 0.908282,-0.48314 1.756012,-1.20783 0.908281,-0.7247 1.574356,-1.50979 0.726625,-0.78509 1.15049,-1.4494 0.484418,-0.66431 0.544969,-0.96627 z"
         style="font-size:25.4px;line-height:1.25;font-family:Satisfy;-inkscape-font-specification:Satisfy;fill:#ffffff;stroke-width:1.28817"
         id="path1147" />
      <path
         d="m 41.779399,835.51754 q 1.877115,0 4.117545,-1.44938 2.300981,-1.50979 4.420305,-3.50272 2.179877,-1.99292 3.935889,-4.04623 1.816562,-2.1137 2.724843,-3.38193 0.544971,-0.78509 1.029387,-0.90587 0.484418,-0.18117 0.726625,0.12078 0.242211,0.30196 0.181646,0.96627 -0.06054,0.60392 -0.544968,1.389 -0.423866,0.7247 -1.45325,2.11371 -0.968834,1.32861 -2.361533,2.95918 -1.332147,1.57019 -3.088159,3.26115 -1.695458,1.63057 -3.572576,3.01959 -1.877115,1.3286 -3.875336,2.17407 -1.998218,0.90587 -3.935886,0.90587 -2.664296,0 -4.480858,-1.02665 -1.756012,-0.96626 -2.845949,-2.53643 -1.029387,-1.57019 -1.453252,-3.44232 -0.423865,-1.93253 -0.423865,-3.80467 0,-1.87214 0.84773,-4.65015 0.847731,-2.77801 2.482637,-5.31446 1.695459,-2.59684 4.238648,-4.40858 2.54319,-1.87214 5.99466,-1.87214 1.937668,0 3.269815,1.32861 1.392699,1.32862 1.332146,3.6235 0,1.08705 -0.363312,2.17409 -0.363313,1.02666 -0.968834,1.87214 -0.605522,0.78509 -1.45325,1.26822 -0.787178,0.48314 -1.756012,0.48314 -0.787177,0 -1.211043,-0.54353 -0.363312,-0.60391 -0.484416,-1.32861 -0.06057,-0.78509 0,-1.50979 0.121106,-0.7247 0.242212,-0.96627 0.302762,-0.42274 0.666074,-0.60391 0.363313,-0.18117 0.847731,-0.42274 0.363312,-0.18117 0.544969,-0.54353 0.242211,-0.36235 0.242211,-0.78509 0,-0.42274 -0.242211,-0.72469 -0.242212,-0.30196 -0.787178,-0.30196 -0.544969,0 -1.998221,0.90587 -1.392699,0.84548 -2.906502,2.59684 -1.45325,1.69096 -2.60374,4.2878 -1.15049,2.59683 -1.211043,6.03915 -0.06056,1.99292 0.544969,3.26115 0.605521,1.26822 1.513802,1.99292 0.908284,0.7247 1.998221,1.02666 1.089938,0.30194 2.119324,0.30194 z"
         style="font-size:25.4px;line-height:1.25;font-family:Satisfy;-inkscape-font-specification:Satisfy;fill:#ffffff;stroke-width:1.28817"
         id="path1149" />
      <path
         d="m 51.709958,837.26891 q -0.423863,0.6643 -0.908281,0.84547 -0.544969,0.24152 -0.908281,0.0604 -0.423865,-0.12076 -0.544969,-0.60393 -0.121106,-0.48311 0.242212,-1.20782 0.181646,-0.36235 0.84773,-1.63057 0.605522,-1.26822 1.513803,-3.01958 0.847731,-1.81175 1.877115,-3.86506 1.029387,-2.1137 1.937668,-3.98584 0.968834,-1.87214 1.756012,-3.32154 0.787178,-1.50979 1.15049,-2.17409 -0.666072,-0.60392 -0.908281,-0.84548 -0.242212,-0.30196 -0.363313,-1.20784 -0.121105,-0.78509 0.363313,-2.05331 0.484418,-1.26822 1.271596,-2.41566 0.787175,-1.20783 1.756009,-2.05331 0.968834,-0.84549 1.877118,-0.84549 1.695459,0 2.361533,1.08705 0.726625,1.08705 0.847728,2.23449 0.121106,0.78509 -0.121106,1.99292 -0.242211,1.20783 -0.908283,2.1741 0.181671,0.12078 0.484418,0.30195 0.30276,0.12079 0.968834,0.12079 0.968834,0 1.332147,-0.12079 0.423865,-0.12078 1.271596,-0.12078 1.029384,0 1.695458,0.54353 0.666072,0.48313 1.089938,1.26822 0.423865,0.7247 0.605521,1.63057 0.242212,0.84548 0.30276,1.57018 0.181646,1.50979 -0.787178,3.14036 -0.968834,1.63057 -2.361531,3.5631 -0.84773,1.20783 -1.695461,2.71762 -0.847728,1.50979 -0.726625,2.71762 0.121106,0.78509 0.423865,1.26823 0.30276,0.48312 1.695459,0.48312 1.029387,0 2.24043,-0.72469 1.271594,-0.78509 2.54319,-1.93253 1.332146,-1.20783 2.60374,-2.59684 1.271596,-1.44939 2.361533,-2.77801 1.089937,-1.38901 1.816562,-2.47605 0.787178,-1.08705 1.150493,-1.57018 0.302759,-0.48313 0.78717,-0.66431 0.484423,-0.18117 0.847741,0 0.363317,0.18116 0.423858,0.7247 0.121081,0.54352 -0.423858,1.4494 -0.363318,0.60391 -1.271599,1.93253 -0.84773,1.32861 -2.119324,2.95918 -1.211043,1.63057 -2.724846,3.38193 -1.513802,1.69096 -3.209264,3.14036 -1.634906,1.38901 -3.330367,2.29489 -1.634906,0.90587 -3.148709,0.90587 -1.574355,0 -2.603742,-0.60392 -1.029384,-0.60393 -1.695459,-1.4494 -0.605521,-0.90587 -0.908281,-1.93253 -0.242211,-1.08705 -0.181646,-1.99292 0.06054,-0.7247 0.363312,-1.50979 0.363313,-0.84548 0.787178,-1.69096 0.484416,-0.90588 0.968834,-1.75136 0.544968,-0.90587 0.968834,-1.75135 1.029384,-1.75136 1.634906,-2.95919 0.666074,-1.26822 0.666074,-2.11371 0,-0.54352 -0.242211,-0.96626 -0.242212,-0.42274 -0.787178,-0.42274 -0.363313,0 -0.544969,0.0604 -0.121106,0 -0.302762,0 -0.121106,0 -0.423863,0.0604 -0.242211,0 -0.787177,0 -0.787178,0 -1.332147,-0.24156 -0.544971,-0.24157 -1.029387,-0.36235 -0.242211,0.42274 -1.089937,1.81174 -0.847731,1.38901 -1.998221,3.26115 -1.089937,1.87214 -2.361533,3.92545 -1.211043,2.05331 -2.300981,3.86506 -1.089937,1.75135 -1.816564,3.01958 -0.787178,1.20783 -0.968834,1.4494 z"
         style="font-size:25.4px;line-height:1.25;font-family:Satisfy;-inkscape-font-specification:Satisfy;fill:#ffffff;stroke-width:1.28817"
         id="path1151" />
      <path
         d="m 95.125838,815.34677 q 0.787176,-0.60391 1.513786,-0.90587 0.787175,-0.36235 1.392704,-0.48313 0.66607,-0.18117 1.332139,-0.12079 1.634913,0.12079 1.998233,1.02666 0.42386,0.90587 0.12108,2.89879 -0.18162,1.02666 -0.72663,2.59684 -0.54497,1.57018 -1.271601,3.86506 -0.726611,2.23449 -1.574351,5.13328 -0.787175,2.8988 -1.51381,6.52229 -0.72661,2.95919 -1.574351,6.82425 -0.72661,3.38192 -1.755997,8.15285 -0.968846,4.77093 -2.119338,10.93087 -0.302753,1.5098 -1.33214,1.75137 -0.968846,0.24152 -2.058773,-0.24152 -0.423858,-0.24152 -0.787176,-0.54352 -0.302752,-0.30197 -0.666069,-0.72471 -0.363318,-0.36235 -0.605529,-1.02665 1.392704,-5.07289 2.422091,-9.23992 1.089928,-4.16701 1.937668,-7.24698 0.908281,-3.56309 1.695456,-6.40151 0.302753,-1.26821 0.544964,-2.47605 0.302752,-1.26822 0.605529,-2.47605 -0.787175,1.26822 -1.695456,2.41567 -0.908282,1.14744 -1.998233,1.99291 -1.089928,0.84549 -2.361526,1.26822 -1.211034,0.48314 -2.543197,0.30195 -3.26981,-0.42273 -4.662507,-2.41564 -1.332146,-1.99293 -1.15049,-5.19368 0.06054,-1.26823 0.363313,-2.77802 0.302759,-1.50978 0.666072,-2.89879 0.363312,-1.38901 0.666074,-2.47605 0.363312,-1.14744 0.544969,-1.63058 0.726625,-2.29487 1.029387,-3.92545 0.363312,-1.63057 -0.484419,-2.71762 0.847731,-0.54352 1.574356,-0.7247 0.787175,-0.24157 1.392704,-0.36234 0.66607,-0.0604 1.332139,0 1.634916,0.24156 1.877127,1.20783 0.302753,0.96626 -0.181622,2.89879 -0.242162,1.02666 -0.787175,2.65723 -0.544964,1.57018 -1.150493,3.26114 -0.605504,1.69097 -1.089927,3.14037 -0.484423,1.389 -0.544964,1.99291 -0.544988,2.71763 -0.06054,4.22741 0.484423,1.4494 2.119339,1.4494 0.787176,0 1.755997,-0.66431 0.968847,-0.72469 1.937668,-1.87213 1.029387,-1.14744 1.998233,-2.59684 0.968822,-1.50979 1.755997,-3.01958 0.847741,-1.50979 1.453245,-2.95919 0.666094,-1.44939 0.968847,-2.59683 0.423858,-2.23449 0.544963,-3.50271 0.121082,-1.26822 -0.847716,-2.29488 z"
         style="font-size:25.4px;line-height:1.25;font-family:Satisfy;-inkscape-font-specification:Satisfy;fill:#ffffff;stroke-width:1.28817"
         id="path1153" />
      <path
         d="m 100.03054,863.35805 q -0.423861,-0.18114 -0.847719,-0.54352 -0.363317,-0.30195 -0.726635,-0.78509 -0.363317,-0.42273 -0.605504,-1.08703 1.695456,-6.4619 2.906488,-11.23285 1.15049,-4.77094 1.99821,-7.97167 0.90831,-3.74427 1.57438,-6.28073 0.6055,-2.41566 1.21103,-4.83132 0.48442,-2.11371 1.02939,-4.52937 0.60552,-2.41566 1.08992,-4.52937 0.60553,-2.35527 0.72664,-3.74427 0.12108,-1.4494 -0.90828,-2.47606 0.72663,-0.60391 1.45324,-0.90587 0.78718,-0.36235 1.39271,-0.48313 0.66607,-0.18117 1.33213,-0.12079 1.63492,0.12079 1.99824,1.02666 0.42386,0.90587 0.12108,2.89879 -0.0605,0.30196 -0.12108,0.54353 0,0.18116 0,0.42274 0.84771,-0.96627 1.8771,-1.87214 1.02939,-0.90587 2.05877,-1.63057 1.08996,-0.7247 2.17988,-1.14744 1.1505,-0.48313 2.17988,-0.48313 1.39271,0 2.24042,0.72469 0.90828,0.66431 1.39271,1.81175 0.48442,1.14744 0.60553,2.59684 0.12108,1.389 0.0605,2.77801 -0.0605,1.50979 -0.54497,3.20075 -0.42385,1.69097 -1.21103,3.44232 -0.78718,1.75136 -1.81656,3.44232 -1.02939,1.69096 -2.17988,3.14036 0.24216,0.0604 0.30275,0.12079 0.0605,0 0.0605,0.0604 0,0 0.0605,0.0604 0.12108,0 0.42386,0 1.3927,0 2.84595,-0.7247 1.45327,-0.7247 2.84595,-1.81175 1.3927,-1.14743 2.6643,-2.47605 1.33214,-1.32861 2.36153,-2.53644 1.08995,-1.26823 1.81656,-2.23449 0.72663,-1.02666 1.08995,-1.4494 0.48442,-0.60391 0.90828,-0.78509 0.42386,-0.24157 0.66607,-0.0604 0.24216,0.18117 0.24216,0.7247 0,0.48313 -0.36331,1.26822 -0.24217,0.54353 -1.02939,1.75136 -0.78718,1.20783 -1.93767,2.71762 -1.15049,1.50979 -2.66428,3.14036 -1.45327,1.63057 -3.08816,2.95919 -1.63491,1.32862 -3.39093,2.17411 -1.69546,0.90587 -3.33035,0.90587 -0.7872,0 -1.2716,-0.0604 -0.48442,-0.0604 -0.84774,-0.24152 -0.30275,-0.12076 -0.60553,-0.30195 -0.30275,-0.12076 -0.72661,-0.30195 -1.08995,0.84547 -2.24042,1.26823 -1.15049,0.48311 -2.24044,0.48311 -1.02939,0 -1.81657,-0.36233 -0.72663,-0.30197 -1.21103,-0.90589 -0.48442,-0.54352 -0.78718,-1.20783 -0.30277,-0.72468 -0.48442,-1.38901 -0.0605,0.24152 -0.12108,0.42276 0,0.18114 -0.0605,0.48311 -0.72661,2.89881 -1.51379,6.70347 -0.66607,3.26116 -1.63491,7.91131 -0.90828,4.71052 -1.93767,10.6893 -0.36332,1.63056 -1.2716,1.87213 -0.96882,0.24152 -2.17988,-0.24152 z m 11.08104,-37.44276 q -0.30275,1.02666 -0.66607,2.41567 -0.30275,1.32861 -0.72663,3.20075 0.48442,-0.36235 1.08995,-0.54352 0.60553,-0.18117 1.21103,-0.18117 0.66607,0 1.69546,0.7247 1.02939,0.66431 2.48265,1.4494 0.90829,-1.08705 1.87711,-2.41567 1.02938,-1.389 1.81656,-2.8384 0.84774,-1.4494 1.3927,-2.95918 0.60553,-1.50979 0.66607,-2.8988 0.12108,-1.81174 -0.42385,-2.8384 -0.54497,-1.02666 -1.81657,-1.02666 -1.87712,0 -4.11754,2.23449 -2.17988,2.17409 -4.48087,5.6768 z"
         style="font-size:25.4px;line-height:1.25;font-family:Satisfy;-inkscape-font-specification:Satisfy;fill:#ffffff;stroke-width:1.28817"
         id="path1155" />
      <path
         d="m 154.7091,822.2918 q 0.24216,-0.36235 0.60553,-0.42274 0.42385,-0.12078 0.66607,0.0604 0.24216,0.18116 0.24216,0.60391 0.0605,0.42274 -0.30275,1.14744 -1.21106,2.29488 -3.20927,4.95211 -1.93767,2.65723 -4.11755,5.0125 -2.17988,2.2949 -4.23865,3.80467 -2.05877,1.50979 -3.45148,1.50979 -1.99821,0 -3.33035,-0.78508 -1.33216,-0.78509 -2.11933,-1.93253 -0.72661,-1.14745 -1.02939,-2.47607 -0.30275,-1.38901 -0.18162,-2.53644 0.0605,-0.96627 0.42385,-3.44233 0.36332,-2.53644 0.96885,-5.79758 0.60551,-3.32154 1.33214,-7.06582 0.78718,-3.80466 1.63492,-7.30737 -1.02939,0.12078 -2.05878,0.24156 -1.02939,0.12079 -1.87713,0.12079 -1.93766,0 -3.63312,-0.42274 -1.75602,-0.48313 -2.60374,-0.90587 -0.48442,-0.24157 -0.42386,-0.66431 0.0606,-0.48313 0.3633,-0.90588 0.30277,-0.48313 0.7872,-0.78509 0.42386,-0.36234 0.78717,-0.36234 1.1505,0.12078 2.48263,0.24156 1.33214,0.0604 2.90649,0 1.1505,-0.0604 2.17988,-0.18116 1.08996,-0.12078 2.11934,-0.30196 0.78718,-2.89879 1.51379,-5.0125 0.78717,-2.17409 1.3927,-3.01958 0.18162,-0.30195 0.78718,-0.48313 0.66607,-0.24157 1.3927,-0.30196 0.72664,-0.12078 1.39271,0 0.66607,0.0604 0.96882,0.42275 0.30277,0.48313 0.24216,2.47605 -0.0605,1.99292 -0.66607,5.07289 2.5432,0 4.48087,0.30196 1.9982,0.24157 3.39091,0.60391 1.3927,0.30196 2.24042,0.66431 0.84774,0.30196 1.2716,0.42274 0.42386,0.12078 0.42386,0.60392 0.0605,0.48313 -0.18163,1.02665 -0.18162,0.48313 -0.66607,0.84549 -0.48442,0.36234 -1.08995,0.24157 -0.6055,-0.0604 -1.39268,-0.24157 -0.72663,-0.18117 -1.81656,-0.30196 -1.02939,-0.12079 -2.48266,-0.24157 -1.45324,-0.12079 -3.39091,-0.12079 -0.36332,0 -0.84772,0.0604 -0.42388,0 -0.90828,0 -0.24216,0.96626 -0.48442,1.93253 -0.18162,0.90587 -0.54496,1.93253 -0.7872,2.41566 -1.81659,5.25406 -0.90828,2.47606 -2.17986,5.67681 -1.27159,3.20075 -2.84594,6.82424 -0.36332,2.59684 0.0605,3.98585 0.48442,1.32861 1.15049,1.93253 0.78717,0.6643 1.93767,0.72469 0.90828,0.12079 2.17988,-0.60391 1.33214,-0.78509 2.72484,-2.05331 1.3927,-1.26822 2.78538,-2.77802 1.45327,-1.50978 2.66431,-2.95918 1.21103,-1.4494 2.11934,-2.59684 0.90828,-1.20783 1.27157,-1.69096 z"
         style="font-size:25.4px;line-height:1.25;font-family:Satisfy;-inkscape-font-specification:Satisfy;fill:#ffffff;stroke-width:1.28817"
         id="path1157" />
      <path
         d="m 168.99941,827.96861 q -0.60553,2.29488 -1.63492,4.2878 -1.02936,1.99292 -2.48263,3.44232 -1.3927,1.44939 -3.20927,2.23448 -1.75599,0.8455 -3.87533,0.8455 -2.48263,0 -3.93588,-1.08707 -1.3927,-1.02665 -2.11931,-2.59683 -0.6661,-1.57018 -0.7872,-3.44232 -0.18162,-1.87214 -0.18162,-3.50271 0,-1.14744 0.30275,-2.53644 0.24216,-1.38901 0.72663,-2.83841 0.48443,-1.44939 1.21104,-2.89879 0.78717,-1.4494 1.81656,-2.65723 0.36332,-1.02665 1.08995,-1.81174 0.78718,-0.7851 1.756,-1.26823 1.02938,-0.54352 2.17988,-0.78509 1.15049,-0.30196 2.24044,-0.30196 0.18162,0 0.30275,0.0604 0.18163,0.0604 0.36332,0.12078 0.78718,0.0604 1.93767,0.60392 1.21103,0.54352 2.30098,1.63057 1.1505,1.08705 1.93767,2.77801 0.78718,1.63057 0.78718,3.98584 0,0.48314 -0.0605,1.20784 -0.0605,0.6643 -0.12108,1.14744 1.3927,-0.54353 2.90651,-1.32862 1.51381,-0.78509 2.90649,-1.63057 1.45327,-0.90587 2.6643,-1.81175 1.21104,-0.90587 1.93767,-1.63057 0.60553,-0.54352 1.02939,-0.60392 0.42385,-0.0604 0.60553,0.24157 0.18162,0.30196 0.0605,0.84549 -0.12108,0.54352 -0.66607,1.20783 -0.30276,0.36235 -1.57435,1.44939 -1.21106,1.08705 -2.90652,2.35528 -1.69545,1.26822 -3.69366,2.47605 -1.99824,1.20783 -3.8148,1.81175 z m -10.23331,-9.17952 q -0.18162,0.54352 -0.18162,1.14744 0,0.96627 0.12108,2.05332 0.12109,1.02665 0.60553,1.87213 0.48443,0.84548 1.51381,1.4494 1.08993,0.54352 2.96706,0.54352 0.30275,0 0.60553,0 0.30275,-0.0604 0.6055,-0.12078 0.18162,-0.78509 0.30278,-1.38901 0.18162,-0.6643 0.18162,-1.14744 0.12108,-1.14743 0,-2.35527 -0.12108,-1.20783 -0.48442,-2.17409 -0.30276,-1.02666 -0.84772,-1.63057 -0.48442,-0.66431 -1.21106,-0.66431 -1.15049,0 -2.24042,0.66431 -1.02938,0.60391 -1.93767,1.75135 z m -3.87533,10.62892 q 0,1.08704 0.12108,2.17409 0.12108,1.02666 0.48442,1.87214 0.3633,0.78509 0.96883,1.32861 0.60552,0.48314 1.57435,0.48314 1.08995,0 1.99823,-0.48314 0.90828,-0.54352 1.63489,-1.32861 0.72663,-0.84548 1.2716,-1.87214 0.60553,-1.08705 1.02939,-2.23449 -0.42386,0.0604 -0.84772,0.12079 -0.36332,0 -0.84774,0 -2.30099,0 -3.99644,-1.32862 -1.63489,-1.389 -2.5432,-3.50271 -0.36329,1.26822 -0.6055,2.47606 -0.24217,1.20783 -0.24217,2.29488 z"
         style="font-size:25.4px;line-height:1.25;font-family:Satisfy;-inkscape-font-specification:Satisfy;fill:#ffffff;stroke-width:1.28817"
         id="path1159" />
      <path
         d="m 203.15082,835.51754 q 1.87713,0 4.11755,-1.44938 2.30098,-1.50979 4.4203,-3.50272 2.17988,-1.99292 3.9359,-4.04623 1.81656,-2.1137 2.72484,-3.38193 0.54497,-0.78509 1.02939,-0.90587 0.48442,-0.18117 0.72663,0.12078 0.24217,0.30196 0.18163,0.96627 -0.0605,0.60392 -0.54497,1.389 -0.42388,0.7247 -1.45327,2.11371 -0.96882,1.32861 -2.36152,2.95918 -1.33214,1.57019 -3.08816,3.26115 -1.69546,1.63057 -3.57256,3.01959 -1.87713,1.3286 -3.87534,2.17407 -1.99823,0.90587 -3.9359,0.90587 -2.66428,0 -4.48086,-1.02665 -1.756,-0.96626 -2.84595,-2.53643 -1.02939,-1.57019 -1.45325,-3.44232 -0.42386,-1.93253 -0.42386,-3.80467 0,-1.87214 0.84772,-4.65015 0.84774,-2.77801 2.48266,-5.31446 1.69545,-2.59684 4.23863,-4.40858 2.54319,-1.87214 5.99467,-1.87214 1.93767,0 3.26981,1.32861 1.3927,1.32862 1.33216,3.6235 0,1.08705 -0.36332,2.17409 -0.36331,1.02666 -0.96884,1.87214 -0.60551,0.78509 -1.45325,1.26822 -0.78717,0.48314 -1.75602,0.48314 -0.78717,0 -1.21103,-0.54353 -0.36332,-0.60391 -0.48443,-1.32861 -0.0605,-0.78509 0,-1.50979 0.12109,-0.7247 0.24217,-0.96627 0.30275,-0.42274 0.66607,-0.60391 0.36331,-0.18117 0.84774,-0.42274 0.36331,-0.18117 0.54496,-0.54353 0.24216,-0.36235 0.24216,-0.78509 0,-0.42274 -0.24216,-0.72469 -0.24216,-0.30196 -0.78717,-0.30196 -0.54497,0 -1.99824,0.90587 -1.39268,0.84548 -2.90649,2.59684 -1.45324,1.69096 -2.60373,4.2878 -1.1505,2.59683 -1.21106,6.03915 -0.0605,1.99292 0.54499,3.26115 0.6055,1.26822 1.51378,1.99292 0.90828,0.7247 1.99823,1.02666 1.08993,0.30194 2.11932,0.30194 z"
         style="font-size:25.4px;line-height:1.25;fill:#b45309;stroke-width:1.28817"
         id="path1161" />
      <path
         d="m 233.30577,827.96861 q -0.60551,2.29488 -1.63489,4.2878 -1.02939,1.99292 -2.48263,3.44232 -1.39271,1.44939 -3.20927,2.23448 -1.75602,0.8455 -3.87534,0.8455 -2.48265,0 -3.9359,-1.08707 -1.3927,-1.02665 -2.11931,-2.59683 -0.66607,-1.57018 -0.78718,-3.44232 -0.18162,-1.87214 -0.18162,-3.50271 0,-1.14744 0.30278,-2.53644 0.24216,-1.38901 0.72661,-2.83841 0.48442,-1.44939 1.21106,-2.89879 0.78717,-1.4494 1.81656,-2.65723 0.36331,-1.02665 1.08993,-1.81174 0.78717,-0.7851 1.75602,-1.26823 1.02938,-0.54352 2.17988,-0.78509 1.15049,-0.30196 2.24042,-0.30196 0.18162,0 0.30275,0.0604 0.18162,0.0604 0.36332,0.12078 0.78717,0.0604 1.93766,0.60392 1.21106,0.54352 2.30099,1.63057 1.15049,1.08705 1.93767,2.77801 0.78717,1.63057 0.78717,3.98584 0,0.48314 -0.0605,1.20784 -0.0605,0.6643 -0.12108,1.14744 1.39268,-0.54353 2.90649,-1.32862 1.51381,-0.78509 2.90651,-1.63057 1.45325,-0.90587 2.66428,-1.81175 1.21106,-0.90587 1.93767,-1.63057 0.60553,-0.54352 1.02939,-0.60392 0.42386,-0.0604 0.60553,0.24157 0.18162,0.30196 0.0605,0.84549 -0.12108,0.54352 -0.66607,1.20783 -0.30275,0.36235 -1.57435,1.44939 -1.21104,1.08705 -2.90649,2.35528 -1.69548,1.26822 -3.69369,2.47605 -1.99824,1.20783 -3.8148,1.81175 z m -10.2333,-9.17952 q -0.18163,0.54352 -0.18163,1.14744 0,0.96627 0.12108,2.05332 0.12109,1.02665 0.60551,1.87213 0.48442,0.84548 1.51381,1.4494 1.08995,0.54352 2.96705,0.54352 0.30276,0 0.60553,0 0.30276,-0.0604 0.60551,-0.12078 0.18162,-0.78509 0.30277,-1.38901 0.18163,-0.6643 0.18163,-1.14744 0.12108,-1.14743 0,-2.35527 -0.12109,-1.20783 -0.48443,-2.17409 -0.30275,-1.02666 -0.84771,-1.63057 -0.48443,-0.66431 -1.21104,-0.66431 -1.15049,0 -2.24044,0.66431 -1.02939,0.60391 -1.93767,1.75135 z m -3.87534,10.62892 q 0,1.08704 0.12108,2.17409 0.12108,1.02666 0.48442,1.87214 0.36332,0.78509 0.96883,1.32861 0.60552,0.48314 1.57437,0.48314 1.08993,0 1.99821,-0.48314 0.90828,-0.54352 1.63492,-1.32861 0.72661,-0.84548 1.27159,-1.87214 0.60551,-1.08705 1.02939,-2.23449 -0.42388,0.0604 -0.84774,0.12079 -0.36332,0 -0.84774,0 -2.30096,0 -3.99644,-1.32862 -1.63489,-1.389 -2.54317,-3.50271 -0.36332,1.26822 -0.60553,2.47606 -0.24217,1.20783 -0.24217,2.29488 z"
         style="font-size:25.4px;line-height:1.25;fill:#b45309;stroke-width:1.28817"
         id="path1163" />
      <path
         d="m 240.9959,831.29014 q -0.66607,-0.6643 -0.96882,-1.26822 -0.24216,-0.66431 -0.36332,-1.26822 -0.12108,-0.66431 0,-1.32862 0.24216,-0.84548 0.72664,-1.57018 0.42385,-0.6643 1.15046,-1.32861 0.72664,-0.7247 1.93767,-1.32862 0.7872,-1.93253 1.39271,-4.04623 0.66607,-2.1741 1.15049,-3.92545 0.54496,-2.05331 0.96884,-4.10663 1.51379,-5.13328 1.57436,-8.33403 0.0605,-3.26115 -0.12109,-4.2878 -0.0605,-0.42274 -0.12108,-0.84548 -0.12108,-0.36235 -0.24216,-0.78509 -0.0605,-0.48314 -0.18162,-0.90588 0.66607,-0.36235 1.15049,-0.60391 0.54496,-0.24157 0.90828,-0.36235 0.42386,-0.18117 0.78718,-0.24157 1.39268,-0.30196 2.60373,-0.30196 1.2716,-0.0604 1.39271,0.42274 0.0605,0.30196 0.12108,1.08705 0.12108,0.78509 0.12108,1.93253 0,1.14744 -0.18162,2.59683 -0.18162,1.38901 -0.66607,2.95919 -0.42386,1.38901 -1.15049,3.86506 -0.66607,2.11371 -1.75602,5.67681 -1.08993,3.50271 -2.84595,8.99834 1.81656,-0.60392 3.99644,-1.14744 2.17988,-0.54353 4.42032,-0.90587 2.30096,-0.36235 4.54141,-0.54353 2.30098,-0.18116 4.23865,-0.0604 0.36329,0 0.4844,0.36235 0.18162,0.30196 0,0.6643 -0.12108,0.36235 -0.66607,0.7247 -0.48442,0.30196 -1.45324,0.36235 -1.21104,0.12079 -2.66431,0.30196 -1.45324,0.12079 -3.02759,0.42274 -1.51381,0.24157 -3.02762,0.66431 -1.51379,0.36235 -2.84595,0.90587 -1.02939,0.36235 -2.05878,0.7247 -0.84771,0.30196 -1.81656,0.7247 -0.90828,0.36235 -1.51378,0.66431 l -1.39271,4.40858 q 3.51202,2.47605 5.38915,5.07289 1.93767,2.59683 2.78538,4.77093 1.02939,2.53645 1.1505,4.95209 0,2.65724 -0.78718,5.31448 -0.78718,2.71762 -2.11931,5.13326 -1.2716,2.47608 -3.02762,4.58977 -1.69546,2.11372 -3.63313,3.62349 -1.87713,1.5098 -3.87533,2.29488 -1.93767,0.78509 -3.69369,0.60393 -1.27158,-0.12076 -2.11932,-0.8455 -0.84774,-0.6643 -1.2716,-1.75134 -0.42386,-1.02665 -0.48442,-2.35528 -0.0605,-1.26823 0.24216,-2.53643 0.24217,-1.26823 1.02939,-4.71056 0.66607,-2.89878 2.05877,-8.45482 1.39271,-5.49562 3.75423,-14.67513 z m 3.57258,2.83841 q -0.84774,3.01957 -1.51381,5.55603 -0.6055,2.53643 -1.02938,4.46896 -0.54497,2.2345 -0.84772,4.04625 -0.54499,2.29488 -1.15049,4.52936 -0.54497,2.23448 -0.84774,3.98584 -0.36332,1.81175 -0.30275,2.89879 0.0605,1.08706 0.78717,1.08706 1.75602,0.12076 3.63313,-1.38901 1.93766,-1.4494 3.51201,-3.74428 1.57435,-2.23448 2.60374,-4.89172 1.02939,-2.59683 1.02939,-4.83133 0,-2.47605 -0.78718,-4.8917 -0.54496,-1.26822 -1.2716,-2.47607 -0.66606,-1.02666 -1.63489,-2.1741 -0.90828,-1.20782 -2.17988,-2.17408 z"
         style="font-size:25.4px;line-height:1.25;fill:#b45309;stroke-width:1.28817"
         id="path1165" />
      <path
         d="m 261.15973,831.29014 q -0.66607,-0.6643 -0.96882,-1.26822 -0.24216,-0.66431 -0.36332,-1.26822 -0.12108,-0.66431 0,-1.32862 0.24216,-0.84548 0.72661,-1.57018 0.42388,-0.6643 1.15049,-1.32861 0.72664,-0.7247 1.93767,-1.32862 0.78718,-1.93253 1.39271,-4.04623 0.66607,-2.1741 1.15049,-3.92545 0.54496,-2.05331 0.96885,-4.10663 1.51378,-5.13328 1.57435,-8.33403 0.0605,-3.26115 -0.12109,-4.2878 -0.0605,-0.42274 -0.12108,-0.84548 -0.12108,-0.36235 -0.24216,-0.78509 -0.0605,-0.48314 -0.18162,-0.90588 0.66607,-0.36235 1.15047,-0.60391 0.54499,-0.24157 0.90828,-0.36235 0.42388,-0.18117 0.7872,-0.24157 1.39268,-0.30196 2.60374,-0.30196 1.27159,-0.0604 1.3927,0.42274 0.0605,0.30196 0.12108,1.08705 0.12108,0.78509 0.12108,1.93253 0,1.14744 -0.18162,2.59683 -0.18162,1.38901 -0.66607,2.95919 -0.42386,1.38901 -1.15049,3.86506 -0.66607,2.11371 -1.75602,5.67681 -1.08993,3.50271 -2.84595,8.99834 1.81656,-0.60392 3.99644,-1.14744 2.17988,-0.54353 4.4203,-0.90587 2.30098,-0.36235 4.54143,-0.54353 2.30096,-0.18116 4.23863,-0.0604 0.36331,0 0.48442,0.36235 0.18162,0.30196 0,0.6643 -0.12108,0.36235 -0.66607,0.7247 -0.48442,0.30196 -1.45324,0.36235 -1.21106,0.12079 -2.66431,0.30196 -1.45324,0.12079 -3.02759,0.42274 -1.51381,0.24157 -3.02762,0.66431 -1.51379,0.36235 -2.84595,0.90587 -1.02939,0.36235 -2.05877,0.7247 -0.84772,0.30196 -1.81657,0.7247 -0.90828,0.36235 -1.51378,0.66431 l -1.39271,4.40858 q 3.51202,2.47605 5.38912,5.07289 1.93767,2.59683 2.78541,4.77093 1.02939,2.53645 1.1505,4.95209 0,2.65724 -0.78718,5.31448 -0.78717,2.71762 -2.11934,5.13326 -1.27157,2.47608 -3.02759,4.58977 -1.69546,2.11372 -3.63313,3.62349 -1.87713,1.5098 -3.87533,2.29488 -1.93767,0.78509 -3.69369,0.60393 -1.2716,-0.12076 -2.11932,-0.8455 -0.84774,-0.6643 -1.2716,-1.75134 -0.42385,-1.02665 -0.48442,-2.35528 -0.0605,-1.26823 0.24216,-2.53643 0.24217,-1.26823 1.02939,-4.71056 0.66607,-2.89878 2.05877,-8.45482 1.39271,-5.49562 3.75423,-14.67513 z m 3.57258,2.83841 q -0.84774,3.01957 -1.51381,5.55603 -0.60552,2.53643 -1.02938,4.46896 -0.54497,2.2345 -0.84772,4.04625 -0.54499,2.29488 -1.15049,4.52936 -0.54499,2.23448 -0.84774,3.98584 -0.36332,1.81175 -0.30275,2.89879 0.0605,1.08706 0.78717,1.08706 1.756,0.12076 3.63313,-1.38901 1.93766,-1.4494 3.51201,-3.74428 1.57436,-2.23448 2.60374,-4.89172 1.02939,-2.59683 1.02939,-4.83133 0,-2.47605 -0.78718,-4.8917 -0.54496,-1.26822 -1.27159,-2.47607 -0.66607,-1.02666 -1.6349,-2.1741 -0.90828,-1.20782 -2.17988,-2.17408 z"
         style="font-size:25.4px;line-height:1.25;fill:#b45309;stroke-width:1.28817"
         id="path1167" />
      <path
         d="m 307.54266,825.00942 q -1.81657,2.65723 -4.11753,5.19368 -2.30098,2.47605 -4.90472,4.46897 -2.5432,1.93254 -5.26804,3.14036 -2.6643,1.20784 -5.20747,1.20784 -1.33217,0 -2.90652,-0.66432 -1.51381,-0.6039 -2.78541,-1.93253 -1.27157,-1.32861 -2.05875,-3.44231 -0.72663,-2.11371 -0.42388,-5.13329 0.24216,-2.47605 1.51381,-5.19367 1.33214,-2.77801 3.20927,-5.07289 1.93767,-2.29488 4.29919,-3.80467 2.42209,-1.50979 4.84418,-1.50979 2.30096,0 3.33035,1.14744 1.02939,1.14744 0.90828,2.83841 -0.18162,1.87214 -1.08993,3.44231 -0.84774,1.57018 -2.05877,2.83841 -1.21103,1.26822 -2.60374,2.29488 -1.33214,1.02665 -2.54319,1.87214 -1.33214,0.90587 -2.54318,1.75135 -1.21105,0.78509 -2.11933,1.4494 0.0605,1.50979 0.54496,2.53644 0.48442,1.02666 1.21106,1.69097 0.72661,0.60391 1.63489,0.90587 0.96884,0.24157 1.93767,0.24157 2.05877,0 4.29921,-1.26822 2.24042,-1.32862 4.35974,-3.14036 2.17988,-1.87214 3.99644,-3.86506 1.87713,-1.99293 3.08816,-3.44232 0.42388,-0.48314 0.84774,-0.54353 0.48442,-0.12078 0.72661,0.12079 0.30278,0.18116 0.30278,0.7247 0,0.48313 -0.42388,1.14743 z m -15.50135,-9.3003 q -0.72661,0 -1.75599,0.7247 -0.96885,0.7247 -1.93767,2.1137 -0.96885,1.32862 -1.81656,3.32154 -0.84775,1.93253 -1.2716,4.46898 0.72663,-0.54353 1.57435,-1.08705 0.84774,-0.60392 1.69545,-1.26823 2.60374,-1.99291 3.63313,-3.50271 1.02939,-1.50978 1.15049,-2.59683 0.12108,-1.14744 -0.24216,-1.63057 -0.36329,-0.54353 -1.02939,-0.54353 z"
         style="font-size:25.4px;line-height:1.25;fill:#b45309;stroke-width:1.28817"
         id="path1169" />
      <path
         d="m 330.61305,825.00942 q -1.81656,2.65723 -4.11755,5.19368 -2.30098,2.47605 -4.90472,4.46897 -2.5432,1.93254 -5.26804,3.14036 -2.6643,1.20784 -5.20748,1.20784 -1.33216,0 -2.90651,-0.66432 -1.51379,-0.6039 -2.78538,-1.93253 -1.2716,-1.32861 -2.05878,-3.44231 -0.72663,-2.11371 -0.42388,-5.13329 0.24216,-2.47605 1.51381,-5.19367 1.33216,-2.77801 3.20927,-5.07289 1.93766,-2.29488 4.29919,-3.80467 2.42209,-1.50979 4.84418,-1.50979 2.30099,0 3.33037,1.14744 1.02939,1.14744 0.90829,2.83841 -0.18163,1.87214 -1.08996,3.44231 -0.84771,1.57018 -2.05877,2.83841 -1.21103,1.26822 -2.60374,2.29488 -1.33214,1.02665 -2.54319,1.87214 -1.33214,0.90587 -2.54318,1.75135 -1.21105,0.78509 -2.11934,1.4494 0.0605,1.50979 0.54499,2.53644 0.4844,1.02666 1.21104,1.69097 0.72663,0.60391 1.63491,0.90587 0.96882,0.24157 1.93767,0.24157 2.05877,0 4.29919,-1.26822 2.24042,-1.32862 4.35976,-3.14036 2.17986,-1.87214 3.99644,-3.86506 1.87711,-1.99293 3.08814,-3.44232 0.42388,-0.48314 0.84774,-0.54353 0.48442,-0.12078 0.72664,0.12079 0.30275,0.18116 0.30275,0.7247 0,0.48313 -0.42386,1.14743 z m -15.50134,-9.3003 q -0.72664,0 -1.75603,0.7247 -0.96882,0.7247 -1.93766,2.1137 -0.96883,1.32862 -1.81657,3.32154 -0.84774,1.93253 -1.27159,4.46898 0.72663,-0.54353 1.57435,-1.08705 0.84774,-0.60392 1.69548,-1.26823 2.60374,-1.99291 3.63312,-3.50271 1.02939,-1.50978 1.15049,-2.59683 0.12109,-1.14744 -0.24216,-1.63057 -0.36332,-0.54353 -1.02938,-0.54353 z"
         style="font-size:25.4px;line-height:1.25;fill:#b45309;stroke-width:1.28817"
         id="path1171" />
    </g>
  </g>
</svg>
